<svg width="621" height="208" viewBox="0 0 621 208" fill="none" xmlns="http://www.w3.org/2000/svg">
<g clip-path="url(#clip0_1247_4210)">
<rect width="621" height="208" rx="8" fill="#F7F7F7"/>
<rect width="621" height="208" rx="8" fill="#DB4431"/>
<path d="M483.974 94.82C484.298 98.4805 477.512 100.485 473.995 94.82C470.193 89.816 472.988 78.1957 483.974 74.8409C494.32 70.8693 510.692 78.4932 513.91 94.82C518.01 110.519 505.63 131.698 483.974 134.781C462.99 139.024 436.988 121.84 434.079 94.82C429.671 68.4591 451.681 37.659 483.974 34.88C515.64 30.3325 551.19 57.1308 553.825 94.82C558.515 131.85 526.949 172.267 483.974 174.741C441.632 179.592 396.503 143.173 394.165 94.82C389.185 47.0967 430.323 -2.88529 483.974 -5.0798C536.947 -10.2049 591.714 35.7739 593.741 94.82C599.025 153.207 548.276 212.811 483.974 214.7C420.318 220.13 355.998 164.535 354.249 94.82C348.693 25.7658 408.991 -43.4479 483.974 -45.0399C558.286 -50.7738 632.212 14.4434 633.656 94.82C639.522 174.569 569.608 253.348 483.974 254.661C399.011 260.674 315.474 185.891 314.334 94.82C308.188 4.40906 387.67 -83.9915 483.974 -85" stroke="white" stroke-opacity="0.4" stroke-width="3" stroke-linecap="round"/>
<path d="M86.5478 185.488C86.7281 187.533 82.9536 188.653 80.9971 185.488C78.8824 182.691 80.4372 176.198 86.5478 174.323C92.3031 172.103 101.41 176.364 103.2 185.488C105.48 194.261 98.594 206.096 86.5478 207.819C74.8758 210.19 60.4122 200.587 58.7942 185.488C56.3418 170.757 68.585 153.545 86.5478 151.992C104.162 149.451 123.937 164.426 125.403 185.488C128.011 206.181 110.453 228.767 86.5478 230.149C62.9955 232.86 37.892 212.508 36.5916 185.488C33.8215 158.819 56.7046 130.888 86.5478 129.661C116.014 126.797 146.478 152.491 147.606 185.488C150.545 218.116 122.316 251.424 86.5478 252.479C51.1394 255.514 15.3614 224.446 14.3887 185.488C11.2979 146.899 44.8387 108.22 86.5478 107.331C127.884 104.126 169.005 140.571 169.809 185.488C173.072 230.053 134.182 274.077 86.5478 274.811C39.2876 278.171 -7.17984 236.38 -7.81418 185.488C-11.2327 134.964 32.9791 85.5636 86.5478 85" stroke="white" stroke-opacity="0.4" stroke-width="3" stroke-linecap="round"/>
</g>
<defs>
<clipPath id="clip0_1247_4210">
<rect width="621" height="208" fill="white"/>
</clipPath>
</defs>
</svg>
