<svg width="144" height="57" viewBox="0 0 144 57" fill="none" xmlns="http://www.w3.org/2000/svg">
<path d="M140 0C142.209 3.54341e-07 144 1.79086 144 4V34.5L142.981 34.2822C140.41 33.7311 138.115 32.29 136.5 30.2139L136.467 30H23C20.7909 30 19 28.2091 19 26V4C19 1.79086 20.7909 1.02678e-07 23 0H140Z" fill="white"/Indep/>
<path d="M98 39C100.209 39 102 40.7909 102 43V50C102 52.2091 100.209 54 98 54H6.55469C5.05858 55.3982 3.19653 56.3605 1.1709 56.7656L0 57V43C0 40.7909 1.79086 39 4 39H98Z" fill="white"/Indep/>
<path d="M72.945 23.1C72.8584 23.1 72.7884 23.0717 72.735 23.015C72.6817 22.9617 72.655 22.8967 72.655 22.82C72.655 22.7434 72.6817 22.68 72.735 22.63C72.7884 22.5767 72.8584 22.55 72.945 22.55C73.0284 22.55 73.0984 22.5767 73.155 22.63C73.2117 22.68 73.24 22.7434 73.24 22.82C73.24 22.8967 73.2117 22.9617 73.155 23.015C73.0984 23.0717 73.0284 23.1 72.945 23.1Z" fill="#1E1E1E"/Indep/>
<path d="M69.6432 20.5H70.0932V22.365L71.4482 20.5H71.8882V23H71.4382V21.13L70.0782 23H69.6432V20.5Z" fill="#1E1E1E"/Indep/>
<path d="M66.7084 20.5H67.1584V23H66.7084V20.5ZM66.7434 21.505H68.0334L68.4984 20.5H68.9734L68.3434 21.685L69.0434 23H68.5334L68.0134 21.83H66.7784L66.7434 21.505Z" fill="#1E1E1E"/Indep/>
<path d="M63.72 20.4999H64.17V23.9999H63.72V20.4999ZM64.99 23.0999C64.79 23.0999 64.62 23.0366 64.48 22.9099C64.3433 22.7832 64.2383 22.6149 64.165 22.4049C64.095 22.1949 64.06 21.9682 64.06 21.7249C64.06 21.4782 64.0966 21.2549 64.17 21.0549C64.2466 20.8549 64.3566 20.6966 64.5 20.5799C64.6433 20.4599 64.8166 20.3999 65.02 20.3999C65.2633 20.3999 65.4666 20.4566 65.63 20.5699C65.7933 20.6832 65.9166 20.8399 66 21.0399C66.0866 21.2366 66.13 21.4649 66.13 21.7249C66.13 21.9849 66.0833 22.2182 65.99 22.4249C65.9 22.6316 65.77 22.7966 65.6 22.9199C65.43 23.0399 65.2266 23.0999 64.99 23.0999ZM64.945 22.7499C65.1716 22.7499 65.35 22.6566 65.48 22.4699C65.6133 22.2832 65.68 22.0332 65.68 21.7199C65.68 21.4132 65.615 21.1749 65.485 21.0049C65.3583 20.8349 65.18 20.7499 64.95 20.7499C64.8 20.7499 64.665 20.7916 64.545 20.8749C64.4283 20.9582 64.3366 21.0732 64.27 21.2199C64.2033 21.3632 64.17 21.5282 64.17 21.7149C64.17 21.9082 64.2016 22.0832 64.265 22.2399C64.3316 22.3966 64.4233 22.5216 64.54 22.6149C64.6566 22.7049 64.7916 22.7499 64.945 22.7499Z" fill="#1E1E1E"/Indep/>
<path d="M61.9909 23.0999C61.7576 23.0999 61.5526 23.0499 61.3759 22.9499C61.2026 22.8466 61.0659 22.6949 60.9659 22.4949C60.8693 22.2916 60.8209 22.0416 60.8209 21.7449C60.8209 21.3049 60.9226 20.9716 61.1259 20.7449C61.3293 20.5149 61.6109 20.3999 61.9709 20.3999C62.2176 20.3999 62.4276 20.4549 62.6009 20.5649C62.7743 20.6716 62.9026 20.8299 62.9859 21.0399C63.0726 21.2499 63.1059 21.5082 63.0859 21.8149H61.2709C61.2709 22.0849 61.3293 22.3082 61.4459 22.4849C61.5659 22.6616 61.7493 22.7499 61.9959 22.7499C62.1393 22.7499 62.2709 22.7182 62.3909 22.6549C62.5109 22.5916 62.6143 22.5016 62.7009 22.3849L62.9659 22.6499C62.8659 22.7832 62.7326 22.8916 62.5659 22.9749C62.4026 23.0582 62.2109 23.0999 61.9909 23.0999ZM61.2909 21.5199H62.6209C62.5976 21.2632 62.5293 21.0716 62.4159 20.9449C62.3026 20.8149 62.1543 20.7499 61.9709 20.7499C61.7876 20.7499 61.6343 20.8149 61.5109 20.9449C61.3876 21.0716 61.3143 21.2632 61.2909 21.5199Z" fill="#1E1E1E"/Indep/>
<path d="M58.3053 20.5H59.3503C59.6703 20.5 59.8969 20.545 60.0303 20.635C60.1669 20.725 60.2353 20.875 60.2353 21.085C60.2353 21.2583 60.1886 21.3883 60.0953 21.475C60.0053 21.5617 59.8486 21.6283 59.6253 21.675C59.8853 21.6883 60.0769 21.7483 60.2003 21.855C60.3236 21.9617 60.3853 22.1183 60.3853 22.325C60.3853 22.475 60.3519 22.6 60.2853 22.7C60.2186 22.8 60.1153 22.875 59.9753 22.925C59.8353 22.975 59.6536 23 59.4303 23H58.3053V20.5ZM59.2653 21.58C59.4286 21.58 59.5553 21.5483 59.6453 21.485C59.7386 21.4217 59.7853 21.3267 59.7853 21.2C59.7853 21.0767 59.7403 20.9883 59.6503 20.935C59.5636 20.8783 59.4386 20.85 59.2753 20.85H58.7553V21.58H59.2653ZM59.3603 22.65C59.5536 22.65 59.6969 22.6167 59.7903 22.55C59.8869 22.4833 59.9353 22.385 59.9353 22.255C59.9353 22.1217 59.8869 22.0283 59.7903 21.975C59.6936 21.9183 59.5486 21.89 59.3553 21.89H58.7553V22.65H59.3603Z" fill="#1E1E1E"/Indep/>
<path d="M56.4296 23.0999C56.1763 23.0999 55.9613 23.0466 55.7846 22.9399C55.608 22.8332 55.473 22.6782 55.3796 22.4749C55.2896 22.2682 55.2446 22.0182 55.2446 21.7249C55.2446 21.4482 55.2896 21.2116 55.3796 21.0149C55.473 20.8149 55.608 20.6632 55.7846 20.5599C55.9646 20.4532 56.1813 20.3999 56.4346 20.3999C56.8446 20.3999 57.153 20.5166 57.3596 20.7499C57.5696 20.9832 57.6746 21.3082 57.6746 21.7249C57.6746 22.1649 57.5696 22.5049 57.3596 22.7449C57.1496 22.9816 56.8396 23.0999 56.4296 23.0999ZM56.4396 22.7499C56.7063 22.7499 56.903 22.6666 57.0296 22.4999C57.1596 22.3332 57.2246 22.0782 57.2246 21.7349C57.2246 21.4082 57.1596 21.1632 57.0296 20.9999C56.903 20.8332 56.7096 20.7499 56.4496 20.7499C56.193 20.7499 56.003 20.8299 55.8796 20.9899C55.7563 21.1466 55.6946 21.3916 55.6946 21.7249C55.6946 22.0649 55.7563 22.3216 55.8796 22.4949C56.003 22.6649 56.1896 22.7499 56.4396 22.7499Z" fill="#1E1E1E"/Indep/>
<path d="M52.4163 20.4999H52.8663V23.9999H52.4163V20.4999ZM53.6863 23.0999C53.4863 23.0999 53.3163 23.0366 53.1763 22.9099C53.0396 22.7832 52.9346 22.6149 52.8613 22.4049C52.7913 22.1949 52.7563 21.9682 52.7563 21.7249C52.7563 21.4782 52.7929 21.2549 52.8663 21.0549C52.9429 20.8549 53.0529 20.6966 53.1963 20.5799C53.3396 20.4599 53.5129 20.3999 53.7163 20.3999C53.9596 20.3999 54.1629 20.4566 54.3263 20.5699C54.4896 20.6832 54.6129 20.8399 54.6963 21.0399C54.7829 21.2366 54.8263 21.4649 54.8263 21.7249C54.8263 21.9849 54.7796 22.2182 54.6863 22.4249C54.5963 22.6316 54.4663 22.7966 54.2963 22.9199C54.1263 23.0399 53.9229 23.0999 53.6863 23.0999ZM53.6413 22.7499C53.8679 22.7499 54.0463 22.6566 54.1763 22.4699C54.3096 22.2832 54.3763 22.0332 54.3763 21.7199C54.3763 21.4132 54.3113 21.1749 54.1813 21.0049C54.0546 20.8349 53.8763 20.7499 53.6463 20.7499C53.4963 20.7499 53.3613 20.7916 53.2413 20.8749C53.1246 20.9582 53.0329 21.0732 52.9663 21.2199C52.8996 21.3632 52.8663 21.5282 52.8663 21.7149C52.8663 21.9082 52.8979 22.0832 52.9613 22.2399C53.0279 22.3966 53.1196 22.5216 53.2363 22.6149C53.3529 22.7049 53.4879 22.7499 53.6413 22.7499Z" fill="#1E1E1E"/Indep/>
<path d="M49.3904 20.5H51.5804V23H51.1304V20.9H49.8404V23H49.3904V20.5Z" fill="#1E1E1E"/Indep/>
<path d="M46.5466 23.0999C46.3133 23.0999 46.1083 23.0499 45.9316 22.9499C45.7583 22.8466 45.6216 22.6949 45.5216 22.4949C45.4249 22.2916 45.3766 22.0416 45.3766 21.7449C45.3766 21.3049 45.4783 20.9716 45.6816 20.7449C45.8849 20.5149 46.1666 20.3999 46.5266 20.3999C46.7733 20.3999 46.9833 20.4549 47.1566 20.5649C47.3299 20.6716 47.4583 20.8299 47.5416 21.0399C47.6283 21.2499 47.6616 21.5082 47.6416 21.8149H45.8266C45.8266 22.0849 45.8849 22.3082 46.0016 22.4849C46.1216 22.6616 46.3049 22.7499 46.5516 22.7499C46.6949 22.7499 46.8266 22.7182 46.9466 22.6549C47.0666 22.5916 47.1699 22.5016 47.2566 22.3849L47.5216 22.6499C47.4216 22.7832 47.2883 22.8916 47.1216 22.9749C46.9583 23.0582 46.7666 23.0999 46.5466 23.0999ZM45.8466 21.5199H47.1766C47.1533 21.2632 47.0849 21.0716 46.9716 20.9449C46.8583 20.8149 46.7099 20.7499 46.5266 20.7499C46.3433 20.7499 46.1899 20.8149 46.0666 20.9449C45.9433 21.0716 45.8699 21.2632 45.8466 21.5199Z" fill="#1E1E1E"/Indep/>
<path d="M45.0022 22.6499C44.8989 22.7832 44.7589 22.8916 44.5822 22.9749C44.4089 23.0582 44.2072 23.0999 43.9772 23.0999C43.6172 23.0999 43.3388 22.9816 43.1422 22.7449C42.9455 22.5049 42.8472 22.1649 42.8472 21.7249C42.8472 21.3082 42.9439 20.9832 43.1372 20.7499C43.3339 20.5166 43.6122 20.3999 43.9722 20.3999C44.1955 20.3999 44.3922 20.4416 44.5622 20.5249C44.7322 20.6082 44.8688 20.7166 44.9722 20.8499L44.7072 21.1149C44.6172 20.9982 44.5088 20.9082 44.3822 20.8449C44.2588 20.7816 44.1272 20.7499 43.9872 20.7499C43.7539 20.7499 43.5805 20.8299 43.4672 20.9899C43.3539 21.1466 43.2972 21.3916 43.2972 21.7249C43.2972 22.0649 43.3539 22.3216 43.4672 22.4949C43.5805 22.6649 43.7505 22.7499 43.9772 22.7499C44.1239 22.7499 44.2639 22.7182 44.3972 22.6549C44.5339 22.5916 44.6472 22.5016 44.7372 22.3849L45.0022 22.6499Z" fill="#1E1E1E"/Indep/>
<path d="M42.4778 22.6499C42.3744 22.7832 42.2344 22.8916 42.0578 22.9749C41.8844 23.0582 41.6828 23.0999 41.4528 23.0999C41.0928 23.0999 40.8144 22.9816 40.6178 22.7449C40.4211 22.5049 40.3228 22.1649 40.3228 21.7249C40.3228 21.3082 40.4194 20.9832 40.6128 20.7499C40.8094 20.5166 41.0878 20.3999 41.4478 20.3999C41.6711 20.3999 41.8678 20.4416 42.0378 20.5249C42.2078 20.6082 42.3444 20.7166 42.4478 20.8499L42.1828 21.1149C42.0928 20.9982 41.9844 20.9082 41.8578 20.8449C41.7344 20.7816 41.6028 20.7499 41.4628 20.7499C41.2294 20.7499 41.0561 20.8299 40.9428 20.9899C40.8294 21.1466 40.7728 21.3916 40.7728 21.7249C40.7728 22.0649 40.8294 22.3216 40.9428 22.4949C41.0561 22.6649 41.2261 22.7499 41.4528 22.7499C41.5994 22.7499 41.7394 22.7182 41.8728 22.6549C42.0094 22.5916 42.1228 22.5016 42.2128 22.3849L42.4778 22.6499Z" fill="#1E1E1E"/Indep/>
<path d="M38.7488 23.0999C38.5154 23.0999 38.3104 23.0499 38.1338 22.9499C37.9604 22.8466 37.8238 22.6949 37.7238 22.4949C37.6271 22.2916 37.5788 22.0416 37.5788 21.7449C37.5788 21.3049 37.6804 20.9716 37.8838 20.7449C38.0871 20.5149 38.3688 20.3999 38.7288 20.3999C38.9754 20.3999 39.1854 20.4549 39.3588 20.5649C39.5321 20.6716 39.6604 20.8299 39.7438 21.0399C39.8304 21.2499 39.8638 21.5082 39.8438 21.8149H38.0288C38.0288 22.0849 38.0871 22.3082 38.2038 22.4849C38.3238 22.6616 38.5071 22.7499 38.7538 22.7499C38.8971 22.7499 39.0288 22.7182 39.1488 22.6549C39.2688 22.5916 39.3721 22.5016 39.4588 22.3849L39.7238 22.6499C39.6238 22.7832 39.4904 22.8916 39.3238 22.9749C39.1604 23.0582 38.9688 23.0999 38.7488 23.0999ZM38.0488 21.5199H39.3788C39.3554 21.2632 39.2871 21.0716 39.1738 20.9449C39.0604 20.8149 38.9121 20.7499 38.7288 20.7499C38.5454 20.7499 38.3921 20.8149 38.2688 20.9449C38.1454 21.0716 38.0721 21.2632 38.0488 21.5199Z" fill="#1E1E1E"/Indep/>
<path d="M34.3648 20.5H34.8148V22.6H36.1098V20.5H36.5598V22.61C36.6865 22.61 36.7882 22.6217 36.8648 22.645C36.9448 22.665 37.0065 22.7083 37.0498 22.775C37.0932 22.8417 37.1232 22.94 37.1398 23.07C37.1565 23.2033 37.1648 23.38 37.1648 23.6H36.7848C36.7848 23.5133 36.7865 23.4333 36.7898 23.36C36.7932 23.29 36.7882 23.2267 36.7748 23.17C36.7648 23.1167 36.7398 23.075 36.6998 23.045C36.6632 23.015 36.6032 23 36.5198 23H34.3648V20.5Z" fill="#1E1E1E"/Indep/>
<path d="M32.4892 23.0999C32.2359 23.0999 32.0209 23.0466 31.8442 22.9399C31.6675 22.8332 31.5325 22.6782 31.4392 22.4749C31.3492 22.2682 31.3042 22.0182 31.3042 21.7249C31.3042 21.4482 31.3492 21.2116 31.4392 21.0149C31.5325 20.8149 31.6675 20.6632 31.8442 20.5599C32.0242 20.4532 32.2409 20.3999 32.4942 20.3999C32.9042 20.3999 33.2125 20.5166 33.4192 20.7499C33.6292 20.9832 33.7342 21.3082 33.7342 21.7249C33.7342 22.1649 33.6292 22.5049 33.4192 22.7449C33.2092 22.9816 32.8992 23.0999 32.4892 23.0999ZM32.4992 22.7499C32.7659 22.7499 32.9625 22.6666 33.0892 22.4999C33.2192 22.3332 33.2842 22.0782 33.2842 21.7349C33.2842 21.4082 33.2192 21.1632 33.0892 20.9999C32.9625 20.8332 32.7692 20.7499 32.5092 20.7499C32.2525 20.7499 32.0625 20.8299 31.9392 20.9899C31.8159 21.1466 31.7542 21.3916 31.7542 21.7249C31.7542 22.0649 31.8159 22.3216 31.9392 22.4949C32.0625 22.6649 32.2492 22.7499 32.4992 22.7499Z" fill="#1E1E1E"/Indep/>
<path d="M28.4758 20.4999H28.9258V23.9999H28.4758V20.4999ZM29.7458 23.0999C29.5458 23.0999 29.3758 23.0366 29.2358 22.9099C29.0991 22.7832 28.9941 22.6149 28.9208 22.4049C28.8508 22.1949 28.8158 21.9682 28.8158 21.7249C28.8158 21.4782 28.8525 21.2549 28.9258 21.0549C29.0025 20.8549 29.1125 20.6966 29.2558 20.5799C29.3991 20.4599 29.5725 20.3999 29.7758 20.3999C30.0191 20.3999 30.2225 20.4566 30.3858 20.5699C30.5491 20.6832 30.6725 20.8399 30.7558 21.0399C30.8425 21.2366 30.8858 21.4649 30.8858 21.7249C30.8858 21.9849 30.8391 22.2182 30.7458 22.4249C30.6558 22.6316 30.5258 22.7966 30.3558 22.9199C30.1858 23.0399 29.9825 23.0999 29.7458 23.0999ZM29.7008 22.7499C29.9275 22.7499 30.1058 22.6566 30.2358 22.4699C30.3691 22.2832 30.4358 22.0332 30.4358 21.7199C30.4358 21.4132 30.3708 21.1749 30.2408 21.0049C30.1141 20.8349 29.9358 20.7499 29.7058 20.7499C29.5558 20.7499 29.4208 20.7916 29.3008 20.8749C29.1841 20.9582 29.0925 21.0732 29.0258 21.2199C28.9591 21.3632 28.9258 21.5282 28.9258 21.7149C28.9258 21.9082 28.9575 22.0832 29.0208 22.2399C29.0875 22.3966 29.1791 22.5216 29.2958 22.6149C29.4125 22.7049 29.5475 22.7499 29.7008 22.7499Z" fill="#1E1E1E"/Indep/>
<path d="M25.45 20.5H27.64V23H27.19V20.9H25.9V23H25.45V20.5Z" fill="#1E1E1E"/Indep/>
<path d="M120.673 14.5H121.718C122.038 14.5 122.265 14.545 122.398 14.635C122.535 14.725 122.603 14.875 122.603 15.085C122.603 15.2583 122.557 15.3883 122.463 15.475C122.373 15.5617 122.217 15.6283 121.993 15.675C122.253 15.6883 122.445 15.7483 122.568 15.855C122.692 15.9617 122.753 16.1183 122.753 16.325C122.753 16.475 122.72 16.6 122.653 16.7C122.587 16.8 122.483 16.875 122.343 16.925C122.203 16.975 122.022 17 121.798 17H120.673V14.5ZM121.633 15.58C121.797 15.58 121.923 15.5483 122.013 15.485C122.107 15.4217 122.153 15.3267 122.153 15.2C122.153 15.0767 122.108 14.9883 122.018 14.935C121.932 14.8783 121.807 14.85 121.643 14.85H121.123V15.58H121.633ZM121.728 16.65C121.922 16.65 122.065 16.6167 122.158 16.55C122.255 16.4833 122.303 16.385 122.303 16.255C122.303 16.1217 122.255 16.0283 122.158 15.975C122.062 15.9183 121.917 15.89 121.723 15.89H121.123V16.65H121.728Z" fill="#1E1E1E"/Indep/>
<path d="M117.046 14.5H117.495V16.65H118.076C118.266 16.65 118.395 16.6067 118.465 16.52C118.539 16.4333 118.576 16.3133 118.576 16.16C118.576 16.01 118.545 15.8917 118.485 15.805C118.429 15.7183 118.319 15.675 118.156 15.675H117.171V15.325H118.131C118.427 15.325 118.65 15.3967 118.8 15.54C118.95 15.6833 119.025 15.8833 119.025 16.14C119.025 16.4033 118.952 16.6133 118.806 16.77C118.662 16.9233 118.451 17 118.171 17H117.046V14.5Z" fill="#1E1E1E"/Indep/>
<path d="M115.109 14.85H114.229V14.5H116.434V14.85H115.559V17H115.109V14.85Z" fill="#1E1E1E"/Indep/>
<path d="M112.31 17.0999C112.08 17.0999 111.882 17.0416 111.715 16.9249C111.548 16.8082 111.42 16.6466 111.33 16.4399C111.24 16.2332 111.195 15.9966 111.195 15.7299C111.195 15.4766 111.237 15.2499 111.32 15.0499C111.403 14.8499 111.523 14.6916 111.68 14.5749C111.84 14.4582 112.035 14.3999 112.265 14.3999C112.588 14.3999 112.835 14.5182 113.005 14.7549C113.178 14.9882 113.265 15.3232 113.265 15.7599C113.265 16.1832 113.183 16.5132 113.02 16.7499C112.857 16.9832 112.62 17.0999 112.31 17.0999ZM112.375 16.7499C112.532 16.7499 112.668 16.7049 112.785 16.6149C112.902 16.5249 112.992 16.4032 113.055 16.2499C113.122 16.0966 113.155 15.9232 113.155 15.7299C113.155 15.5366 113.122 15.3666 113.055 15.2199C112.988 15.0732 112.895 14.9582 112.775 14.8749C112.655 14.7916 112.517 14.7499 112.36 14.7499C112.137 14.7499 111.962 14.8366 111.835 15.0099C111.708 15.1799 111.645 15.4149 111.645 15.7149C111.645 16.0282 111.71 16.2799 111.84 16.4699C111.973 16.6566 112.152 16.7499 112.375 16.7499ZM113.155 16.9999V14.4999H113.605V16.9999H113.155Z" fill="#1E1E1E"/Indep/>
<path d="M108.759 14.5H109.804C110.124 14.5 110.351 14.545 110.484 14.635C110.621 14.725 110.689 14.875 110.689 15.085C110.689 15.2583 110.643 15.3883 110.549 15.475C110.459 15.5617 110.303 15.6283 110.079 15.675C110.339 15.6883 110.531 15.7483 110.654 15.855C110.778 15.9617 110.839 16.1183 110.839 16.325C110.839 16.475 110.806 16.6 110.739 16.7C110.673 16.8 110.569 16.875 110.429 16.925C110.289 16.975 110.108 17 109.884 17H108.759V14.5ZM109.719 15.58C109.883 15.58 110.009 15.5483 110.099 15.485C110.193 15.4217 110.239 15.3267 110.239 15.2C110.239 15.0767 110.194 14.9883 110.104 14.935C110.018 14.8783 109.893 14.85 109.729 14.85H109.209V15.58H109.719ZM109.814 16.65C110.008 16.65 110.151 16.6167 110.244 16.55C110.341 16.4833 110.389 16.385 110.389 16.255C110.389 16.1217 110.341 16.0283 110.244 15.975C110.148 15.9183 110.003 15.89 109.809 15.89H109.209V16.65H109.814Z" fill="#1E1E1E"/Indep/>
<path d="M106.884 17.0999C106.63 17.0999 106.415 17.0466 106.239 16.9399C106.062 16.8332 105.927 16.6782 105.834 16.4749C105.744 16.2682 105.699 16.0182 105.699 15.7249C105.699 15.4482 105.744 15.2116 105.834 15.0149C105.927 14.8149 106.062 14.6632 106.239 14.5599C106.419 14.4532 106.635 14.3999 106.889 14.3999C107.299 14.3999 107.607 14.5166 107.814 14.7499C108.024 14.9832 108.129 15.3082 108.129 15.7249C108.129 16.1649 108.024 16.5049 107.814 16.7449C107.604 16.9816 107.294 17.0999 106.884 17.0999ZM106.894 16.7499C107.16 16.7499 107.357 16.6666 107.484 16.4999C107.614 16.3332 107.679 16.0782 107.679 15.7349C107.679 15.4082 107.614 15.1632 107.484 14.9999C107.357 14.8332 107.164 14.7499 106.904 14.7499C106.647 14.7499 106.457 14.8299 106.334 14.9899C106.21 15.1466 106.149 15.3916 106.149 15.7249C106.149 16.0649 106.21 16.3216 106.334 16.4949C106.457 16.6649 106.644 16.7499 106.894 16.7499Z" fill="#1E1E1E"/Indep/>
<path d="M103.188 14.5H104.233C104.553 14.5 104.78 14.545 104.913 14.635C105.05 14.725 105.118 14.875 105.118 15.085C105.118 15.2583 105.071 15.3883 104.978 15.475C104.888 15.5617 104.731 15.6283 104.508 15.675C104.768 15.6883 104.96 15.7483 105.083 15.855C105.206 15.9617 105.268 16.1183 105.268 16.325C105.268 16.475 105.235 16.6 105.168 16.7C105.101 16.8 104.998 16.875 104.858 16.925C104.718 16.975 104.536 17 104.313 17H103.188V14.5ZM104.148 15.58C104.311 15.58 104.438 15.5483 104.528 15.485C104.621 15.4217 104.668 15.3267 104.668 15.2C104.668 15.0767 104.623 14.9883 104.533 14.935C104.446 14.8783 104.321 14.85 104.158 14.85H103.638V15.58H104.148ZM104.243 16.65C104.436 16.65 104.58 16.6167 104.673 16.55C104.77 16.4833 104.818 16.385 104.818 16.255C104.818 16.1217 104.77 16.0283 104.673 15.975C104.576 15.9183 104.431 15.89 104.238 15.89H103.638V16.65H104.243Z" fill="#1E1E1E"/Indep/>
<path d="M101.251 14.85H100.371V14.5H102.576V14.85H101.701V17H101.251V14.85Z" fill="#1E1E1E"/Indep/>
<path d="M100.022 16.6499C99.9184 16.7832 99.7784 16.8916 99.6017 16.9749C99.4284 17.0582 99.2267 17.0999 98.9967 17.0999C98.6367 17.0999 98.3584 16.9816 98.1617 16.7449C97.9651 16.5049 97.8667 16.1649 97.8667 15.7249C97.8667 15.3082 97.9634 14.9832 98.1567 14.7499C98.3534 14.5166 98.6317 14.3999 98.9917 14.3999C99.2151 14.3999 99.4117 14.4416 99.5817 14.5249C99.7517 14.6082 99.8884 14.7166 99.9917 14.8499L99.7267 15.1149C99.6367 14.9982 99.5284 14.9082 99.4017 14.8449C99.2784 14.7816 99.1467 14.7499 99.0067 14.7499C98.7734 14.7499 98.6001 14.8299 98.4867 14.9899C98.3734 15.1466 98.3167 15.3916 98.3167 15.7249C98.3167 16.0649 98.3734 16.3216 98.4867 16.4949C98.6001 16.6649 98.7701 16.7499 98.9967 16.7499C99.1434 16.7499 99.2834 16.7182 99.4167 16.6549C99.5534 16.5916 99.6667 16.5016 99.7567 16.3849L100.022 16.6499Z" fill="#1E1E1E"/Indep/>
<path d="M95.9282 17.0999C95.6982 17.0999 95.4999 17.0416 95.3332 16.9249C95.1665 16.8082 95.0382 16.6466 94.9482 16.4399C94.8582 16.2332 94.8132 15.9966 94.8132 15.7299C94.8132 15.4766 94.8549 15.2499 94.9382 15.0499C95.0215 14.8499 95.1415 14.6916 95.2982 14.5749C95.4582 14.4582 95.6532 14.3999 95.8832 14.3999C96.2065 14.3999 96.4532 14.5182 96.6232 14.7549C96.7965 14.9882 96.8832 15.3232 96.8832 15.7599C96.8832 16.1832 96.8015 16.5132 96.6382 16.7499C96.4749 16.9832 96.2382 17.0999 95.9282 17.0999ZM95.9932 16.7499C96.1499 16.7499 96.2865 16.7049 96.4032 16.6149C96.5199 16.5249 96.6099 16.4032 96.6732 16.2499C96.7399 16.0966 96.7732 15.9232 96.7732 15.7299C96.7732 15.5366 96.7399 15.3666 96.6732 15.2199C96.6065 15.0732 96.5132 14.9582 96.3932 14.8749C96.2732 14.7916 96.1349 14.7499 95.9782 14.7499C95.7549 14.7499 95.5799 14.8366 95.4532 15.0099C95.3265 15.1799 95.2632 15.4149 95.2632 15.7149C95.2632 16.0282 95.3282 16.2799 95.4582 16.4699C95.5915 16.6566 95.7699 16.7499 95.9932 16.7499ZM96.7732 16.9999V14.4999H97.2232V16.9999H96.7732Z" fill="#1E1E1E"/Indep/>
<path d="M93.8072 15.715C93.7306 15.8683 93.6172 15.9833 93.4672 16.06C93.3206 16.1367 93.1589 16.175 92.9822 16.175C92.7256 16.175 92.5239 16.1067 92.3772 15.97C92.2339 15.83 92.1622 15.6067 92.1622 15.3V14.5H92.6122V15.3C92.6122 15.4833 92.6522 15.6167 92.7322 15.7C92.8122 15.7833 92.9322 15.825 93.0922 15.825C93.2156 15.825 93.3306 15.8 93.4372 15.75C93.5472 15.6967 93.6356 15.6217 93.7022 15.525C93.7722 15.425 93.8072 15.3083 93.8072 15.175V14.5H94.2572V17H93.8072V15.715Z" fill="#1E1E1E"/Indep/>
<path d="M89.4904 17.68C89.5537 17.7033 89.6204 17.7217 89.6904 17.735C89.7637 17.7483 89.8221 17.755 89.8654 17.755C89.9387 17.755 90.0004 17.7367 90.0504 17.7C90.1037 17.6633 90.1487 17.61 90.1854 17.54C90.2254 17.4733 90.2621 17.39 90.2954 17.29L91.2054 14.5H91.6804L90.6854 17.39C90.6321 17.5433 90.5737 17.6733 90.5104 17.78C90.4471 17.8867 90.3704 17.9667 90.2804 18.02C90.1904 18.0767 90.0771 18.105 89.9404 18.105C89.8471 18.105 89.7721 18.1 89.7154 18.09C89.6587 18.08 89.6054 18.0667 89.5554 18.05C89.5087 18.0333 89.4504 18.0133 89.3804 17.99L89.4904 17.68ZM89.2504 14.5H89.7254L90.5354 17H90.1104L89.2504 14.5Z" fill="#1E1E1E"/Indep/>
<path d="M84.7359 14.5H85.1859V16.65H85.7459C85.9359 16.65 86.0659 16.6067 86.1359 16.52C86.2093 16.4333 86.2459 16.3133 86.2459 16.16C86.2459 16.01 86.2159 15.8917 86.1559 15.805C86.0993 15.7183 85.9893 15.675 85.8259 15.675H84.8609V15.325H85.8009C86.0976 15.325 86.3209 15.3967 86.4709 15.54C86.6209 15.6833 86.6959 15.8833 86.6959 16.14C86.6959 16.4033 86.6226 16.6133 86.4759 16.77C86.3326 16.9233 86.1209 17 85.8409 17H84.7359V14.5ZM87.2509 14.5H87.7009V17H87.2509V14.5Z" fill="#1E1E1E"/Indep/>
<path d="M82.9008 17.0999C82.4874 17.0999 82.1791 16.9616 81.9758 16.6849C81.7758 16.4082 81.6758 15.9632 81.6758 15.3499C81.6758 14.9866 81.7141 14.6866 81.7908 14.4499C81.8708 14.2132 82.0041 14.0299 82.1908 13.8999C82.3774 13.7699 82.6324 13.6832 82.9558 13.6399C83.0891 13.6232 83.2408 13.5899 83.4108 13.5399C83.5841 13.4866 83.7358 13.4016 83.8658 13.2849V13.6949C83.7891 13.7616 83.6741 13.8232 83.5208 13.8799C83.3674 13.9332 83.1924 13.9699 82.9958 13.9899C82.7391 14.0166 82.5358 14.0782 82.3858 14.1749C82.2391 14.2682 82.1341 14.4049 82.0708 14.5849C82.0074 14.7649 81.9758 14.9982 81.9758 15.2849C82.0524 15.0882 82.1841 14.9266 82.3708 14.7999C82.5608 14.6699 82.7858 14.6049 83.0458 14.6049C83.3624 14.6049 83.6141 14.7099 83.8008 14.9199C83.9908 15.1266 84.0858 15.4316 84.0858 15.8349C84.0858 16.2382 83.9841 16.5499 83.7808 16.7699C83.5808 16.9899 83.2874 17.0999 82.9008 17.0999ZM82.8958 16.7499C83.1391 16.7499 83.3224 16.6649 83.4458 16.4949C83.5724 16.3249 83.6358 16.0982 83.6358 15.8149C83.6358 15.5349 83.5741 15.3216 83.4508 15.1749C83.3308 15.0282 83.1491 14.9549 82.9058 14.9549C82.6591 14.9549 82.4691 15.0282 82.3358 15.1749C82.2024 15.3216 82.1358 15.5382 82.1358 15.8249C82.1358 16.1049 82.2008 16.3299 82.3308 16.4999C82.4641 16.6666 82.6524 16.7499 82.8958 16.7499Z" fill="#1E1E1E"/Indep/>
<path d="M78.1978 14.5H78.6478V16.65H79.2278C79.4178 16.65 79.5478 16.6067 79.6178 16.52C79.6912 16.4333 79.7278 16.3133 79.7278 16.16C79.7278 16.01 79.6978 15.8917 79.6378 15.805C79.5812 15.7183 79.4712 15.675 79.3078 15.675H78.3228V15.325H79.2828C79.5795 15.325 79.8028 15.3967 79.9528 15.54C80.1028 15.6833 80.1778 15.8833 80.1778 16.14C80.1778 16.4033 80.1045 16.6133 79.9578 16.77C79.8145 16.9233 79.6028 17 79.3228 17H78.1978V14.5Z" fill="#1E1E1E"/Indep/>
<path d="M77.6584 16.6499C77.5551 16.7832 77.4151 16.8916 77.2384 16.9749C77.0651 17.0582 76.8634 17.0999 76.6334 17.0999C76.2734 17.0999 75.9951 16.9816 75.7984 16.7449C75.6018 16.5049 75.5034 16.1649 75.5034 15.7249C75.5034 15.3082 75.6001 14.9832 75.7934 14.7499C75.9901 14.5166 76.2684 14.3999 76.6284 14.3999C76.8518 14.3999 77.0484 14.4416 77.2184 14.5249C77.3884 14.6082 77.5251 14.7166 77.6284 14.8499L77.3634 15.1149C77.2734 14.9982 77.1651 14.9082 77.0384 14.8449C76.9151 14.7816 76.7834 14.7499 76.6434 14.7499C76.4101 14.7499 76.2368 14.8299 76.1234 14.9899C76.0101 15.1466 75.9534 15.3916 75.9534 15.7249C75.9534 16.0649 76.0101 16.3216 76.1234 16.4949C76.2368 16.6649 76.4068 16.7499 76.6334 16.7499C76.7801 16.7499 76.9201 16.7182 77.0534 16.6549C77.1901 16.5916 77.3034 16.5016 77.3934 16.3849L77.6584 16.6499Z" fill="#1E1E1E"/Indep/>
<path d="M73.7978 17.0999C73.5445 17.0999 73.3295 17.0466 73.1528 16.9399C72.9761 16.8332 72.8411 16.6782 72.7478 16.4749C72.6578 16.2682 72.6128 16.0182 72.6128 15.7249C72.6128 15.4482 72.6578 15.2116 72.7478 15.0149C72.8411 14.8149 72.9761 14.6632 73.1528 14.5599C73.3328 14.4532 73.5495 14.3999 73.8028 14.3999C74.2128 14.3999 74.5211 14.5166 74.7278 14.7499C74.9378 14.9832 75.0428 15.3082 75.0428 15.7249C75.0428 16.1649 74.9378 16.5049 74.7278 16.7449C74.5178 16.9816 74.2078 17.0999 73.7978 17.0999ZM73.8078 16.7499C74.0745 16.7499 74.2711 16.6666 74.3978 16.4999C74.5278 16.3332 74.5928 16.0782 74.5928 15.7349C74.5928 15.4082 74.5278 15.1632 74.3978 14.9999C74.2711 14.8332 74.0778 14.7499 73.8178 14.7499C73.5611 14.7499 73.3711 14.8299 73.2478 14.9899C73.1245 15.1466 73.0628 15.3916 73.0628 15.7249C73.0628 16.0649 73.1245 16.3216 73.2478 16.4949C73.3711 16.6649 73.5578 16.7499 73.8078 16.7499Z" fill="#1E1E1E"/Indep/>
<path d="M69.6186 16.735C69.6453 16.7383 69.6686 16.7417 69.6886 16.745C69.7086 16.7483 69.7286 16.75 69.7486 16.75C69.8486 16.75 69.9203 16.6783 69.9636 16.535C70.0103 16.3883 70.0386 16.1517 70.0486 15.825C70.0586 15.495 70.0636 15.0533 70.0636 14.5H71.9686V17H71.5186V14.9H70.5136C70.5136 15.35 70.5036 15.7183 70.4836 16.005C70.4636 16.2917 70.4269 16.515 70.3736 16.675C70.3203 16.8317 70.2419 16.9417 70.1386 17.005C70.0386 17.0683 69.9053 17.1 69.7386 17.1C69.7153 17.1 69.6853 17.0967 69.6486 17.09C69.6119 17.0867 69.5753 17.0833 69.5386 17.08L69.6186 16.735Z" fill="#1E1E1E"/Indep/>
<path d="M68.0896 17.0999C67.8562 17.0999 67.6512 17.0499 67.4746 16.9499C67.3012 16.8466 67.1646 16.6949 67.0646 16.4949C66.9679 16.2916 66.9196 16.0416 66.9196 15.7449C66.9196 15.3049 67.0212 14.9716 67.2246 14.7449C67.4279 14.5149 67.7096 14.3999 68.0696 14.3999C68.3162 14.3999 68.5262 14.4549 68.6996 14.5649C68.8729 14.6716 69.0012 14.8299 69.0846 15.0399C69.1712 15.2499 69.2046 15.5082 69.1846 15.8149H67.3696C67.3696 16.0849 67.4279 16.3082 67.5446 16.4849C67.6646 16.6616 67.8479 16.7499 68.0946 16.7499C68.2379 16.7499 68.3696 16.7182 68.4896 16.6549C68.6096 16.5916 68.7129 16.5016 68.7996 16.3849L69.0646 16.6499C68.9646 16.7832 68.8312 16.8916 68.6646 16.9749C68.5012 17.0582 68.3096 17.0999 68.0896 17.0999ZM67.3896 15.5199H68.7196C68.6962 15.2632 68.6279 15.0716 68.5146 14.9449C68.4012 14.8149 68.2529 14.7499 68.0696 14.7499C67.8862 14.7499 67.7329 14.8149 67.6096 14.9449C67.4862 15.0716 67.4129 15.2632 67.3896 15.5199Z" fill="#1E1E1E"/Indep/>
<path d="M65.1476 14.85H64.2676V14.5H66.4726V14.85H65.5976V17H65.1476V14.85Z" fill="#1E1E1E"/Indep/>
<path d="M62.582 17.0999C62.3287 17.0999 62.1137 17.0466 61.937 16.9399C61.7603 16.8332 61.6253 16.6782 61.532 16.4749C61.442 16.2682 61.397 16.0182 61.397 15.7249C61.397 15.4482 61.442 15.2116 61.532 15.0149C61.6253 14.8149 61.7603 14.6632 61.937 14.5599C62.117 14.4532 62.3337 14.3999 62.587 14.3999C62.997 14.3999 63.3053 14.5166 63.512 14.7499C63.722 14.9832 63.827 15.3082 63.827 15.7249C63.827 16.1649 63.722 16.5049 63.512 16.7449C63.302 16.9816 62.992 17.0999 62.582 17.0999ZM62.592 16.7499C62.8587 16.7499 63.0553 16.6666 63.182 16.4999C63.312 16.3332 63.377 16.0782 63.377 15.7349C63.377 15.4082 63.312 15.1632 63.182 14.9999C63.0553 14.8332 62.862 14.7499 62.602 14.7499C62.3453 14.7499 62.1553 14.8299 62.032 14.9899C61.9087 15.1466 61.847 15.3916 61.847 15.7249C61.847 16.0649 61.9087 16.3216 62.032 16.4949C62.1553 16.6649 62.342 16.7499 62.592 16.7499Z" fill="#1E1E1E"/Indep/>
<path d="M59.1648 15.23L58.1248 13.5H58.6548L59.5498 15.05L60.4448 13.5H60.9698L59.9298 15.23L60.9948 17H60.4698L59.5448 15.395L58.6198 17H58.0998L59.1648 15.23Z" fill="#1E1E1E"/Indep/>
<path d="M55.0761 15.275C55.4861 15.0917 55.7761 14.9134 55.9461 14.74C56.1161 14.5634 56.2011 14.3717 56.2011 14.165C56.2011 13.955 56.1328 13.8034 55.9961 13.71C55.8628 13.6134 55.6928 13.565 55.4861 13.565C55.3028 13.565 55.1344 13.6084 54.9811 13.695C54.8278 13.7784 54.6778 13.8984 54.5311 14.055L54.2461 13.77C54.3961 13.58 54.5811 13.4317 54.8011 13.325C55.0211 13.2184 55.2611 13.165 55.5211 13.165C55.7478 13.165 55.9444 13.205 56.1111 13.285C56.2811 13.365 56.4128 13.475 56.5061 13.615C56.6028 13.7517 56.6511 13.9117 56.6511 14.095C56.6511 14.255 56.6161 14.4034 56.5461 14.54C56.4761 14.6734 56.3844 14.7934 56.2711 14.9C56.1578 15.0067 56.0344 15.0967 55.9011 15.17C55.7711 15.2434 55.6461 15.3 55.5261 15.34V15.75H55.0761V15.275ZM55.3311 17.1C55.2544 17.1 55.1911 17.075 55.1411 17.025C55.0944 16.975 55.0711 16.9134 55.0711 16.84C55.0711 16.77 55.0944 16.7117 55.1411 16.665C55.1911 16.615 55.2544 16.59 55.3311 16.59C55.4044 16.59 55.4661 16.615 55.5161 16.665C55.5694 16.7117 55.5961 16.77 55.5961 16.84C55.5961 16.9134 55.5694 16.975 55.5161 17.025C55.4661 17.075 55.4044 17.1 55.3311 17.1Z" fill="#1E1E1E"/Indep/>
<path d="M52.1059 15.97C51.9626 15.8867 51.8509 15.7833 51.7709 15.66C51.6909 15.5367 51.6509 15.3933 51.6509 15.23C51.6509 14.9967 51.7326 14.8167 51.8959 14.69C52.0592 14.5633 52.3026 14.5 52.6259 14.5H53.7209V17H53.2709V16.09H52.5159L52.1059 17H51.6059L52.1059 15.97ZM53.2709 14.85H52.7059C52.4959 14.85 52.3426 14.8833 52.2459 14.95C52.1492 15.0167 52.1009 15.1267 52.1009 15.28C52.1009 15.4333 52.1492 15.5483 52.2459 15.625C52.3459 15.7017 52.4992 15.74 52.7059 15.74H53.2709V14.85Z" fill="#1E1E1E"/Indep/>
<path d="M48.6567 16.735C48.6833 16.7383 48.7067 16.7417 48.7267 16.745C48.7467 16.7483 48.7667 16.75 48.7867 16.75C48.8867 16.75 48.9583 16.6783 49.0017 16.535C49.0483 16.3883 49.0767 16.1517 49.0867 15.825C49.0967 15.495 49.1017 15.0533 49.1017 14.5H51.0067V17H50.5567V14.9H49.5517C49.5517 15.35 49.5417 15.7183 49.5217 16.005C49.5017 16.2917 49.465 16.515 49.4117 16.675C49.3583 16.8317 49.28 16.9417 49.1767 17.005C49.0767 17.0683 48.9433 17.1 48.7767 17.1C48.7533 17.1 48.7233 17.0967 48.6867 17.09C48.65 17.0867 48.6133 17.0833 48.5767 17.08L48.6567 16.735Z" fill="#1E1E1E"/Indep/>
<path d="M45.8248 14.5H46.2748V16.365L47.6298 14.5H48.0698V17H47.6198V15.13L46.2598 17H45.8248V14.5Z" fill="#1E1E1E"/Indep/>
<path d="M43.9896 17.0999C43.5763 17.0999 43.268 16.9616 43.0646 16.6849C42.8646 16.4082 42.7646 15.9632 42.7646 15.3499C42.7646 14.9866 42.803 14.6866 42.8796 14.4499C42.9596 14.2132 43.093 14.0299 43.2796 13.8999C43.4663 13.7699 43.7213 13.6832 44.0446 13.6399C44.178 13.6232 44.3296 13.5899 44.4996 13.5399C44.673 13.4866 44.8246 13.4016 44.9546 13.2849V13.6949C44.878 13.7616 44.763 13.8232 44.6096 13.8799C44.4563 13.9332 44.2813 13.9699 44.0846 13.9899C43.828 14.0166 43.6246 14.0782 43.4746 14.1749C43.328 14.2682 43.223 14.4049 43.1596 14.5849C43.0963 14.7649 43.0646 14.9982 43.0646 15.2849C43.1413 15.0882 43.273 14.9266 43.4596 14.7999C43.6496 14.6699 43.8746 14.6049 44.1346 14.6049C44.4513 14.6049 44.703 14.7099 44.8896 14.9199C45.0796 15.1266 45.1746 15.4316 45.1746 15.8349C45.1746 16.2382 45.073 16.5499 44.8696 16.7699C44.6696 16.9899 44.3763 17.0999 43.9896 17.0999ZM43.9846 16.7499C44.228 16.7499 44.4113 16.6649 44.5346 16.4949C44.6613 16.3249 44.7246 16.0982 44.7246 15.8149C44.7246 15.5349 44.663 15.3216 44.5396 15.1749C44.4196 15.0282 44.238 14.9549 43.9946 14.9549C43.748 14.9549 43.558 15.0282 43.4246 15.1749C43.2913 15.3216 43.2246 15.5382 43.2246 15.8249C43.2246 16.1049 43.2896 16.3299 43.4196 16.4999C43.553 16.6666 43.7413 16.7499 43.9846 16.7499Z" fill="#1E1E1E"/Indep/>
<path d="M41.039 17.0999C40.7857 17.0999 40.5707 17.0466 40.394 16.9399C40.2174 16.8332 40.0824 16.6782 39.989 16.4749C39.899 16.2682 39.854 16.0182 39.854 15.7249C39.854 15.4482 39.899 15.2116 39.989 15.0149C40.0824 14.8149 40.2174 14.6632 40.394 14.5599C40.574 14.4532 40.7907 14.3999 41.044 14.3999C41.454 14.3999 41.7624 14.5166 41.969 14.7499C42.179 14.9832 42.284 15.3082 42.284 15.7249C42.284 16.1649 42.179 16.5049 41.969 16.7449C41.759 16.9816 41.449 17.0999 41.039 17.0999ZM41.049 16.7499C41.3157 16.7499 41.5124 16.6666 41.639 16.4999C41.769 16.3332 41.834 16.0782 41.834 15.7349C41.834 15.4082 41.769 15.1632 41.639 14.9999C41.5124 14.8332 41.319 14.7499 41.059 14.7499C40.8024 14.7499 40.6124 14.8299 40.489 14.9899C40.3657 15.1466 40.304 15.3916 40.304 15.7249C40.304 16.0649 40.3657 16.3216 40.489 16.4949C40.6124 16.6649 40.799 16.7499 41.049 16.7499Z" fill="#1E1E1E"/Indep/>
<path d="M36.5768 14.5H36.9818L37.8968 16.08L38.8118 14.5H39.2218V17H38.7968V15.21L38.0768 16.45H37.7218L37.0018 15.21V17H36.5768V14.5Z" fill="#1E1E1E"/Indep/>
<path d="M34.7011 17.0999C34.4478 17.0999 34.2328 17.0466 34.0561 16.9399C33.8795 16.8332 33.7445 16.6782 33.6511 16.4749C33.5611 16.2682 33.5161 16.0182 33.5161 15.7249C33.5161 15.4482 33.5611 15.2116 33.6511 15.0149C33.7445 14.8149 33.8795 14.6632 34.0561 14.5599C34.2361 14.4532 34.4528 14.3999 34.7061 14.3999C35.1161 14.3999 35.4245 14.5166 35.6311 14.7499C35.8411 14.9832 35.9461 15.3082 35.9461 15.7249C35.9461 16.1649 35.8411 16.5049 35.6311 16.7449C35.4211 16.9816 35.1111 17.0999 34.7011 17.0999ZM34.7111 16.7499C34.9778 16.7499 35.1745 16.6666 35.3011 16.4999C35.4311 16.3332 35.4961 16.0782 35.4961 15.7349C35.4961 15.4082 35.4311 15.1632 35.3011 14.9999C35.1745 14.8332 34.9811 14.7499 34.7211 14.7499C34.4645 14.7499 34.2745 14.8299 34.1511 14.9899C34.0278 15.1466 33.9661 15.3916 33.9661 15.7249C33.9661 16.0649 34.0278 16.3216 34.1511 16.4949C34.2745 16.6649 34.4611 16.7499 34.7111 16.7499Z" fill="#1E1E1E"/Indep/>
<path d="M31.7492 14.85H30.8692V14.5H33.0742V14.85H32.1992V17H31.7492V14.85Z" fill="#1E1E1E"/Indep/>
<path d="M28.3785 14.5H29.4235C29.7435 14.5 29.9702 14.545 30.1035 14.635C30.2402 14.725 30.3085 14.875 30.3085 15.085C30.3085 15.2583 30.2618 15.3883 30.1685 15.475C30.0785 15.5617 29.9218 15.6283 29.6985 15.675C29.9585 15.6883 30.1502 15.7483 30.2735 15.855C30.3968 15.9617 30.4585 16.1183 30.4585 16.325C30.4585 16.475 30.4252 16.6 30.3585 16.7C30.2918 16.8 30.1885 16.875 30.0485 16.925C29.9085 16.975 29.7268 17 29.5035 17H28.3785V14.5ZM29.3385 15.58C29.5018 15.58 29.6285 15.5483 29.7185 15.485C29.8118 15.4217 29.8585 15.3267 29.8585 15.2C29.8585 15.0767 29.8135 14.9883 29.7235 14.935C29.6368 14.8783 29.5118 14.85 29.3485 14.85H28.8285V15.58H29.3385ZM29.4335 16.65C29.6268 16.65 29.7702 16.6167 29.8635 16.55C29.9602 16.4833 30.0085 16.385 30.0085 16.255C30.0085 16.1217 29.9602 16.0283 29.8635 15.975C29.7668 15.9183 29.6218 15.89 29.4285 15.89H28.8285V16.65H29.4335Z" fill="#1E1E1E"/Indep/>
<path d="M26.27 17.0999C26.04 17.0999 25.8417 17.0416 25.675 16.9249C25.5083 16.8082 25.38 16.6466 25.29 16.4399C25.2 16.2332 25.155 15.9966 25.155 15.7299C25.155 15.4766 25.1967 15.2499 25.28 15.0499C25.3633 14.8499 25.4833 14.6916 25.64 14.5749C25.8 14.4582 25.995 14.3999 26.225 14.3999C26.5483 14.3999 26.795 14.5182 26.965 14.7549C27.1383 14.9882 27.225 15.3232 27.225 15.7599C27.225 16.1832 27.1433 16.5132 26.98 16.7499C26.8167 16.9832 26.58 17.0999 26.27 17.0999ZM26.335 16.7499C26.4917 16.7499 26.6283 16.7049 26.745 16.6149C26.8617 16.5249 26.9517 16.4032 27.015 16.2499C27.0817 16.0966 27.115 15.9232 27.115 15.7299C27.115 15.5366 27.0817 15.3666 27.015 15.2199C26.9483 15.0732 26.855 14.9582 26.735 14.8749C26.615 14.7916 26.4767 14.7499 26.32 14.7499C26.0967 14.7499 25.9217 14.8366 25.795 15.0099C25.6683 15.1799 25.605 15.4149 25.605 15.7149C25.605 16.0282 25.67 16.2799 25.8 16.4699C25.9333 16.6566 26.1117 16.7499 26.335 16.7499ZM27.115 16.9999V14.4999H27.565V16.9999H27.115Z" fill="#1E1E1E"/Indep/>
<path d="M133.217 11.0999C132.983 11.0999 132.778 11.0499 132.602 10.9499C132.428 10.8466 132.292 10.6949 132.192 10.4949C132.095 10.2916 132.047 10.0416 132.047 9.7449C132.047 9.3049 132.148 8.97157 132.352 8.7449C132.555 8.5149 132.837 8.3999 133.197 8.3999C133.443 8.3999 133.653 8.4549 133.827 8.5649C134 8.67157 134.128 8.8299 134.212 9.0399C134.298 9.2499 134.332 9.50824 134.312 9.8149H132.497C132.497 10.0849 132.555 10.3082 132.672 10.4849C132.792 10.6616 132.975 10.7499 133.222 10.7499C133.365 10.7499 133.497 10.7182 133.617 10.6549C133.737 10.5916 133.84 10.5016 133.927 10.3849L134.192 10.6499C134.092 10.7832 133.958 10.8916 133.792 10.9749C133.628 11.0582 133.437 11.0999 133.217 11.0999ZM132.517 9.5199H133.847C133.823 9.26324 133.755 9.07157 133.642 8.9449C133.528 8.8149 133.38 8.7499 133.197 8.7499C133.013 8.7499 132.86 8.8149 132.737 8.9449C132.613 9.07157 132.54 9.26324 132.517 9.5199Z" fill="#1E1E1E"/Indep/>
<path d="M129.213 8.4999H129.663V11.9999H129.213V8.4999ZM130.483 11.0999C130.283 11.0999 130.113 11.0366 129.973 10.9099C129.836 10.7832 129.731 10.6149 129.658 10.4049C129.588 10.1949 129.553 9.96824 129.553 9.7249C129.553 9.47824 129.59 9.2549 129.663 9.0549C129.74 8.8549 129.85 8.69657 129.993 8.5799C130.136 8.4599 130.31 8.3999 130.513 8.3999C130.756 8.3999 130.96 8.45657 131.123 8.5699C131.286 8.68324 131.41 8.8399 131.493 9.0399C131.58 9.23657 131.623 9.4649 131.623 9.7249C131.623 9.9849 131.576 10.2182 131.483 10.4249C131.393 10.6316 131.263 10.7966 131.093 10.9199C130.923 11.0399 130.72 11.0999 130.483 11.0999ZM130.438 10.7499C130.665 10.7499 130.843 10.6566 130.973 10.4699C131.106 10.2832 131.173 10.0332 131.173 9.7199C131.173 9.41324 131.108 9.1749 130.978 9.0049C130.851 8.8349 130.673 8.7499 130.443 8.7499C130.293 8.7499 130.158 8.79157 130.038 8.8749C129.921 8.95824 129.83 9.07324 129.763 9.2199C129.696 9.36324 129.663 9.52824 129.663 9.7149C129.663 9.90824 129.695 10.0832 129.758 10.2399C129.825 10.3966 129.916 10.5216 130.033 10.6149C130.15 10.7049 130.285 10.7499 130.438 10.7499Z" fill="#1E1E1E"/Indep/>
<path d="M127.291 8.85H126.411V8.5H128.616V8.85H127.741V11H127.291V8.85Z" fill="#1E1E1E"/Indep/>
<path d="M124.726 11.0999C124.472 11.0999 124.257 11.0466 124.081 10.9399C123.904 10.8332 123.769 10.6782 123.676 10.4749C123.586 10.2682 123.541 10.0182 123.541 9.7249C123.541 9.44824 123.586 9.21157 123.676 9.0149C123.769 8.8149 123.904 8.66324 124.081 8.5599C124.261 8.45324 124.477 8.3999 124.731 8.3999C125.141 8.3999 125.449 8.51657 125.656 8.7499C125.866 8.98324 125.971 9.30824 125.971 9.7249C125.971 10.1649 125.866 10.5049 125.656 10.7449C125.446 10.9816 125.136 11.0999 124.726 11.0999ZM124.736 10.7499C125.002 10.7499 125.199 10.6666 125.326 10.4999C125.456 10.3332 125.521 10.0782 125.521 9.7349C125.521 9.40824 125.456 9.16324 125.326 8.9999C125.199 8.83324 125.006 8.7499 124.746 8.7499C124.489 8.7499 124.299 8.8299 124.176 8.9899C124.052 9.14657 123.991 9.39157 123.991 9.7249C123.991 10.0649 124.052 10.3216 124.176 10.4949C124.299 10.6649 124.486 10.7499 124.736 10.7499Z" fill="#1E1E1E"/Indep/>
<path d="M120.263 8.5H120.668L121.583 10.08L122.498 8.5H122.908V11H122.483V9.21L121.763 10.45H121.408L120.688 9.21V11H120.263V8.5Z" fill="#1E1E1E"/Indep/>
<path d="M119.724 10.6499C119.621 10.7832 119.481 10.8916 119.304 10.9749C119.131 11.0582 118.929 11.0999 118.699 11.0999C118.339 11.0999 118.061 10.9816 117.864 10.7449C117.667 10.5049 117.569 10.1649 117.569 9.7249C117.569 9.30824 117.666 8.98324 117.859 8.7499C118.056 8.51657 118.334 8.3999 118.694 8.3999C118.917 8.3999 119.114 8.44157 119.284 8.5249C119.454 8.60824 119.591 8.71657 119.694 8.8499L119.429 9.1149C119.339 8.99824 119.231 8.90824 119.104 8.8449C118.981 8.78157 118.849 8.7499 118.709 8.7499C118.476 8.7499 118.302 8.8299 118.189 8.9899C118.076 9.14657 118.019 9.39157 118.019 9.7249C118.019 10.0649 118.076 10.3216 118.189 10.4949C118.302 10.6649 118.472 10.7499 118.699 10.7499C118.846 10.7499 118.986 10.7182 119.119 10.6549C119.256 10.5916 119.369 10.5016 119.459 10.3849L119.724 10.6499Z" fill="#1E1E1E"/Indep/>
<path d="M115.863 11.0999C115.61 11.0999 115.395 11.0466 115.218 10.9399C115.042 10.8332 114.907 10.6782 114.813 10.4749C114.723 10.2682 114.678 10.0182 114.678 9.7249C114.678 9.44824 114.723 9.21157 114.813 9.0149C114.907 8.8149 115.042 8.66324 115.218 8.5599C115.398 8.45324 115.615 8.3999 115.868 8.3999C116.278 8.3999 116.587 8.51657 116.793 8.7499C117.003 8.98324 117.108 9.30824 117.108 9.7249C117.108 10.1649 117.003 10.5049 116.793 10.7449C116.583 10.9816 116.273 11.0999 115.863 11.0999ZM115.873 10.7499C116.14 10.7499 116.337 10.6666 116.463 10.4999C116.593 10.3332 116.658 10.0782 116.658 9.7349C116.658 9.40824 116.593 9.16324 116.463 8.9999C116.337 8.83324 116.143 8.7499 115.883 8.7499C115.627 8.7499 115.437 8.8299 115.313 8.9899C115.19 9.14657 115.128 9.39157 115.128 9.7249C115.128 10.0649 115.19 10.3216 115.313 10.4949C115.437 10.6649 115.623 10.7499 115.873 10.7499Z" fill="#1E1E1E"/Indep/>
<path d="M110.752 8.5H111.202V10.365L112.557 8.5H112.997V11H112.547V9.13L111.187 11H110.752V8.5Z" fill="#1E1E1E"/Indep/>
<path d="M107.753 8.4999H108.203V11.9999H107.753V8.4999ZM109.023 11.0999C108.823 11.0999 108.653 11.0366 108.513 10.9099C108.377 10.7832 108.272 10.6149 108.198 10.4049C108.128 10.1949 108.093 9.96824 108.093 9.7249C108.093 9.47824 108.13 9.2549 108.203 9.0549C108.28 8.8549 108.39 8.69657 108.533 8.5799C108.677 8.4599 108.85 8.3999 109.053 8.3999C109.297 8.3999 109.5 8.45657 109.663 8.5699C109.827 8.68324 109.95 8.8399 110.033 9.0399C110.12 9.23657 110.163 9.4649 110.163 9.7249C110.163 9.9849 110.117 10.2182 110.023 10.4249C109.933 10.6316 109.803 10.7966 109.633 10.9199C109.463 11.0399 109.26 11.0999 109.023 11.0999ZM108.978 10.7499C109.205 10.7499 109.383 10.6566 109.513 10.4699C109.647 10.2832 109.713 10.0332 109.713 9.7199C109.713 9.41324 109.648 9.1749 109.518 9.0049C109.392 8.8349 109.213 8.7499 108.983 8.7499C108.833 8.7499 108.698 8.79157 108.578 8.8749C108.462 8.95824 108.37 9.07324 108.303 9.2199C108.237 9.36324 108.203 9.52824 108.203 9.7149C108.203 9.90824 108.235 10.0832 108.298 10.2399C108.365 10.3966 108.457 10.5216 108.573 10.6149C108.69 10.7049 108.825 10.7499 108.978 10.7499Z" fill="#1E1E1E"/Indep/>
<path d="M104.727 8.5H106.917V11H106.467V8.9H105.177V11H104.727V8.5Z" fill="#1E1E1E"/Indep/>
<path d="M101.049 8.5H101.499V10.65H102.079C102.269 10.65 102.399 10.6067 102.469 10.52C102.543 10.4333 102.579 10.3133 102.579 10.16C102.579 10.01 102.549 9.89167 102.489 9.805C102.433 9.71833 102.323 9.675 102.159 9.675H101.174V9.325H102.134C102.431 9.325 102.654 9.39667 102.804 9.54C102.954 9.68333 103.029 9.88333 103.029 10.14C103.029 10.4033 102.956 10.6133 102.809 10.77C102.666 10.9233 102.454 11 102.174 11H101.049V8.5Z" fill="#1E1E1E"/Indep/>
<path d="M99.1124 8.85H98.2325V8.5H100.437V8.85H99.5625V11H99.1124V8.85Z" fill="#1E1E1E"/Indep/>
<path d="M96.3139 11.0999C96.0839 11.0999 95.8856 11.0416 95.7189 10.9249C95.5523 10.8082 95.4239 10.6466 95.3339 10.4399C95.2439 10.2332 95.1989 9.99657 95.1989 9.7299C95.1989 9.47657 95.2406 9.2499 95.3239 9.0499C95.4073 8.8499 95.5273 8.69157 95.6839 8.5749C95.8439 8.45824 96.0389 8.3999 96.2689 8.3999C96.5923 8.3999 96.8389 8.51824 97.0089 8.7549C97.1823 8.98824 97.2689 9.32324 97.2689 9.7599C97.2689 10.1832 97.1873 10.5132 97.0239 10.7499C96.8606 10.9832 96.6239 11.0999 96.3139 11.0999ZM96.3789 10.7499C96.5356 10.7499 96.6723 10.7049 96.7889 10.6149C96.9056 10.5249 96.9956 10.4032 97.0589 10.2499C97.1256 10.0966 97.1589 9.92324 97.1589 9.7299C97.1589 9.53657 97.1256 9.36657 97.0589 9.2199C96.9923 9.07324 96.8989 8.95824 96.7789 8.8749C96.6589 8.79157 96.5206 8.7499 96.3639 8.7499C96.1406 8.7499 95.9656 8.83657 95.8389 9.0099C95.7123 9.1799 95.6489 9.4149 95.6489 9.7149C95.6489 10.0282 95.7139 10.2799 95.8439 10.4699C95.9773 10.6566 96.1556 10.7499 96.3789 10.7499ZM97.1589 10.9999V8.4999H97.6089V10.9999H97.1589Z" fill="#1E1E1E"/Indep/>
<path d="M92.7633 8.5H93.8083C94.1283 8.5 94.3549 8.545 94.4883 8.635C94.6249 8.725 94.6933 8.875 94.6933 9.085C94.6933 9.25833 94.6466 9.38833 94.5533 9.475C94.4633 9.56167 94.3066 9.62833 94.0833 9.675C94.3433 9.68833 94.5349 9.74833 94.6583 9.855C94.7816 9.96167 94.8433 10.1183 94.8433 10.325C94.8433 10.475 94.8099 10.6 94.7433 10.7C94.6766 10.8 94.5733 10.875 94.4333 10.925C94.2933 10.975 94.1116 11 93.8883 11H92.7633V8.5ZM93.7233 9.58C93.8866 9.58 94.0133 9.54833 94.1033 9.485C94.1966 9.42167 94.2433 9.32667 94.2433 9.2C94.2433 9.07667 94.1983 8.98833 94.1083 8.935C94.0216 8.87833 93.8966 8.85 93.7333 8.85H93.2133V9.58H93.7233ZM93.8183 10.65C94.0116 10.65 94.1549 10.6167 94.2483 10.55C94.3449 10.4833 94.3933 10.385 94.3933 10.255C94.3933 10.1217 94.3449 10.0283 94.2483 9.975C94.1516 9.91833 94.0066 9.89 93.8133 9.89H93.2133V10.65H93.8183Z" fill="#1E1E1E"/Indep/>
<path d="M90.8877 11.0999C90.6343 11.0999 90.4193 11.0466 90.2427 10.9399C90.066 10.8332 89.931 10.6782 89.8377 10.4749C89.7477 10.2682 89.7027 10.0182 89.7027 9.7249C89.7027 9.44824 89.7477 9.21157 89.8377 9.0149C89.931 8.8149 90.066 8.66324 90.2427 8.5599C90.4227 8.45324 90.6393 8.3999 90.8927 8.3999C91.3027 8.3999 91.611 8.51657 91.8177 8.7499C92.0277 8.98324 92.1327 9.30824 92.1327 9.7249C92.1327 10.1649 92.0277 10.5049 91.8177 10.7449C91.6077 10.9816 91.2977 11.0999 90.8877 11.0999ZM90.8977 10.7499C91.1643 10.7499 91.361 10.6666 91.4877 10.4999C91.6177 10.3332 91.6827 10.0782 91.6827 9.7349C91.6827 9.40824 91.6177 9.16324 91.4877 8.9999C91.361 8.83324 91.1677 8.7499 90.9077 8.7499C90.651 8.7499 90.461 8.8299 90.3377 8.9899C90.2143 9.14657 90.1527 9.39157 90.1527 9.7249C90.1527 10.0649 90.2143 10.3216 90.3377 10.4949C90.461 10.6649 90.6477 10.7499 90.8977 10.7499Z" fill="#1E1E1E"/Indep/>
<path d="M87.192 8.5H88.237C88.557 8.5 88.7837 8.545 88.917 8.635C89.0537 8.725 89.122 8.875 89.122 9.085C89.122 9.25833 89.0753 9.38833 88.982 9.475C88.892 9.56167 88.7353 9.62833 88.512 9.675C88.772 9.68833 88.9636 9.74833 89.087 9.855C89.2103 9.96167 89.272 10.1183 89.272 10.325C89.272 10.475 89.2386 10.6 89.172 10.7C89.1053 10.8 89.002 10.875 88.862 10.925C88.722 10.975 88.5403 11 88.317 11H87.192V8.5ZM88.152 9.58C88.3153 9.58 88.442 9.54833 88.532 9.485C88.6253 9.42167 88.672 9.32667 88.672 9.2C88.672 9.07667 88.627 8.98833 88.537 8.935C88.4503 8.87833 88.3253 8.85 88.162 8.85H87.642V9.58H88.152ZM88.247 10.65C88.4403 10.65 88.5836 10.6167 88.677 10.55C88.7736 10.4833 88.822 10.385 88.822 10.255C88.822 10.1217 88.7736 10.0283 88.677 9.975C88.5803 9.91833 88.4353 9.89 88.242 9.89H87.642V10.65H88.247Z" fill="#1E1E1E"/Indep/>
<path d="M85.255 8.85H84.375V8.5H86.58V8.85H85.705V11H85.255V8.85Z" fill="#1E1E1E"/Indep/>
<path d="M84.0256 10.6499C83.9223 10.7832 83.7823 10.8916 83.6056 10.9749C83.4323 11.0582 83.2306 11.0999 83.0006 11.0999C82.6406 11.0999 82.3623 10.9816 82.1656 10.7449C81.969 10.5049 81.8706 10.1649 81.8706 9.7249C81.8706 9.30824 81.9673 8.98324 82.1606 8.7499C82.3573 8.51657 82.6356 8.3999 82.9956 8.3999C83.219 8.3999 83.4156 8.44157 83.5856 8.5249C83.7556 8.60824 83.8923 8.71657 83.9956 8.8499L83.7306 9.1149C83.6406 8.99824 83.5323 8.90824 83.4056 8.8449C83.2823 8.78157 83.1506 8.7499 83.0106 8.7499C82.7773 8.7499 82.604 8.8299 82.4906 8.9899C82.3773 9.14657 82.3206 9.39157 82.3206 9.7249C82.3206 10.0649 82.3773 10.3216 82.4906 10.4949C82.604 10.6649 82.774 10.7499 83.0006 10.7499C83.1473 10.7499 83.2873 10.7182 83.4206 10.6549C83.5573 10.5916 83.6706 10.5016 83.7606 10.3849L84.0256 10.6499Z" fill="#1E1E1E"/Indep/>
<path d="M80.1037 8.85H79.2237V8.5H81.4287V8.85H80.5537V11H80.1037V8.85Z" fill="#1E1E1E"/Indep/>
<path d="M76.7218 11.68C76.7852 11.7033 76.8518 11.7217 76.9218 11.735C76.9952 11.7483 77.0535 11.755 77.0968 11.755C77.1702 11.755 77.2318 11.7367 77.2818 11.7C77.3352 11.6633 77.3802 11.61 77.4168 11.54C77.4568 11.4733 77.4935 11.39 77.5268 11.29L78.4368 8.5H78.9118L77.9168 11.39C77.8635 11.5433 77.8052 11.6733 77.7418 11.78C77.6785 11.8867 77.6018 11.9667 77.5118 12.02C77.4218 12.0767 77.3085 12.105 77.1718 12.105C77.0785 12.105 77.0035 12.1 76.9468 12.09C76.8902 12.08 76.8368 12.0667 76.7868 12.05C76.7402 12.0333 76.6818 12.0133 76.6118 11.99L76.7218 11.68ZM76.4818 8.5H76.9568L77.7668 11H77.3418L76.4818 8.5Z" fill="#1E1E1E"/Indep/>
<path d="M76.2424 10.6499C76.1391 10.7832 75.9991 10.8916 75.8224 10.9749C75.6491 11.0582 75.4474 11.0999 75.2174 11.0999C74.8574 11.0999 74.5791 10.9816 74.3824 10.7449C74.1858 10.5049 74.0874 10.1649 74.0874 9.7249C74.0874 9.30824 74.1841 8.98324 74.3774 8.7499C74.5741 8.51657 74.8524 8.3999 75.2124 8.3999C75.4358 8.3999 75.6324 8.44157 75.8024 8.5249C75.9724 8.60824 76.1091 8.71657 76.2124 8.8499L75.9474 9.1149C75.8574 8.99824 75.7491 8.90824 75.6224 8.8449C75.4991 8.78157 75.3674 8.7499 75.2274 8.7499C74.9941 8.7499 74.8207 8.8299 74.7074 8.9899C74.5941 9.14657 74.5374 9.39157 74.5374 9.7249C74.5374 10.0649 74.5941 10.3216 74.7074 10.4949C74.8207 10.6649 74.9908 10.7499 75.2174 10.7499C75.3641 10.7499 75.5041 10.7182 75.6374 10.6549C75.7741 10.5916 75.8874 10.5016 75.9774 10.3849L76.2424 10.6499Z" fill="#1E1E1E"/Indep/>
<path d="M71.2105 8.5H71.6605V10.365L73.0155 8.5H73.4555V11H73.0055V9.13L71.6455 11H71.2105V8.5Z" fill="#1E1E1E"/Indep/>
<path d="M68.2121 8.4999H68.6621V11.9999H68.2121V8.4999ZM69.4821 11.0999C69.2821 11.0999 69.1121 11.0366 68.9721 10.9099C68.8355 10.7832 68.7305 10.6149 68.6571 10.4049C68.5871 10.1949 68.5521 9.96824 68.5521 9.7249C68.5521 9.47824 68.5888 9.2549 68.6621 9.0549C68.7388 8.8549 68.8488 8.69657 68.9921 8.5799C69.1355 8.4599 69.3088 8.3999 69.5121 8.3999C69.7555 8.3999 69.9588 8.45657 70.1221 8.5699C70.2855 8.68324 70.4088 8.8399 70.4921 9.0399C70.5788 9.23657 70.6221 9.4649 70.6221 9.7249C70.6221 9.9849 70.5755 10.2182 70.4821 10.4249C70.3921 10.6316 70.2621 10.7966 70.0921 10.9199C69.9221 11.0399 69.7188 11.0999 69.4821 11.0999ZM69.4371 10.7499C69.6638 10.7499 69.8421 10.6566 69.9721 10.4699C70.1055 10.2832 70.1721 10.0332 70.1721 9.7199C70.1721 9.41324 70.1071 9.1749 69.9771 9.0049C69.8505 8.8349 69.6721 8.7499 69.4421 8.7499C69.2921 8.7499 69.1571 8.79157 69.0371 8.8749C68.9205 8.95824 68.8288 9.07324 68.7621 9.2199C68.6955 9.36324 68.6621 9.52824 68.6621 9.7149C68.6621 9.90824 68.6938 10.0832 68.7571 10.2399C68.8238 10.3966 68.9155 10.5216 69.0321 10.6149C69.1488 10.7049 69.2838 10.7499 69.4371 10.7499Z" fill="#1E1E1E"/Indep/>
<path d="M65.1863 8.5H67.3763V11H66.9263V8.9H65.6363V11H65.1863V8.5Z" fill="#1E1E1E"/Indep/>
<path d="M62.2109 11.0999C61.9576 11.0999 61.7426 11.0466 61.5659 10.9399C61.3892 10.8332 61.2542 10.6782 61.1609 10.4749C61.0709 10.2682 61.0259 10.0182 61.0259 9.7249C61.0259 9.44824 61.0709 9.21157 61.1609 9.0149C61.2542 8.8149 61.3892 8.66324 61.5659 8.5599C61.7459 8.45324 61.9626 8.3999 62.2159 8.3999C62.6259 8.3999 62.9342 8.51657 63.1409 8.7499C63.3509 8.98324 63.4559 9.30824 63.4559 9.7249C63.4559 10.1649 63.3509 10.5049 63.1409 10.7449C62.9309 10.9816 62.6209 11.0999 62.2109 11.0999ZM62.2209 10.7499C62.4876 10.7499 62.6842 10.6666 62.8109 10.4999C62.9409 10.3332 63.0059 10.0782 63.0059 9.7349C63.0059 9.40824 62.9409 9.16324 62.8109 8.9999C62.6842 8.83324 62.4909 8.7499 62.2309 8.7499C61.9742 8.7499 61.7842 8.8299 61.6609 8.9899C61.5376 9.14657 61.4759 9.39157 61.4759 9.7249C61.4759 10.0649 61.5376 10.3216 61.6609 10.4949C61.7842 10.6649 61.9709 10.7499 62.2209 10.7499Z" fill="#1E1E1E"/Indep/>
<path d="M58.232 8.5H58.682V9.525H59.947V8.5H60.397V11H59.947V9.925H58.682V11H58.232V8.5Z" fill="#1E1E1E"/Indep/>
<path d="M56.9811 9.715C56.9044 9.86833 56.7911 9.98333 56.6411 10.06C56.4944 10.1367 56.3327 10.175 56.1561 10.175C55.8994 10.175 55.6977 10.1067 55.5511 9.97C55.4077 9.83 55.3361 9.60667 55.3361 9.3V8.5H55.7861V9.3C55.7861 9.48333 55.8261 9.61667 55.9061 9.7C55.9861 9.78333 56.1061 9.825 56.2661 9.825C56.3894 9.825 56.5044 9.8 56.6111 9.75C56.7211 9.69667 56.8094 9.62167 56.8761 9.525C56.9461 9.425 56.9811 9.30833 56.9811 9.175V8.5H57.4311V11H56.9811V9.715Z" fill="#1E1E1E"/Indep/>
<path d="M52.3092 8.5H52.7592V10.365L54.1142 8.5H54.5542V11H54.1042V9.13L52.7442 11H52.3092V8.5Z" fill="#1E1E1E"/Indep/>
<path d="M49.145 10.735C49.1716 10.7383 49.195 10.7417 49.215 10.745C49.235 10.7483 49.255 10.75 49.275 10.75C49.375 10.75 49.4466 10.6783 49.49 10.535C49.5366 10.3883 49.565 10.1517 49.575 9.825C49.585 9.495 49.59 9.05333 49.59 8.5H51.495V11H51.045V8.9H50.04C50.04 9.35 50.03 9.71833 50.01 10.005C49.99 10.2917 49.9533 10.515 49.9 10.675C49.8466 10.8317 49.7683 10.9417 49.665 11.005C49.565 11.0683 49.4316 11.1 49.265 11.1C49.2416 11.1 49.2116 11.0967 49.175 11.09C49.1383 11.0867 49.1016 11.0833 49.065 11.08L49.145 10.735Z" fill="#1E1E1E"/Indep/>
<path d="M45.895 9.97C45.7516 9.88667 45.64 9.78333 45.56 9.66C45.48 9.53667 45.44 9.39333 45.44 9.23C45.44 8.99667 45.5216 8.81667 45.685 8.69C45.8483 8.56333 46.0916 8.5 46.415 8.5H47.51V11H47.06V10.09H46.305L45.895 11H45.395L45.895 9.97ZM47.06 8.85H46.495C46.285 8.85 46.1316 8.88333 46.035 8.95C45.9383 9.01667 45.89 9.12667 45.89 9.28C45.89 9.43333 45.9383 9.54833 46.035 9.625C46.135 9.70167 46.2883 9.74 46.495 9.74H47.06V8.85Z" fill="#1E1E1E"/Indep/>
<path d="M41.5133 8.5H41.9633V10.365L43.3183 8.5H43.7583V11H43.3083V9.13L41.9483 11H41.5133V8.5Z" fill="#1E1E1E"/Indep/>
<path d="M38.3491 10.735C38.3757 10.7383 38.3991 10.7417 38.4191 10.745C38.4391 10.7483 38.4591 10.75 38.4791 10.75C38.5791 10.75 38.6507 10.6783 38.6941 10.535C38.7407 10.3883 38.7691 10.1517 38.7791 9.825C38.7891 9.495 38.7941 9.05333 38.7941 8.5H40.6991V11H40.2491V8.9H39.2441C39.2441 9.35 39.2341 9.71833 39.2141 10.005C39.1941 10.2917 39.1574 10.515 39.1041 10.675C39.0507 10.8317 38.9724 10.9417 38.8691 11.005C38.7691 11.0683 38.6357 11.1 38.4691 11.1C38.4457 11.1 38.4157 11.0967 38.3791 11.09C38.3424 11.0867 38.3057 11.0833 38.2691 11.08L38.3491 10.735Z" fill="#1E1E1E"/Indep/>
<path d="M34.8224 11.68C34.8858 11.7033 34.9524 11.7217 35.0224 11.735C35.0958 11.7483 35.1541 11.755 35.1974 11.755C35.2708 11.755 35.3324 11.7367 35.3824 11.7C35.4358 11.6633 35.4808 11.61 35.5174 11.54C35.5574 11.4733 35.5941 11.39 35.6274 11.29L36.5374 8.5H37.0124L36.0174 11.39C35.9641 11.5433 35.9058 11.6733 35.8424 11.78C35.7791 11.8867 35.7024 11.9667 35.6124 12.02C35.5224 12.0767 35.4091 12.105 35.2724 12.105C35.1791 12.105 35.1041 12.1 35.0474 12.09C34.9908 12.08 34.9374 12.0667 34.8874 12.05C34.8408 12.0333 34.7824 12.0133 34.7124 11.99L34.8224 11.68ZM34.5824 8.5H35.0574L35.8674 11H35.4424L34.5824 8.5Z" fill="#1E1E1E"/Indep/>
<path d="M32.7491 8.5H34.2491V8.85H33.1991V11H32.7491V8.5Z" fill="#1E1E1E"/Indep/>
<path d="M30.8535 11.0999C30.6001 11.0999 30.3851 11.0466 30.2085 10.9399C30.0318 10.8332 29.8968 10.6782 29.8035 10.4749C29.7135 10.2682 29.6685 10.0182 29.6685 9.7249C29.6685 9.44824 29.7135 9.21157 29.8035 9.0149C29.8968 8.8149 30.0318 8.66324 30.2085 8.5599C30.3885 8.45324 30.6051 8.3999 30.8585 8.3999C31.2685 8.3999 31.5768 8.51657 31.7835 8.7499C31.9935 8.98324 32.0985 9.30824 32.0985 9.7249C32.0985 10.1649 31.9935 10.5049 31.7835 10.7449C31.5735 10.9816 31.2635 11.0999 30.8535 11.0999ZM30.8635 10.7499C31.1301 10.7499 31.3268 10.6666 31.4535 10.4999C31.5835 10.3332 31.6485 10.0782 31.6485 9.7349C31.6485 9.40824 31.5835 9.16324 31.4535 8.9999C31.3268 8.83324 31.1335 8.7499 30.8735 8.7499C30.6168 8.7499 30.4268 8.8299 30.3035 8.9899C30.1801 9.14657 30.1185 9.39157 30.1185 9.7249C30.1185 10.0649 30.1801 10.3216 30.3035 10.4949C30.4268 10.6649 30.6135 10.7499 30.8635 10.7499Z" fill="#1E1E1E"/Indep/>
<path d="M25.435 7.5H25.885L27.22 10.115L28.555 7.5H29.005V11H28.555V8.375L27.33 10.75H27.11L25.885 8.375V11H25.435V7.5Z" fill="#1E1E1E"/Indep/>
<path d="M35.6162 48.96C35.7495 48.9167 35.8779 48.8233 36.0012 48.68C36.1245 48.5367 36.2345 48.3567 36.3312 48.14C36.4279 47.9233 36.5045 47.68 36.5612 47.41C36.6179 47.1367 36.6462 46.85 36.6462 46.55C36.6462 46.25 36.6179 45.97 36.5612 45.71C36.5045 45.4467 36.4279 45.2117 36.3312 45.005C36.2345 44.7983 36.1245 44.6283 36.0012 44.495C35.8779 44.3617 35.7495 44.2733 35.6162 44.23V44.115C35.9295 44.175 36.1962 44.3117 36.4162 44.525C36.6362 44.7383 36.8045 45.0167 36.9212 45.36C37.0379 45.7 37.0962 46.095 37.0962 46.545C37.0962 47.0017 37.0362 47.4083 36.9162 47.765C36.7962 48.1217 36.6262 48.4133 36.4062 48.64C36.1862 48.8667 35.9229 49.0117 35.6162 49.075V48.96Z" fill="#1E1E1E"/Indep/>
<path d="M34.0156 48.0999C33.7622 48.0999 33.5472 48.0466 33.3706 47.9399C33.1939 47.8332 33.0589 47.6782 32.9656 47.4749C32.8756 47.2682 32.8306 47.0182 32.8306 46.7249C32.8306 46.4482 32.8756 46.2116 32.9656 46.0149C33.0589 45.8149 33.1939 45.6632 33.3706 45.5599C33.5506 45.4532 33.7672 45.3999 34.0206 45.3999C34.4306 45.3999 34.7389 45.5166 34.9456 45.7499C35.1556 45.9832 35.2606 46.3082 35.2606 46.7249C35.2606 47.1649 35.1556 47.5049 34.9456 47.7449C34.7356 47.9816 34.4256 48.0999 34.0156 48.0999ZM34.0256 47.7499C34.2922 47.7499 34.4889 47.6666 34.6156 47.4999C34.7456 47.3332 34.8106 47.0782 34.8106 46.7349C34.8106 46.4082 34.7456 46.1632 34.6156 45.9999C34.4889 45.8332 34.2956 45.7499 34.0356 45.7499C33.7789 45.7499 33.5889 45.8299 33.4656 45.9899C33.3422 46.1466 33.2806 46.3916 33.2806 46.7249C33.2806 47.0649 33.3422 47.3216 33.4656 47.4949C33.5889 47.6649 33.7756 47.7499 34.0256 47.7499Z" fill="#1E1E1E"/Indep/>
<path d="M30.0367 45.5H30.4867V46.525H31.7517V45.5H32.2017V48H31.7517V46.925H30.4867V48H30.0367V45.5Z" fill="#1E1E1E"/Indep/>
<path d="M28.7857 46.715C28.7091 46.8683 28.5957 46.9833 28.4457 47.06C28.2991 47.1367 28.1374 47.175 27.9607 47.175C27.7041 47.175 27.5024 47.1067 27.3557 46.97C27.2124 46.83 27.1407 46.6067 27.1407 46.3V45.5H27.5907V46.3C27.5907 46.4833 27.6307 46.6167 27.7107 46.7C27.7907 46.7833 27.9107 46.825 28.0707 46.825C28.1941 46.825 28.3091 46.8 28.4157 46.75C28.5257 46.6967 28.6141 46.6217 28.6807 46.525C28.7507 46.425 28.7857 46.3083 28.7857 46.175V45.5H29.2357V48H28.7857V46.715Z" fill="#1E1E1E"/Indep/>
<path d="M25.4167 48.0999C25.1834 48.0999 24.9784 48.0499 24.8017 47.9499C24.6284 47.8466 24.4917 47.6949 24.3917 47.4949C24.2951 47.2916 24.2467 47.0416 24.2467 46.7449C24.2467 46.3049 24.3484 45.9716 24.5517 45.7449C24.7551 45.5149 25.0367 45.3999 25.3967 45.3999C25.6434 45.3999 25.8534 45.4549 26.0267 45.5649C26.2001 45.6716 26.3284 45.8299 26.4117 46.0399C26.4984 46.2499 26.5317 46.5082 26.5117 46.8149H24.6967C24.6967 47.0849 24.7551 47.3082 24.8717 47.4849C24.9917 47.6616 25.1751 47.7499 25.4217 47.7499C25.5651 47.7499 25.6967 47.7182 25.8167 47.6549C25.9367 47.5916 26.0401 47.5016 26.1267 47.3849L26.3917 47.6499C26.2917 47.7832 26.1584 47.8916 25.9917 47.9749C25.8284 48.0582 25.6367 48.0999 25.4167 48.0999ZM24.7167 46.5199H26.0467C26.0234 46.2632 25.9551 46.0716 25.8417 45.9449C25.7284 45.8149 25.5801 45.7499 25.3967 45.7499C25.2134 45.7499 25.0601 45.8149 24.9367 45.9449C24.8134 46.0716 24.7401 46.2632 24.7167 46.5199Z" fill="#1E1E1E"/Indep/>
<path d="M21.4478 45.5H21.8978V46.525H23.1628V45.5H23.6128V48H23.1628V46.925H21.8978V48H21.4478V45.5Z" fill="#1E1E1E"/Indep/>
<path d="M19.5722 48.0999C19.3189 48.0999 19.1039 48.0466 18.9272 47.9399C18.7506 47.8332 18.6156 47.6782 18.5222 47.4749C18.4322 47.2682 18.3872 47.0182 18.3872 46.7249C18.3872 46.4482 18.4322 46.2116 18.5222 46.0149C18.6156 45.8149 18.7506 45.6632 18.9272 45.5599C19.1072 45.4532 19.3239 45.3999 19.5772 45.3999C19.9872 45.3999 20.2956 45.5166 20.5022 45.7499C20.7122 45.9832 20.8172 46.3082 20.8172 46.7249C20.8172 47.1649 20.7122 47.5049 20.5022 47.7449C20.2922 47.9816 19.9822 48.0999 19.5722 48.0999ZM19.5822 47.7499C19.8489 47.7499 20.0456 47.6666 20.1722 47.4999C20.3022 47.3332 20.3672 47.0782 20.3672 46.7349C20.3672 46.4082 20.3022 46.1632 20.1722 45.9999C20.0456 45.8332 19.8522 45.7499 19.5922 45.7499C19.3356 45.7499 19.1456 45.8299 19.0222 45.9899C18.8989 46.1466 18.8372 46.3916 18.8372 46.7249C18.8372 47.0649 18.8989 47.3216 19.0222 47.4949C19.1456 47.6649 19.3322 47.7499 19.5822 47.7499Z" fill="#1E1E1E"/Indep/>
<path d="M15.8226 45.5H16.2726V48H15.8226V45.5ZM15.8576 46.505H17.1476L17.6126 45.5H18.0876L17.4576 46.685L18.1576 48H17.6476L17.1276 46.83H15.8926L15.8576 46.505Z" fill="#1E1E1E"/Indep/>
<path d="M14.494 48.65C14.5874 48.5767 14.6724 48.4817 14.749 48.365C14.8257 48.2517 14.8757 48.15 14.899 48.06C14.8424 48.0967 14.7824 48.1084 14.719 48.095C14.6557 48.0817 14.6024 48.05 14.559 48C14.5157 47.95 14.494 47.8884 14.494 47.815C14.494 47.735 14.5207 47.6684 14.574 47.615C14.6307 47.5584 14.7007 47.53 14.784 47.53C14.8607 47.53 14.9257 47.5584 14.979 47.615C15.0357 47.6684 15.064 47.7534 15.064 47.87C15.064 47.97 15.0407 48.0734 14.994 48.18C14.9507 48.2867 14.889 48.3884 14.809 48.485C14.729 48.5817 14.6357 48.6634 14.529 48.73L14.494 48.65Z" fill="#1E1E1E"/Indep/>
<path d="M12.4155 48.0999C12.1855 48.0999 11.9872 48.0416 11.8205 47.9249C11.6538 47.8082 11.5255 47.6466 11.4355 47.4399C11.3455 47.2332 11.3005 46.9966 11.3005 46.7299C11.3005 46.4766 11.3422 46.2499 11.4255 46.0499C11.5088 45.8499 11.6288 45.6916 11.7855 45.5749C11.9455 45.4582 12.1405 45.3999 12.3705 45.3999C12.6938 45.3999 12.9405 45.5182 13.1105 45.7549C13.2838 45.9882 13.3705 46.3232 13.3705 46.7599C13.3705 47.1832 13.2888 47.5132 13.1255 47.7499C12.9622 47.9832 12.7255 48.0999 12.4155 48.0999ZM12.4805 47.7499C12.6372 47.7499 12.7738 47.7049 12.8905 47.6149C13.0072 47.5249 13.0972 47.4032 13.1605 47.2499C13.2272 47.0966 13.2605 46.9232 13.2605 46.7299C13.2605 46.5366 13.2272 46.3666 13.1605 46.2199C13.0938 46.0732 13.0005 45.9582 12.8805 45.8749C12.7605 45.7916 12.6222 45.7499 12.4655 45.7499C12.2422 45.7499 12.0672 45.8366 11.9405 46.0099C11.8138 46.1799 11.7505 46.4149 11.7505 46.7149C11.7505 47.0282 11.8155 47.2799 11.9455 47.4699C12.0788 47.6566 12.2572 47.7499 12.4805 47.7499ZM13.2605 47.9999V45.4999H13.7105V47.9999H13.2605Z" fill="#1E1E1E"/Indep/>
<path d="M7.2 48.7C7.2 48.4133 7.215 48.1933 7.245 48.04C7.27833 47.8867 7.32833 47.78 7.395 47.72C7.465 47.6567 7.55166 47.6183 7.655 47.605C7.71833 47.535 7.77 47.465 7.81 47.395C7.85333 47.325 7.88666 47.2383 7.91 47.135C7.93666 47.0317 7.95666 46.8967 7.97 46.73C7.98666 46.5633 7.99666 46.3467 8 46.08C8.00333 45.9 8.005 45.6933 8.005 45.46C8.00833 45.2233 8.01 44.955 8.01 44.655V44.5H10.285V47.605C10.4117 47.605 10.5167 47.615 10.6 47.635C10.6833 47.655 10.75 47.7017 10.8 47.775C10.8533 47.845 10.89 47.9533 10.91 48.1C10.9333 48.2467 10.945 48.4467 10.945 48.7H10.545C10.545 48.5367 10.5433 48.4033 10.54 48.3C10.5367 48.1967 10.5133 48.12 10.47 48.07C10.43 48.0233 10.35 48 10.23 48H7.88C7.78333 48 7.715 48.025 7.675 48.075C7.635 48.1283 7.61166 48.2067 7.605 48.31C7.60166 48.4133 7.6 48.5433 7.6 48.7H7.2ZM9.835 47.6V44.9H8.46C8.46 45.1567 8.45833 45.3883 8.455 45.595C8.455 45.7983 8.45333 45.98 8.45 46.14C8.44666 46.39 8.43833 46.595 8.425 46.755C8.415 46.9117 8.39666 47.0417 8.37 47.145C8.34333 47.245 8.30666 47.33 8.26 47.4C8.21333 47.4667 8.155 47.5333 8.085 47.6H9.835Z" fill="#1E1E1E"/Indep/>
</svg>
