<svg width="144" height="65" viewBox="0 0 144 65" fill="none" xmlns="http://www.w3.org/2000/svg">
<rect width="144" height="65" rx="4" fill="white"/Indep/>
<rect x="7" y="21" width="128.267" height="20" rx="10" fill="#DB4431"/Indep/>
<path d="M121.506 33.2482C121.133 33.2482 120.805 33.1682 120.522 33.0082C120.245 32.8429 120.026 32.6002 119.866 32.2802C119.711 31.9549 119.634 31.5549 119.634 31.0802C119.634 30.3762 119.797 29.8429 120.122 29.4802C120.447 29.1122 120.898 28.9282 121.474 28.9282C121.869 28.9282 122.205 29.0162 122.482 29.1922C122.759 29.3629 122.965 29.6162 123.098 29.9522C123.237 30.2882 123.29 30.7016 123.258 31.1922H120.354C120.354 31.6242 120.447 31.9816 120.634 32.2642C120.826 32.5469 121.119 32.6882 121.514 32.6882C121.743 32.6882 121.954 32.6376 122.146 32.5362C122.338 32.4349 122.503 32.2909 122.642 32.1042L123.066 32.5282C122.906 32.7416 122.693 32.9149 122.426 33.0482C122.165 33.1816 121.858 33.2482 121.506 33.2482ZM120.386 30.7202H122.514C122.477 30.3096 122.367 30.0029 122.186 29.8002C122.005 29.5922 121.767 29.4882 121.474 29.4882C121.181 29.4882 120.935 29.5922 120.738 29.8002C120.541 30.0029 120.423 30.3096 120.386 30.7202Z" fill="white"/Indep/>
<path d="M114.943 29.0881H115.663V32.0721L117.831 29.0881H118.535V33.0881H117.815V30.0961L115.639 33.0881H114.943V29.0881Z" fill="white"/Indep/>
<path d="M110.121 29.0881H110.841V30.7281H112.865V29.0881H113.585V33.0881H112.865V31.3681H110.841V33.0881H110.121V29.0881Z" fill="white"/Indep/>
<path d="M107.25 33.2482C106.877 33.2482 106.549 33.1682 106.266 33.0082C105.989 32.8429 105.77 32.6002 105.61 32.2802C105.456 31.9549 105.378 31.5549 105.378 31.0802C105.378 30.3762 105.541 29.8429 105.866 29.4802C106.192 29.1122 106.642 28.9282 107.218 28.9282C107.613 28.9282 107.949 29.0162 108.226 29.1922C108.504 29.3629 108.709 29.6162 108.842 29.9522C108.981 30.2882 109.034 30.7016 109.002 31.1922H106.098C106.098 31.6242 106.192 31.9816 106.378 32.2642C106.57 32.5469 106.864 32.6882 107.258 32.6882C107.488 32.6882 107.698 32.6376 107.89 32.5362C108.082 32.4349 108.248 32.2909 108.386 32.1042L108.81 32.5282C108.65 32.7416 108.437 32.9149 108.17 33.0482C107.909 33.1816 107.602 33.2482 107.25 33.2482ZM106.13 30.7202H108.258C108.221 30.3096 108.112 30.0029 107.93 29.8002C107.749 29.5922 107.512 29.4882 107.218 29.4882C106.925 29.4882 106.68 29.5922 106.482 29.8002C106.285 30.0029 106.168 30.3096 106.13 30.7202Z" fill="white"/Indep/>
<path d="M100.499 32.6641C100.542 32.6695 100.579 32.6748 100.611 32.6801C100.643 32.6855 100.675 32.6881 100.707 32.6881C100.867 32.6881 100.982 32.5735 101.051 32.3441C101.126 32.1095 101.171 31.7308 101.187 31.2081C101.203 30.6801 101.211 29.9735 101.211 29.0881H104.259V33.0881H103.539V29.7281H101.931C101.931 30.4481 101.915 31.0375 101.883 31.4961C101.851 31.9548 101.793 32.3121 101.707 32.5681C101.622 32.8188 101.497 32.9948 101.331 33.0961C101.171 33.1975 100.958 33.2481 100.691 33.2481C100.654 33.2481 100.606 33.2428 100.547 33.2321C100.489 33.2268 100.43 33.2215 100.371 33.2161L100.499 32.6641Z" fill="white"/Indep/>
<path d="M96.4744 29.0881H98.1464C98.6584 29.0881 99.0211 29.1601 99.2344 29.3041C99.4531 29.4481 99.5624 29.6881 99.5624 30.0241C99.5624 30.3015 99.4878 30.5095 99.3384 30.6481C99.1944 30.7868 98.9438 30.8935 98.5864 30.9681C99.0024 30.9895 99.3091 31.0855 99.5064 31.2561C99.7038 31.4268 99.8024 31.6775 99.8024 32.0081C99.8024 32.2481 99.7491 32.4481 99.6424 32.6081C99.5358 32.7681 99.3704 32.8881 99.1464 32.9681C98.9224 33.0481 98.6318 33.0881 98.2744 33.0881H96.4744V29.0881ZM98.0104 30.8161C98.2718 30.8161 98.4744 30.7655 98.6184 30.6641C98.7678 30.5628 98.8424 30.4108 98.8424 30.2081C98.8424 30.0108 98.7704 29.8695 98.6264 29.7841C98.4878 29.6935 98.2878 29.6481 98.0264 29.6481H97.1944V30.8161H98.0104ZM98.1624 32.5281C98.4718 32.5281 98.7011 32.4748 98.8504 32.3681C99.0051 32.2615 99.0824 32.1041 99.0824 31.8961C99.0824 31.6828 99.0051 31.5335 98.8504 31.4481C98.6958 31.3575 98.4638 31.3121 98.1544 31.3121H97.1944V32.5281H98.1624Z" fill="white"/Indep/>
<path d="M92.5301 31.4401C92.3008 31.3068 92.1221 31.1415 91.9941 30.9441C91.8661 30.7468 91.8021 30.5175 91.8021 30.2561C91.8021 29.8828 91.9328 29.5948 92.1941 29.3921C92.4554 29.1895 92.8448 29.0881 93.3621 29.0881H95.1141V33.0881H94.3941V31.6321H93.1861L92.5301 33.0881H91.7301L92.5301 31.4401ZM94.3941 29.6481H93.4901C93.1541 29.6481 92.9088 29.7015 92.7541 29.8081C92.5994 29.9148 92.5221 30.0908 92.5221 30.3361C92.5221 30.5815 92.5994 30.7655 92.7541 30.8881C92.9141 31.0108 93.1594 31.0721 93.4901 31.0721H94.3941V29.6481Z" fill="white"/Indep/>
<path d="M86.8015 29.0881H88.3295V29.1121L88.0655 29.6481H86.8015V29.0881ZM87.8655 29.0881H88.5855V32.5281H89.4735C89.7668 32.5281 89.9802 32.4588 90.1135 32.3201C90.2468 32.1815 90.3135 31.9895 90.3135 31.7441C90.3135 31.5041 90.2548 31.3148 90.1375 31.1761C90.0255 31.0375 89.8415 30.9681 89.5855 30.9681H88.0655V30.4081H89.5615C90.0202 30.4081 90.3802 30.5228 90.6415 30.7521C90.9028 30.9815 91.0335 31.3015 91.0335 31.7121C91.0335 32.1335 90.9082 32.4695 90.6575 32.7201C90.4068 32.9655 90.0628 33.0881 89.6255 33.0881H87.8655V29.0881Z" fill="white"/Indep/>
<path d="M84.3372 33.248C83.6759 33.248 83.1826 33.0267 82.8572 32.584C82.5372 32.1414 82.3772 31.4294 82.3772 30.448C82.3772 29.8667 82.4386 29.3867 82.5612 29.008C82.6892 28.6294 82.9026 28.336 83.2012 28.128C83.4999 27.92 83.9079 27.7814 84.4252 27.712C84.6386 27.6854 84.8812 27.632 85.1532 27.552C85.4306 27.4667 85.6732 27.3307 85.8812 27.144V27.8C85.7586 27.9067 85.5746 28.0054 85.3292 28.096C85.0839 28.1814 84.8039 28.24 84.4892 28.272C84.0786 28.3147 83.7532 28.4134 83.5132 28.568C83.2786 28.7174 83.1106 28.936 83.0092 29.224C82.9079 29.512 82.8572 29.8854 82.8572 30.344C82.9799 30.0294 83.1906 29.7707 83.4892 29.568C83.7932 29.36 84.1532 29.256 84.5692 29.256C85.0759 29.256 85.4786 29.424 85.7772 29.76C86.0812 30.0907 86.2332 30.5787 86.2332 31.224C86.2332 31.8694 86.0706 32.368 85.7452 32.72C85.4252 33.072 84.9559 33.248 84.3372 33.248ZM84.3292 32.688C84.7186 32.688 85.0119 32.552 85.2092 32.28C85.4119 32.008 85.5132 31.6454 85.5132 31.192C85.5132 30.744 85.4146 30.4027 85.2172 30.168C85.0252 29.9334 84.7346 29.816 84.3452 29.816C83.9506 29.816 83.6466 29.9334 83.4332 30.168C83.2199 30.4027 83.1132 30.7494 83.1132 31.208C83.1132 31.656 83.2172 32.016 83.4252 32.288C83.6386 32.5547 83.9399 32.688 84.3292 32.688Z" fill="white"/Indep/>
<path d="M79.5362 33.2482C79.1309 33.2482 78.7869 33.1629 78.5042 32.9922C78.2216 32.8216 78.0056 32.5736 77.8562 32.2482C77.7122 31.9176 77.6402 31.5176 77.6402 31.0482C77.6402 30.6056 77.7122 30.2269 77.8562 29.9122C78.0056 29.5922 78.2216 29.3496 78.5042 29.1842C78.7922 29.0136 79.1389 28.9282 79.5442 28.9282C80.2002 28.9282 80.6936 29.1149 81.0242 29.4882C81.3602 29.8616 81.5282 30.3816 81.5282 31.0482C81.5282 31.7522 81.3602 32.2962 81.0242 32.6802C80.6882 33.0589 80.1922 33.2482 79.5362 33.2482ZM79.5522 32.6882C79.9789 32.6882 80.2936 32.5549 80.4962 32.2882C80.7042 32.0216 80.8082 31.6136 80.8082 31.0642C80.8082 30.5416 80.7042 30.1496 80.4962 29.8882C80.2936 29.6216 79.9842 29.4882 79.5682 29.4882C79.1576 29.4882 78.8536 29.6162 78.6562 29.8722C78.4589 30.1229 78.3602 30.5149 78.3602 31.0482C78.3602 31.5922 78.4589 32.0029 78.6562 32.2802C78.8536 32.5522 79.1522 32.6882 79.5522 32.6882Z" fill="white"/Indep/>
<path d="M71.9476 29.0881H72.6676V32.5281H73.5956C73.8996 32.5281 74.1076 32.4588 74.2196 32.3201C74.3369 32.1815 74.3956 31.9895 74.3956 31.7441C74.3956 31.5041 74.3476 31.3148 74.2516 31.1761C74.1609 31.0375 73.9849 30.9681 73.7236 30.9681H72.1476V30.4081H73.6836C74.1582 30.4081 74.5156 30.5228 74.7556 30.7521C74.9956 30.9815 75.1156 31.3015 75.1156 31.7121C75.1156 32.1335 74.9982 32.4695 74.7636 32.7201C74.5342 32.9655 74.1956 33.0881 73.7476 33.0881H71.9476V29.0881Z" fill="white"/Indep/>
<path d="M68.7684 29.6481H67.3604V29.0881H70.8884V29.6481H69.4884V33.0881H68.7684V29.6481Z" fill="white"/Indep/>
<path d="M64.2108 33.2482C63.8428 33.2482 63.5255 33.1549 63.2588 32.9682C62.9921 32.7816 62.7868 32.5229 62.6428 32.1922C62.4988 31.8616 62.4268 31.4829 62.4268 31.0562C62.4268 30.6509 62.4935 30.2882 62.6268 29.9682C62.7601 29.6482 62.9521 29.3949 63.2028 29.2082C63.4588 29.0216 63.7708 28.9282 64.1388 28.9282C64.6561 28.9282 65.0508 29.1176 65.3228 29.4962C65.6001 29.8696 65.7388 30.4056 65.7388 31.1042C65.7388 31.7816 65.6081 32.3096 65.3468 32.6882C65.0855 33.0616 64.7068 33.2482 64.2108 33.2482ZM64.3148 32.6882C64.5655 32.6882 64.7841 32.6162 64.9708 32.4722C65.1575 32.3282 65.3015 32.1336 65.4028 31.8882C65.5095 31.6429 65.5628 31.3656 65.5628 31.0562C65.5628 30.7469 65.5095 30.4749 65.4028 30.2402C65.2961 30.0056 65.1468 29.8216 64.9548 29.6882C64.7628 29.5549 64.5415 29.4882 64.2908 29.4882C63.9335 29.4882 63.6535 29.6269 63.4508 29.9042C63.2481 30.1762 63.1468 30.5522 63.1468 31.0322C63.1468 31.5336 63.2508 31.9362 63.4588 32.2402C63.6721 32.5389 63.9575 32.6882 64.3148 32.6882ZM65.5628 33.0882V29.0882H66.2828V33.0882H65.5628Z" fill="white"/Indep/>
<path d="M58.4497 29.0881H60.1217C60.6337 29.0881 60.9964 29.1601 61.2097 29.3041C61.4284 29.4481 61.5377 29.6881 61.5377 30.0241C61.5377 30.3015 61.4631 30.5095 61.3137 30.6481C61.1697 30.7868 60.9191 30.8935 60.5617 30.9681C60.9777 30.9895 61.2844 31.0855 61.4817 31.2561C61.6791 31.4268 61.7777 31.6775 61.7777 32.0081C61.7777 32.2481 61.7244 32.4481 61.6177 32.6081C61.5111 32.7681 61.3457 32.8881 61.1217 32.9681C60.8977 33.0481 60.6071 33.0881 60.2497 33.0881H58.4497V29.0881ZM59.9857 30.8161C60.2471 30.8161 60.4497 30.7655 60.5937 30.6641C60.7431 30.5628 60.8177 30.4108 60.8177 30.2081C60.8177 30.0108 60.7457 29.8695 60.6017 29.7841C60.4631 29.6935 60.2631 29.6481 60.0017 29.6481H59.1697V30.8161H59.9857ZM60.1377 32.5281C60.4471 32.5281 60.6764 32.4748 60.8257 32.3681C60.9804 32.2615 61.0577 32.1041 61.0577 31.8961C61.0577 31.6828 60.9804 31.5335 60.8257 31.4481C60.6711 31.3575 60.4391 31.3121 60.1297 31.3121H59.1697V32.5281H60.1377Z" fill="white"/Indep/>
<path d="M55.3687 33.2482C54.9634 33.2482 54.6194 33.1629 54.3367 32.9922C54.0541 32.8216 53.8381 32.5736 53.6887 32.2482C53.5447 31.9176 53.4727 31.5176 53.4727 31.0482C53.4727 30.6056 53.5447 30.2269 53.6887 29.9122C53.8381 29.5922 54.0541 29.3496 54.3367 29.1842C54.6247 29.0136 54.9714 28.9282 55.3767 28.9282C56.0327 28.9282 56.5261 29.1149 56.8567 29.4882C57.1927 29.8616 57.3607 30.3816 57.3607 31.0482C57.3607 31.7522 57.1927 32.2962 56.8567 32.6802C56.5207 33.0589 56.0247 33.2482 55.3687 33.2482ZM55.3847 32.6882C55.8114 32.6882 56.1261 32.5549 56.3287 32.2882C56.5367 32.0216 56.6407 31.6136 56.6407 31.0642C56.6407 30.5416 56.5367 30.1496 56.3287 29.8882C56.1261 29.6216 55.8167 29.4882 55.4007 29.4882C54.9901 29.4882 54.6861 29.6162 54.4887 29.8722C54.2914 30.1229 54.1927 30.5149 54.1927 31.0482C54.1927 31.5922 54.2914 32.0029 54.4887 32.2802C54.6861 32.5522 54.9847 32.6882 55.3847 32.6882Z" fill="white"/Indep/>
<path d="M49.2894 29.0881H50.0094V33.0881H49.2894V29.0881ZM49.3454 30.6961H51.4094L52.1534 29.0881H52.9134L51.9054 30.9841L53.0254 33.0881H52.2094L51.3774 31.2161H49.4014L49.3454 30.6961Z" fill="white"/Indep/>
<path d="M44.3504 29.0881H45.0704V32.0721L47.2384 29.0881H47.9424V33.0881H47.2224V30.0961L45.0464 33.0881H44.3504V29.0881Z" fill="white"/Indep/>
<path d="M39.2076 32.6641C39.2503 32.6695 39.2876 32.6748 39.3196 32.6801C39.3516 32.6855 39.3836 32.6881 39.4156 32.6881C39.5756 32.6881 39.6903 32.5735 39.7596 32.3441C39.8343 32.1095 39.8796 31.7308 39.8956 31.2081C39.9116 30.6801 39.9196 29.9735 39.9196 29.0881H42.9676V33.0881H42.2476V29.7281H40.6396C40.6396 30.4481 40.6236 31.0375 40.5916 31.4961C40.5596 31.9548 40.501 32.3121 40.4156 32.5681C40.3303 32.8188 40.205 32.9948 40.0396 33.0961C39.8796 33.1975 39.6663 33.2481 39.3996 33.2481C39.3623 33.2481 39.3143 33.2428 39.2556 33.2321C39.197 33.2268 39.1383 33.2215 39.0796 33.2161L39.2076 32.6641Z" fill="white"/Indep/>
<path d="M36.5354 33.248C35.874 33.248 35.3807 33.0267 35.0554 32.584C34.7354 32.1414 34.5754 31.4294 34.5754 30.448C34.5754 29.8667 34.6367 29.3867 34.7594 29.008C34.8874 28.6294 35.1007 28.336 35.3994 28.128C35.698 27.92 36.106 27.7814 36.6234 27.712C36.8367 27.6854 37.0794 27.632 37.3514 27.552C37.6287 27.4667 37.8714 27.3307 38.0794 27.144V27.8C37.9567 27.9067 37.7727 28.0054 37.5274 28.096C37.282 28.1814 37.002 28.24 36.6874 28.272C36.2767 28.3147 35.9514 28.4134 35.7114 28.568C35.4767 28.7174 35.3087 28.936 35.2074 29.224C35.106 29.512 35.0554 29.8854 35.0554 30.344C35.178 30.0294 35.3887 29.7707 35.6874 29.568C35.9914 29.36 36.3514 29.256 36.7674 29.256C37.274 29.256 37.6767 29.424 37.9754 29.76C38.2794 30.0907 38.4314 30.5787 38.4314 31.224C38.4314 31.8694 38.2687 32.368 37.9434 32.72C37.6234 33.072 37.154 33.248 36.5354 33.248ZM36.5274 32.688C36.9167 32.688 37.21 32.552 37.4074 32.28C37.61 32.008 37.7114 31.6454 37.7114 31.192C37.7114 30.744 37.6127 30.4027 37.4154 30.168C37.2234 29.9334 36.9327 29.816 36.5434 29.816C36.1487 29.816 35.8447 29.9334 35.6314 30.168C35.418 30.4027 35.3114 30.7494 35.3114 31.208C35.3114 31.656 35.4154 32.016 35.6234 32.288C35.8367 32.5547 36.138 32.688 36.5274 32.688Z" fill="white"/Indep/>
<path d="M30.4284 34.1761C30.5298 34.2135 30.6364 34.2428 30.7484 34.2641C30.8658 34.2855 30.9591 34.2961 31.0284 34.2961C31.1458 34.2961 31.2444 34.2668 31.3244 34.2081C31.4098 34.1495 31.4818 34.0641 31.5404 33.9521C31.6044 33.8455 31.6631 33.7121 31.7164 33.5521L33.1724 29.0881H33.9324L32.3404 33.7121C32.2551 33.9575 32.1618 34.1655 32.0604 34.3361C31.9591 34.5068 31.8364 34.6348 31.6924 34.7201C31.5484 34.8108 31.3671 34.8561 31.1484 34.8561C30.9991 34.8561 30.8791 34.8481 30.7884 34.8321C30.6978 34.8161 30.6124 34.7948 30.5324 34.7681C30.4578 34.7415 30.3644 34.7095 30.2524 34.6721L30.4284 34.1761ZM30.0444 29.0881H30.8044L32.1004 33.0881H31.4204L30.0444 29.0881Z" fill="white"/Indep/>
<path d="M25.5791 29.0881H29.0831V33.0881H28.3631V29.7281H26.2991V33.0881H25.5791V29.0881Z" fill="white"/Indep/>
<path d="M21.672 33.2481C21.1547 33.2481 20.6933 33.1361 20.288 32.9121C19.888 32.6828 19.5733 32.3495 19.344 31.9121C19.1147 31.4695 19 30.9281 19 30.2881C19 29.6588 19.112 29.1255 19.336 28.6881C19.56 28.2455 19.872 27.9095 20.272 27.6801C20.6773 27.4455 21.1467 27.3281 21.68 27.3281C22.2347 27.3281 22.712 27.4508 23.112 27.6961C23.512 27.9361 23.8187 28.2775 24.032 28.7201C24.2453 29.1628 24.352 29.6855 24.352 30.2881C24.352 30.9335 24.2373 31.4775 24.008 31.9201C23.7787 32.3575 23.4613 32.6881 23.056 32.9121C22.656 33.1361 22.1947 33.2481 21.672 33.2481ZM21.696 32.6081C22.096 32.6081 22.4373 32.5148 22.72 32.3281C23.0027 32.1415 23.2187 31.8748 23.368 31.5281C23.5227 31.1815 23.6 30.7681 23.6 30.2881C23.6 29.5148 23.4373 28.9361 23.112 28.5521C22.7867 28.1628 22.2987 27.9681 21.648 27.9681C21.0453 27.9681 20.5787 28.1735 20.248 28.5841C19.9173 28.9948 19.752 29.5628 19.752 30.2881C19.752 31.0561 19.92 31.6348 20.256 32.0241C20.592 32.4135 21.072 32.6081 21.696 32.6081Z" fill="white"/Indep/>
<path d="M79.8178 37.6784C79.4526 36.1906 80.8272 34.8614 82.3019 35.2764L99.6301 40.1527C101.399 40.6506 101.617 43.0708 99.9644 43.8759L92.1635 47.6768C91.7353 47.8855 91.3956 48.2401 91.2056 48.677L88.0158 56.0101C87.2522 57.7656 84.6959 57.5484 84.2395 55.6892L79.8178 37.6784Z" fill="#1E1E1E"/Indep/>
</svg>
