<svg width="191" height="124" viewBox="0 0 191 124" fill="none" xmlns="http://www.w3.org/2000/svg">
<path d="M-33.4838 16.9883C-31.305 17.0227 -25.8994 19.4788 -24.0254 20.8824C-13.9217 18.6076 -3.61025 17.3767 6.74599 17.2089C25.2424 16.809 42.4862 19.1705 59.9997 25.4847C68.6779 28.6134 76.6634 32.7097 84.8067 36.9756C88.5124 38.89 92.1646 40.9066 95.7587 43.0226C98.1881 44.4283 101.887 46.7541 104.354 47.8063C105.252 48.1893 110.481 48.0276 111.788 48.0618C115.057 48.1473 118.759 48.0222 122.05 48.2126C131.801 48.777 141.702 50.8008 151.037 53.6227C155.559 54.9896 162.323 56.6704 165.673 60.0451C170.285 64.691 171.012 70.7455 170.912 77.0147C170.842 81.4251 171.073 86.8152 170.648 91.254C170.46 92.0575 169.904 93.0523 169.271 93.5859C164.182 97.8742 155.407 96.8978 149.167 96.8836C146.832 104.088 139.531 109.685 132.289 111.332C142.966 110.889 153.935 111.405 164.64 111.166C167.518 111.102 170.698 111.059 173.557 111.148C173.814 111.538 173.702 111.366 173.697 111.972C173.236 112.273 171.542 112.164 170.882 112.167C167.509 112.183 164.136 112.193 160.764 112.204L110.396 112.123L14.611 112.139C3.46919 112.152 -87.3224 112.561 -88.3147 112.098C-88.4246 111.737 -88.4167 111.864 -88.3159 111.477C-87.4649 111.029 -85.7242 111.208 -84.7343 111.193C-74.1313 111.028 -63.2498 111.527 -52.675 111.167C-63.0733 108.256 -68.703 100.793 -70.4482 90.401C-71.3673 90.8009 -71.7996 90.7453 -72.7784 90.5996C-79.4537 89.6066 -86.0136 88.2986 -92.2065 85.5378C-98.6429 82.6684 -100.469 78.0328 -100.651 71.2969C-100.748 67.7284 -100.765 64.7085 -98.7644 61.5611C-97.6682 59.8383 -96.1443 58.5733 -95.1649 56.784C-93.6475 53.9643 -92.5346 50.9553 -91.183 48.0548C-90.1915 45.927 -88.6635 45.5893 -86.5595 45.0906C-82.1689 44.0549 -77.3252 43.4848 -73.069 41.9377C-68.726 40.3591 -64.204 37.9665 -60.0505 35.9128C-54.8995 33.3476 -49.6976 30.886 -44.4473 28.53C-40.2532 26.6473 -35.9795 24.7632 -31.589 23.3805C-32.5229 21.0719 -34.1773 19.3413 -33.4838 16.9883Z" fill="#1E1E1E"/>
<path d="M4.85144 18.1919C5.17597 18.1746 5.5005 18.1598 5.82533 18.1471C28.205 17.2998 50.4696 21.7308 70.8136 31.0806C79.6841 35.0708 88.2357 40.031 96.7298 44.7513C98.8496 45.929 101.956 48.0323 104.17 48.8068C105.505 49.2738 110.125 49.0915 111.715 49.0936C114.868 49.0686 118.021 49.1133 121.171 49.2273C132.949 49.714 143.535 52.164 154.719 55.8664C157.325 56.7289 161.448 57.8978 163.432 59.7255C157.746 59.6172 150.63 58.8763 145.619 61.3941C147.181 62.6679 148.776 63.7393 150.327 65.1044C152.378 66.9094 155.552 70.6236 158.309 71.0504C161.833 71.5964 166.023 71.3999 169.637 71.4268C170.257 75.7087 169.866 80.6681 169.832 84.9938C169.815 87.2483 170.343 91.383 168.502 92.8969C164.252 96.3925 156.639 95.8853 151.403 95.8762C153.223 85.3484 150.911 76.086 142.114 69.3664C131.697 61.4089 116.188 63.7269 108.535 74.3251C103.816 80.8588 103.256 88.3365 104.627 96.0567C85.5359 95.7281 66.038 96.0639 46.9209 96.0869L-23.1815 96.1244C-22.8715 87.4617 -22.6995 80.6433 -28.6089 73.4642C-37.3355 62.8629 -52.6169 61.4543 -63.1206 70.3313C-69.3942 75.6337 -71.0837 81.808 -71.7846 89.6599C-73.8247 89.4447 -76.8363 88.9852 -78.8325 88.5079C-85.5508 86.9019 -93.7297 85.5083 -97.8501 79.4879C-95.3157 79.477 -92.9157 79.9253 -90.4348 79.237C-88.8339 78.793 -85.4645 75.2664 -86.1436 73.612C-87.1683 73.0643 -97.483 73.0676 -99.5041 72.9969C-99.7922 70.7663 -99.8173 67.7954 -99.2908 65.6007C-98.8044 63.7272 -98.0285 62.1556 -96.9355 60.5725C-93.8274 60.4881 -75.9042 60.8878 -74.7117 60.2551C-74.1619 59.5553 -74.3091 58.8639 -74.3566 57.9903C-67.8735 57.8915 -61.3896 57.8413 -54.9056 57.8401C-49.9735 57.8274 -45.2932 57.6847 -40.3798 58.1617C-35.3838 58.6466 -34.0987 59.2067 -30.4262 62.5271C-24.1072 68.1491 -19.1369 76.5896 -18.1306 85.0395C-17.7271 88.4284 -18.226 90.4341 -13.9741 90.4979C-9.0038 90.5722 -4.02171 90.5792 0.954033 90.5952L35.5526 90.5577C49.7324 90.626 63.9125 90.6194 78.0923 90.5375L91.1786 90.5085C92.3702 90.5067 97.7037 90.7376 98.3367 90.1678C98.6458 88.4762 98.5036 79.8428 98.5036 77.5206C98.5756 68.6714 98.5801 59.8219 98.5175 50.9727C95.8861 49.0622 92.5887 47.1424 89.8187 45.3202C77.6028 37.2841 64.2743 30.684 50.172 26.4057C25.2021 18.9591 -2.19348 18.362 -27.2517 25.6992C-32.7954 27.3225 -38.1783 29.859 -43.3872 32.2945C-48.7568 34.8051 -54.0283 37.2884 -59.2586 40.0815C-57.7371 41.5609 -53.3374 45.4526 -51.6748 46.6203C-49.1797 46.6424 -46.6855 46.7128 -44.1933 46.8316C-43.1535 48.0411 -41.8847 49.7814 -40.8693 51.0673C-39.0396 53.3677 -37.1935 55.6554 -35.3314 57.9296C-40.5472 56.5693 -47.8237 56.9438 -53.3841 56.9335C-60.4514 56.9063 -67.5187 56.9257 -74.5858 56.991C-75.5945 54.6966 -75.7637 52.157 -76.7809 50.2729C-78.2952 49.006 -88.2703 49.5193 -90.7929 49.5498C-90.0031 47.756 -89.8299 46.9867 -87.8062 46.4456C-82.9137 45.1376 -77.3334 44.683 -72.615 42.8387C-65.7968 40.1737 -59.2514 36.581 -52.6439 33.4393C-44.309 29.4606 -34.4889 24.9129 -25.6636 22.3601C-16.9203 19.8309 -4.19547 18.4657 4.85144 18.1919Z" fill="white"/>
<path d="M162.425 75.7634C164.135 75.7126 166.694 75.6241 168.364 75.7873C168.653 79.0212 168.41 84.9735 166.983 87.8525C165.961 89.9144 164.753 90.5565 162.751 91.2739C161.583 91.6336 158.688 92.5178 157.563 92.2509L157.429 92.0187C157.505 91.1804 158.24 89.6696 158.554 88.7029C158.99 87.3211 159.357 85.9191 159.655 84.5017C159.95 83.0622 160.167 81.6082 160.306 80.1457C160.404 79.1091 160.417 76.9169 160.727 76.0708C161.314 75.7852 161.774 75.809 162.425 75.7634Z" fill="#1E1E1E"/>
<path d="M161.604 76.7641C163.484 76.7472 165.365 76.7478 167.245 76.7666C167.314 81.037 167.867 87.3216 163.61 89.7871C161.996 90.4149 160.577 90.7665 158.883 91.0933C160.664 85.156 161.097 82.9508 161.604 76.7641Z" fill="white"/>
<path d="M25.2432 47.9395L70.5113 49.5104C74.7835 49.6501 79.0566 49.7565 83.3303 49.8291C88.1462 49.9336 93.0808 49.6673 97.528 51.7202C97.7114 64.1176 97.3878 76.9495 97.4523 89.4268C90.7555 89.526 83.7666 89.4053 77.0437 89.405L28.8893 89.3936C28.0301 81.5794 27.4713 73.1201 26.7505 65.237L25.7757 54.2107C25.6004 52.2598 25.2792 49.83 25.2432 47.9395Z" fill="white"/>
<path d="M33.4869 54.2454C35.8833 54.2019 43.2579 53.243 42.7282 56.674C42.5502 57.8284 41.9707 58.1265 40.9905 58.4272C38.6755 58.4502 35.8149 58.6077 33.5683 58.3296C31.1113 58.0258 30.6921 55.1707 33.4869 54.2454Z" fill="#1E1E1E"/>
<path d="M-42.9053 46.778C-36.8082 46.704 -30.5189 46.9379 -24.3928 46.9942C-8.16742 47.0785 8.05643 47.3811 24.2739 47.9019C24.392 52.3069 24.9781 57.3125 25.3719 61.7586L27.8295 89.4111C18.6397 89.5262 9.12507 89.3563 -0.112865 89.3848L-9.54667 89.4135C-11.4808 89.4183 -13.4426 89.4887 -15.3631 89.2708C-16.8771 89.0991 -16.9815 87.4392 -17.0151 86.234C-17.1423 81.6743 -18.7132 77.2503 -20.8172 73.2389C-23.19 68.6746 -26.4096 64.6016 -30.3046 61.2371C-30.8138 60.7931 -33.6997 58.7508 -33.9013 58.4192C-36.4658 54.198 -40.0202 50.7555 -42.9053 46.778Z" fill="white"/>
<path d="M-26.0182 95.9824C-25.4639 96.233 -25.0431 96.8216 -24.6302 97.2947C-20.0386 97.5534 -13.488 97.3297 -8.75476 97.3219L20.5387 97.3185L106.751 97.288C109.972 104.946 115.02 108.897 122.879 111.157C117.535 111.38 110.903 111.175 105.475 111.15L5.3911 111.187L-27.5149 111.233C-32.5076 111.251 -37.9244 111.145 -42.8584 111.317C-33.8702 108.552 -29.6722 104.431 -26.0182 95.9824Z" fill="#1E1E1E"/>
<path d="M126.753 71.1136C136.692 70.5487 145.212 78.1264 145.796 88.0497C146.38 97.9732 138.806 106.495 128.869 107.095C118.907 107.698 110.346 100.112 109.761 90.1633C109.176 80.2143 116.788 71.6798 126.753 71.1136Z" fill="white"/>
<path d="M138.416 78.8477L138.731 78.9293C140.06 80.1572 140.99 81.7647 141.633 83.4418C139.386 84.9696 136.657 85.9956 134.061 86.7383C133.399 86.8934 132.581 87.0282 131.901 87.1603C131.71 86.9424 131.274 86.2988 131.085 86.0334C133.586 82.5002 134.755 81.1384 138.416 78.8477Z" fill="#1E1E1E"/>
<path d="M116.771 78.6543C119.253 80.5212 121.614 81.9414 123.435 84.5598C124.015 85.3941 125.118 86.3176 124.232 87.2348C123.736 87.4028 123.503 87.2635 122.998 87.1027C119.15 85.9794 117.402 85.5017 114.04 83.3277C114.721 81.3749 115.304 80.1413 116.771 78.6543Z" fill="#1E1E1E"/>
<path d="M124.786 74.37C125.293 74.3101 125.322 74.3104 125.83 74.3624C126.65 75.2917 128.13 84.691 126.29 85.0577C125.732 84.8455 125.425 84.3449 125.042 83.867C123.837 82.4589 120.322 77.7647 120.949 75.9573C121.775 74.9918 123.565 74.5752 124.786 74.37Z" fill="#1E1E1E"/>
<path d="M112.74 86.898C114.954 86.7774 122.881 87.2611 123.86 89.323L123.697 89.7166C123.165 90.1948 122.653 90.2625 121.954 90.4599C118.707 91.4493 116.189 92.2078 112.772 91.9257C112.606 90.112 112.576 88.7157 112.74 86.898Z" fill="#1E1E1E"/>
<path d="M141.761 86.7904L142.987 86.7871C143.045 88.1006 143.16 89.527 142.962 90.8236C142.592 93.2452 140.182 92.235 138.61 91.8737C137.37 91.589 136.119 91.2041 134.904 90.8166C133.921 90.4865 132.043 90.206 132.4 88.9385C133.803 87.5328 139.801 86.8965 141.761 86.7904Z" fill="#1E1E1E"/>
<path d="M124.194 91.2812C124.929 92.0847 124.01 93.2549 123.46 93.9628C121.783 96.1209 119.851 98.6317 117.471 100.054C116.919 99.5582 116.464 98.9609 115.99 98.3862C115.253 97.4023 114.702 96.6517 114.061 95.61C118.159 93.2026 119.793 92.7537 124.194 91.2812Z" fill="#1E1E1E"/>
<path d="M129.332 74.2012C131.305 74.4977 132.943 74.8215 134.666 75.8496C133.765 78.5566 133.043 80.7977 131.165 82.9521C130.482 83.7369 130.107 84.4999 129.359 85.2988C128.932 85.2517 129.129 85.3315 128.804 84.9491C128.436 82.2744 128.434 76.6975 129.332 74.2012Z" fill="#1E1E1E"/>
<path d="M131.591 91.4941C134.832 92.1888 138.516 94.0373 141.422 95.5684C140.968 96.6596 140.439 97.286 139.697 98.1647C139.149 98.8231 138.881 99.1856 138.212 99.7357C136.409 100.196 132.384 94.8498 131.783 93.2649C131.412 92.284 131.327 92.4717 131.591 91.4941Z" fill="#1E1E1E"/>
<path d="M128.681 93.1309L129.316 93.2506C130.956 94.4111 133.882 100.296 134.287 102.49C134.117 102.887 133.701 103.022 133.291 103.241C131.763 103.832 130.69 103.973 129.067 104.149C128.04 100.545 128.414 96.8037 128.681 93.1309Z" fill="#1E1E1E"/>
<path d="M125.942 93.3516C126.302 93.3634 126.413 93.3866 126.768 93.4555C127.629 94.5583 126.711 102.47 125.534 103.82C124.781 104.139 123.611 103.645 122.815 103.39C122.167 103.121 121.433 102.712 120.802 102.383C121.715 98.9185 123.69 96.113 125.942 93.3516Z" fill="#1E1E1E"/>
<path d="M8.10143 23.1687C10.2387 23.1427 12.172 23.1327 14.3051 23.2204C14.6105 25.3742 14.7788 27.681 15.0365 29.865L17.0009 46.7908C6.60471 46.577 -3.75335 46.1577 -14.1777 46.0616L-21.9241 45.9543C-22.3646 44.0708 -22.6403 40.6222 -22.835 38.6531L-23.9297 27.5827C-11.6475 24.477 -4.63945 23.5928 8.10143 23.1687Z" fill="white"/>
<path d="M25.8486 24.0254C37.935 25.6321 48.6893 28.1604 59.981 32.9728C66.63 35.8068 72.4564 38.8781 78.8274 42.2189C77.2844 42.5475 74.5692 42.78 72.906 42.9738C72.6293 43.0539 72.0044 43.2211 71.8261 43.4039C70.9337 44.3196 71.2328 47.3697 71.2491 48.7058C57.0345 48.0876 42.8169 47.5432 28.5969 47.0722C27.655 41.2492 27.2203 35.2476 26.3709 29.4016C26.1293 27.7402 25.8719 25.6913 25.8486 24.0254Z" fill="white"/>
<path d="M157.061 60.6547C159.203 60.6081 162.987 60.5891 165.039 60.9204C166.553 62.3732 169.977 68.0266 169.28 70.0468C168.499 70.7097 161.585 70.3754 160.21 70.3412C156.336 70.116 154.202 67.0976 151.385 64.7099C149.969 63.5104 148.967 62.7033 147.465 61.6184C150.647 60.4778 153.719 60.6773 157.061 60.6547Z" fill="white"/>
</svg>
