<svg width="1264" height="461" viewBox="0 0 1264 461" fill="none" xmlns="http://www.w3.org/2000/svg">
<g clip-path="url(#clip0_1753_5368)">
<rect width="1264" height="461" fill="#F7F7F7"/>
<g clip-path="url(#clip1_1753_5368)">
<rect width="524" height="524" transform="translate(687 -40)" fill="#F7F7F7"/>
<path d="M687 -40H1211V484H687V-40Z" fill="#F7F7F7"/>
<path d="M833.652 236.206C837.687 234.789 842.612 232.846 846.904 232.442C863.93 230.835 882.71 232.623 898.898 238.237C903.139 239.708 902.014 244.241 904.474 247.798C903.817 250.708 903.381 253.14 902.907 256.081C901.894 255.841 900.843 255.611 899.844 255.331C898.323 253.823 897.456 252.637 896.079 251.111C897.107 253.776 897.286 254.202 899.382 256.146C902.372 256.827 904.224 257.269 907.05 258.44C905.533 258.641 904.13 258.766 902.607 258.895C903.262 259.081 909.46 258.96 910.569 258.929L909.732 258.751C914.886 258.309 919.507 257.37 925.175 257.269C941.825 256.969 962.209 257.629 976.556 266.992C979.526 268.931 980.057 276.408 980.896 279.858C982.314 285.69 983.773 291.264 983.807 297.333C994.397 292.541 1004.74 287.235 1016.07 284.387C1025.1 282.12 1034.57 281.763 1043.84 281.641C1068.56 281.317 1092.99 283.938 1116.27 292.741C1118.94 293.751 1121.95 295.279 1123.23 297.975C1125.41 302.574 1122.4 308.971 1123.61 313.975C1124.37 317.146 1127.65 322.418 1129.59 325.184C1130.76 326.855 1132.17 328.517 1133.06 330.356C1135.41 335.226 1132.83 352.99 1130.8 357.999C1130.74 358.157 1130.67 358.313 1130.61 358.47C1127.94 358.855 1125.41 359.174 1122.73 359.414C1120.45 359.618 1117.68 359.606 1115.48 359.985C1115.04 363.186 1114.67 364.317 1113.38 367.293C1114.35 368.199 1118.88 370.734 1120.32 371.579C1124.47 374.027 1128.6 376.506 1132.72 379.016L1168.31 401.032C1176.77 406.205 1185.62 411.342 1193.93 416.691L946.109 416.784C955.05 423.631 964.63 429.539 973.383 436.221C1057 496.999 955.5 484.999 946.109 494.999C913.5 506.999 900.356 464.709 878.5 460.999C877.159 460.772 859.477 444.619 858.472 443.88C850.157 437.77 842.352 430.867 834.415 424.259L782.5 380.206L750.942 353.449L722.206 329.118C718.308 325.791 707.204 317.119 704.989 313.378C702.859 309.825 702.237 305.567 703.262 301.553C705.007 294.862 710.54 289.804 717.614 289.645C722.959 289.525 728.285 289.551 733.631 289.543L764.772 289.494C766.277 289.49 772.677 289.682 773.622 289.123L773.702 288.205C770.776 286.85 757.778 288.152 753.934 287.003C753.25 286.798 752.2 286.342 751.979 285.616C750.039 279.219 751.831 270.467 754.111 264.451C755.408 260.779 758.891 259.385 761.988 257.825C770.142 253.717 779.962 254.355 788.178 252.029C793.007 250.663 800.175 246.57 804.996 244.432C812.117 241.275 819.047 238.397 826.276 235.463L827.531 234.757C829.462 234.517 831.707 233.886 833.628 233.403C834.131 233.516 834.44 233.585 834.936 233.738L835.368 234.464C835.003 235.222 834.442 235.597 833.619 235.838L833.652 236.206Z" fill="#080717"/>
<path d="M909.732 258.751C914.886 258.31 919.507 257.37 925.176 257.269C941.825 256.969 962.21 257.629 976.556 266.992C979.526 268.931 980.057 276.408 980.896 279.858C982.315 285.691 983.774 291.264 983.807 297.333C994.397 292.541 1004.74 287.235 1016.08 284.387C1025.11 282.12 1034.57 281.763 1043.84 281.641C1068.56 281.317 1092.99 283.938 1116.27 292.741C1118.94 293.751 1121.95 295.279 1123.23 297.975C1125.41 302.574 1122.4 308.971 1123.61 313.975C1124.37 317.146 1127.65 322.418 1129.59 325.184C1130.76 326.855 1132.17 328.517 1133.06 330.356C1135.41 335.226 1132.83 352.99 1130.8 357.999C1130.74 358.157 1130.67 358.313 1130.61 358.47C1127.94 358.855 1125.41 359.174 1122.73 359.414C1120.45 359.618 1117.68 359.606 1115.48 359.985C1115.04 363.186 1114.67 364.317 1113.38 367.293C1112.93 367.495 1111.44 369.133 1111.09 369.568C1103.76 378.637 1092.06 377.827 1083.71 370.731C1082.06 369.323 1080.81 367.275 1079.04 365.875C1077.93 363.796 1077.42 362.074 1076.82 359.818C1052.58 359.889 1028.35 360.101 1004.12 360.453L985.533 360.684C982.655 360.728 979.168 360.857 976.269 360.667C975.685 360.629 975.434 359.785 975.134 359.204L975.027 358.885C975.323 358.138 975.448 357.085 975.583 356.263L976.081 355.98C976.957 330.727 935.276 327.873 934.896 356.327C922.89 355.893 912.665 355.173 900.884 352.74C900.161 348.332 900.274 344.486 900.544 340.042C899.988 339.352 899.912 339.067 899.578 338.268C899.944 337.222 900.418 335.352 900.823 334.473C902.893 329.986 908.205 325.955 911.961 322.772C908.819 322.413 902.834 322.53 899.382 322.479C890.157 322.35 880.93 322.29 871.703 322.299C873.689 321.701 880.033 321.897 882.414 321.895L908.644 322.127C909.153 322.129 913.278 322.479 912.975 322.572C917.945 321.043 937.304 313.448 941.665 314.257C942.135 314.226 945.24 313.451 945.89 313.297L945.619 312.284L945.016 311.787L945.292 311.297L921.366 311.145L921.517 279.166C922.358 279.074 922.994 278.993 923.824 278.839L923.846 278.66C922.274 278.661 920.295 278.754 918.782 278.459L918.546 277.924C917.632 278.541 917.4 278.592 916.544 279.039L916.778 279.342C913.291 279.712 909.088 279.565 905.506 279.726C899.306 280.006 892.996 280.228 886.803 280.426C885.164 280.478 875.394 280.486 874.62 280.808L873.969 280.738C873.472 280.592 870.611 280.454 869.811 280.359C869.072 280.398 868.612 280.221 867.903 280.029C865.545 279.633 862.162 277.346 860.075 276.032L860.053 275.087C863.884 273.786 867.687 271.853 871.373 270.158C874.225 268.846 877.478 267.611 880.204 266.167L880.934 265.948C888.339 263.308 894.568 259.889 902.608 258.895C903.262 259.081 909.461 258.96 910.57 258.929L909.732 258.751Z" fill="#FEFEFF"/>
<path d="M870.017 279.648C870.588 277.922 888.12 268.994 890.722 267.533C912.986 255.034 941.477 256.164 965.458 262.539C968.223 263.274 975.728 266.336 977.484 269.305C978.584 272.582 982.765 290.613 982.663 293.281C982.308 293.733 982.52 293.591 982.071 293.765L982.498 294.044C982.668 295.447 982.55 296.519 982.463 297.92C978.004 300.007 972.482 302.843 968.072 304.699C962.742 299.103 955.568 298.172 949.264 303.443C947.08 305.269 946.139 308.274 945.549 311.022L945.292 311.298L921.365 311.147L921.517 279.167C922.357 279.076 922.993 278.995 923.823 278.84L923.845 278.662C922.273 278.663 920.295 278.756 918.781 278.461L918.545 277.925C917.632 278.543 917.399 278.594 916.544 279.04L916.778 279.343C913.29 279.713 909.087 279.567 905.505 279.728C899.306 280.007 892.995 280.23 886.802 280.428C885.163 280.48 875.393 280.487 874.62 280.81L873.968 280.739C873.471 280.593 870.61 280.456 869.811 280.361C869.072 280.4 868.611 280.222 867.902 280.031L868.701 279.621C869.205 279.692 869.515 279.737 870.017 279.648Z" fill="#FEFEFF"/>
<path d="M958.142 277.631C963.905 277.504 969.663 277.206 975.408 276.738C975.285 280.466 974.436 280.985 971.97 283.957C973.452 288.734 976.546 293.495 982.071 293.764L982.498 294.043C982.668 295.446 982.55 296.517 982.463 297.919C978.004 300.006 972.482 302.842 968.072 304.698C962.742 299.101 955.568 298.171 949.264 303.442C947.08 305.268 946.139 308.273 945.549 311.021L945.292 311.297L921.365 311.145L921.517 279.166C923.076 279.401 930.982 279.064 933.122 278.927C939.703 278.508 947.713 278.627 954.132 277.81L958.142 277.631Z" fill="#DB4431"/>
<path d="M923.907 260.58C928.561 259.791 950.46 260.658 954.575 262.585L954.806 263.054L955.981 263.48C955.396 263.741 955.545 263.735 954.936 263.811C955.025 265.366 956.489 272.181 957.066 273.676C957.218 274.731 957.418 275.91 957.525 276.959C955.982 277.065 953.542 277.162 952.082 277.379L951.965 277.643C952.711 277.717 953.383 277.765 954.133 277.81C947.714 278.627 939.704 278.508 933.123 278.927C930.983 279.063 923.077 279.401 921.518 279.166C922.358 279.074 922.994 278.993 923.824 278.839L923.846 278.66C922.274 278.661 920.296 278.754 918.782 278.46L918.546 277.924C918.661 272.706 918.135 267.39 918.314 261.788C919.556 261.499 921.385 261.385 922.694 261.258C922.979 261.167 923.615 260.754 923.907 260.58Z" fill="#080717"/>
<path d="M922.694 261.258C923.164 262.386 923.365 275.481 923.703 278.366C922.22 278.372 920.206 278.327 918.782 278.459L918.546 277.923C918.661 272.705 918.135 267.389 918.314 261.788C919.556 261.498 921.385 261.385 922.694 261.258Z" fill="#FEFEFF"/>
<path d="M950.458 262.756C951.953 262.991 953.682 263.073 954.936 263.811C955.025 265.366 956.489 272.181 957.065 273.676C957.218 274.731 957.418 275.91 957.524 276.959C955.982 277.065 953.542 277.162 952.081 277.379L950.458 262.756Z" fill="#FEFEFF"/>
<path d="M875.633 279.688C876.302 279.687 877.489 279.75 877.991 279.372C880.046 277.822 882.121 275.555 884.206 274.089C892.884 267.986 905.072 262.539 915.586 261.363C916.727 261.627 917.161 261.761 918.313 261.79C918.134 267.391 918.66 272.707 918.545 277.925C917.632 278.543 917.399 278.593 916.544 279.04L916.778 279.343C913.29 279.713 909.087 279.567 905.505 279.728C899.306 280.007 892.995 280.23 886.802 280.427C885.163 280.48 875.393 280.487 874.62 280.81L873.968 280.739C873.471 280.593 870.61 280.456 869.811 280.361C869.072 280.4 868.611 280.222 867.902 280.031L868.701 279.621C869.205 279.692 869.515 279.737 870.017 279.648C871.877 279.631 873.78 279.586 875.633 279.688Z" fill="#080717"/>
<path d="M867.902 280.029L868.701 279.619C869.205 279.69 869.515 279.735 870.017 279.646C871.877 279.629 873.78 279.584 875.633 279.686C876.28 280.004 876.523 279.892 877.205 279.787L877.498 280.102C875.997 280.352 871.772 280.23 869.811 280.359C869.072 280.398 868.611 280.22 867.902 280.029Z" fill="#080717"/>
<path d="M954.575 262.584C960.319 263.538 970.501 266.846 975.227 270.259C975.505 271.921 975.74 273.273 975.859 274.957C975.76 275.746 975.829 276.16 975.409 276.738C969.664 277.205 963.906 277.503 958.143 277.631L954.133 277.809C953.383 277.765 952.711 277.716 951.965 277.643L952.081 277.379C953.542 277.162 955.982 277.065 957.525 276.958C957.418 275.91 957.218 274.731 957.066 273.676C956.489 272.18 955.025 265.366 954.936 263.811C955.545 263.735 955.396 263.74 955.981 263.479L954.806 263.053L954.575 262.584Z" fill="#080717"/>
<path d="M975.858 274.959C976.157 277.948 976.503 279.954 974.418 282.485C973.947 283.051 973.465 283.608 972.973 284.156C974.816 289.117 977.241 292.103 982.664 293.281C982.308 293.732 982.52 293.591 982.072 293.765C976.547 293.496 973.452 288.735 971.97 283.958C974.436 280.985 975.285 280.467 975.408 276.739C975.829 276.162 975.759 275.748 975.858 274.959Z" fill="#080717"/>
<path d="M915.586 261.362C918.444 260.844 921.012 260.641 923.906 260.58C923.614 260.755 922.978 261.167 922.693 261.259C921.384 261.386 919.555 261.499 918.313 261.789C917.161 261.76 916.728 261.627 915.586 261.362Z" fill="#080717"/>
<path d="M909.732 258.751C914.886 258.31 919.507 257.37 925.176 257.269C941.825 256.969 962.21 257.629 976.556 266.992C979.526 268.931 980.057 276.408 980.896 279.858C982.315 285.691 983.774 291.264 983.807 297.333C994.397 292.541 1004.74 287.235 1016.08 284.387C1025.11 282.12 1034.57 281.763 1043.84 281.641C1068.56 281.317 1092.99 283.938 1116.27 292.741C1118.94 293.751 1121.95 295.279 1123.23 297.975C1125.41 302.574 1122.4 308.971 1123.61 313.975C1124.37 317.146 1127.65 322.418 1129.59 325.184C1130.76 326.855 1132.17 328.517 1133.06 330.356C1135.41 335.226 1132.83 352.99 1130.8 357.999C1130.74 358.157 1130.67 358.313 1130.61 358.47C1127.94 358.855 1125.41 359.174 1122.73 359.414C1120.45 359.618 1117.68 359.606 1115.48 359.985C1115.04 363.186 1114.67 364.317 1113.38 367.293C1112.93 367.495 1111.44 369.133 1111.09 369.568C1103.76 378.637 1092.06 377.827 1083.71 370.731C1082.06 369.323 1080.81 367.275 1079.04 365.875C1077.93 363.796 1077.42 362.074 1076.82 359.818C1052.58 359.889 1028.35 360.101 1004.12 360.453L985.533 360.684C982.655 360.728 979.168 360.857 976.269 360.667C975.685 360.629 975.434 359.785 975.134 359.204L975.027 358.885C975.323 358.138 975.448 357.085 975.583 356.263L976.081 355.98L976.267 359.698C993.393 359.831 1010.97 359.209 1028.14 358.998L1074.54 358.849C1074.92 356.918 1075.68 355.662 1073.57 355.115C1073.63 355.094 1075.14 354.815 1075.34 354.773C1075.75 353.972 1075.62 354.416 1075.43 353.293C1075.65 347.659 1080.71 339.763 1085.53 336.947C1086.79 336.208 1088.58 335.634 1089.92 334.903L1090.24 334.725L1090.66 334.763C1096.69 333.108 1102.37 333.455 1107.83 336.624C1116.78 341.813 1118.56 349.348 1117.38 358.901C1121.63 358.479 1125.46 358.068 1129.67 357.419C1131.05 354.19 1131.56 351.818 1131.94 348.291L1132.12 347.035C1132.36 345.203 1132.45 344.105 1132.49 342.263L1132.61 341.67C1131.15 341.399 1129.78 340.882 1128.37 340.4L1128.21 340.835C1125.5 339.898 1124.87 340.015 1122.82 337.869C1123.1 335.284 1124.54 329.893 1124.33 327.511C1123.98 323.707 1116.01 318.985 1113.3 315.825C1110.83 312.946 1110.9 313.277 1108.9 309.754C1113.18 309.784 1117.76 309.347 1122.12 309.237C1122.47 299.853 1124.94 296.848 1113.85 293.009C1090.7 284.988 1066.37 281.659 1041.9 282.751C1038.68 282.895 1034.57 282.84 1031.32 283.343C1009.24 291.144 988.424 302.706 968.654 315.17C964.599 317.725 958.015 314.7 954.958 311.387C952.145 311.779 948.636 312.614 945.89 313.297L945.619 312.284L945.016 311.787L945.292 311.297L945.55 311.021C946.14 308.273 947.08 305.268 949.264 303.442C955.569 298.171 962.743 299.101 968.073 304.697C972.483 302.842 978.005 300.006 982.464 297.919C982.551 296.517 982.668 295.446 982.499 294.042L982.072 293.764C982.521 293.59 982.309 293.731 982.664 293.28C982.765 290.612 978.585 272.58 977.485 269.303C975.728 266.335 968.223 263.272 965.459 262.537C941.477 256.162 912.986 255.032 890.723 267.531C888.121 268.992 870.589 277.921 870.018 279.646C869.515 279.735 869.206 279.69 868.702 279.62L867.903 280.029C865.545 279.633 862.162 277.346 860.075 276.032L860.053 275.087C863.884 273.786 867.687 271.853 871.373 270.158C874.225 268.846 877.478 267.611 880.204 266.167L880.934 265.948C888.339 263.308 894.568 259.889 902.608 258.895C903.262 259.081 909.461 258.96 910.57 258.929L909.732 258.751Z" fill="url(#paint0_linear_1753_5368)"/>
<path d="M1121.93 310.715C1122.35 318.57 1129.37 325.367 1132.56 331.906C1133.51 333.857 1132.55 339.357 1132.61 341.67C1131.15 341.4 1129.78 340.882 1128.37 340.4C1126.8 339.532 1125.41 338.791 1123.94 337.761C1124.61 333.489 1126.54 327.14 1123.88 323.852C1120.25 319.383 1113.72 316.478 1111.13 311.049L1121.93 310.715Z" fill="#FEFEFF"/>
<path d="M1094.84 342.709C1102.08 341.422 1108.98 346.274 1110.22 353.522C1111.46 360.77 1106.57 367.643 1099.31 368.838C1092.12 370.023 1085.32 365.18 1084.09 357.997C1082.86 350.813 1087.66 343.984 1094.84 342.709Z" fill="#FEFEFF"/>
<path d="M1096.18 352.068C1098.26 351.534 1100.37 352.791 1100.88 354.867C1101.4 356.943 1100.13 359.043 1098.05 359.543C1095.99 360.038 1093.92 358.781 1093.41 356.728C1092.9 354.676 1094.14 352.595 1096.18 352.068Z" fill="#080717"/>
<path d="M960.223 307.538C960.729 307.494 960.597 307.512 961.111 307.623L960.943 308.019C959.55 308.816 957.392 309.476 955.824 310.015L955.364 310.126L955.003 309.874L955.129 309.224C956.061 307.993 958.725 307.769 960.223 307.538Z" fill="#FEFBE1"/>
<path d="M983.103 318.966C986.813 318.861 993.873 318.216 997.663 317.581C999.438 317.137 1002.05 315.218 1003.81 315.074C1013.78 314.257 1023.82 314.061 1033.81 313.392C1036.22 313.23 1039.57 312.96 1041.87 313.167C1041.64 326.873 1041.8 341.079 1041.87 354.811C1024.31 355.474 1006.57 354.978 989.004 355.55C986.931 355.617 984.877 355.633 982.802 355.589C979.916 347.48 979.508 334.864 980.639 326.352C980.932 324.147 981.053 321.41 981.925 319.362C982.569 318.867 982.204 319.032 983.103 318.966Z" fill="#FEFEFF"/>
<path d="M1089.67 309.115C1090.33 309.621 1090.23 309.425 1090.64 310.081C1090.05 317.322 1090.85 327.316 1090.65 334.764L1090.24 334.726L1089.92 334.904C1088.58 335.635 1086.79 336.209 1085.52 336.948C1080.71 339.764 1075.65 347.66 1075.43 353.294C1075.26 353.872 1075.26 353.833 1074.87 354.298C1071.21 354.663 1066.25 354.55 1062.48 354.587L1042.66 354.87L1042.65 326.058C1042.65 323.639 1042.8 314.785 1042.42 312.972C1043.31 313.049 1043.83 312.955 1044.72 312.852C1045.98 312.824 1047.29 312.814 1048.56 312.752C1053.21 312.339 1058.32 312.182 1063.02 311.902L1083.16 310.614L1082.45 310.62L1082.27 310.312L1082.52 310.611L1081.41 310.498C1082.12 310.293 1082.03 310.391 1082.57 309.885C1084.96 309.508 1087.14 309.592 1089.67 309.115Z" fill="#FEFEFF"/>
<path d="M1089.67 309.115C1090.33 309.621 1090.23 309.425 1090.64 310.081C1090.05 317.322 1090.85 327.316 1090.65 334.764L1090.24 334.726C1089.66 328.142 1089.98 317.207 1089.95 310.261C1087.8 310.29 1085.33 310.491 1083.16 310.614L1082.45 310.62L1082.27 310.312L1082.53 310.611L1081.41 310.498C1082.12 310.293 1082.03 310.391 1082.57 309.885C1084.96 309.508 1087.14 309.592 1089.67 309.115Z" fill="#080717"/>
<path d="M1048.25 286.303C1067.39 286.581 1083.97 288.657 1102.5 293.843C1105.52 294.687 1110.02 295.952 1112.81 297.231C1113.43 298.39 1113.84 299.156 1114.6 300.259C1111.04 309.452 1099.02 310.126 1090.64 310.08C1090.23 309.424 1090.34 309.62 1089.67 309.114C1087.14 309.591 1084.96 309.507 1082.57 309.884C1082.03 310.39 1082.12 310.292 1081.41 310.497L1082.53 310.61L1082.27 310.311L1082.45 310.619L1083.16 310.613L1063.02 311.901C1058.32 312.181 1053.21 312.338 1048.56 312.75L1047.48 311.898C1047.36 311.281 1047.43 305.668 1047.44 304.776L1047.51 286.991L1048.32 286.695L1048.25 286.303Z" fill="#080717"/>
<path d="M1082.38 290.102C1084.74 290.574 1087.1 291.032 1089.47 291.475C1089.51 295.053 1089.2 306.275 1089.67 309.115C1087.14 309.591 1084.96 309.507 1082.57 309.885C1082.26 308.539 1082.38 292.682 1082.38 290.102Z" fill="#FEFEFF"/>
<path d="M985.511 311.677C988.521 308.496 1004.03 300.794 1008.53 298.475C1015.94 294.667 1029.28 288.101 1037.3 287.065C1038.11 287.501 1040.06 287.462 1041.08 287.509C1042.23 287.221 1046.1 287.071 1047.51 286.992L1047.44 304.777C1047.43 305.669 1047.36 311.282 1047.48 311.899L1048.56 312.752C1047.3 312.814 1045.98 312.824 1044.72 312.852C1043.84 312.955 1043.31 313.049 1042.42 312.972L1041.87 313.167C1039.57 312.96 1036.22 313.23 1033.81 313.392C1023.82 314.061 1013.78 314.257 1003.81 315.074C1002.05 315.218 999.438 317.137 997.663 317.581C993.873 318.216 986.813 318.86 983.103 318.966C982.483 318.101 978.418 319.563 977.829 317.342C978.925 315.088 984.836 313.574 985.511 311.677Z" fill="#080717"/>
<path d="M1047.51 286.992L1047.44 304.777C1047.43 305.669 1047.36 311.282 1047.48 311.899L1048.56 312.752C1047.29 312.814 1045.98 312.824 1044.72 312.852C1043.21 312.79 1042.77 312.782 1041.27 312.403C1040.64 310.34 1041.1 291.368 1041.08 287.509C1042.23 287.221 1046.1 287.071 1047.51 286.992Z" fill="#FEFEFF"/>
<path d="M1041.27 312.402C1043.39 312.286 1045.38 312.204 1047.48 311.898L1048.56 312.751C1047.3 312.813 1045.98 312.824 1044.72 312.852C1043.21 312.79 1042.77 312.782 1041.27 312.402Z" fill="#080717"/>
<path d="M991.93 310.882C994.325 310.729 1002.2 310.672 1002.15 314.005C1001.12 315.706 998.4 316.357 996.532 316.838C993.572 317.241 986.599 317.943 985.696 314.028C986.099 311.689 989.943 311.091 991.93 310.882Z" fill="#FEFEFF"/>
<path d="M871.703 322.299C873.689 321.701 880.033 321.897 882.414 321.895L908.644 322.128C909.153 322.129 913.278 322.479 912.975 322.572C917.945 321.043 937.304 313.448 941.665 314.257C934.302 316.151 914.803 320.954 909.746 325.577C915.797 324.259 941.766 322.048 946.31 325.191C946.578 325.376 946.614 325.468 946.772 325.706C946.764 327.208 944.678 329.659 943.545 330.812C939.985 334.44 936.558 334.648 931.982 334.806C922.465 335.136 912.263 332.346 902.964 332.46C901.292 335.082 900.98 336.996 900.544 340.042C899.988 339.353 899.912 339.068 899.578 338.268C899.944 337.222 900.418 335.353 900.823 334.473C902.893 329.986 908.206 325.955 911.962 322.772C908.819 322.413 902.835 322.53 899.382 322.479C890.157 322.35 880.93 322.29 871.703 322.299Z" fill="#080717"/>
<path d="M926.899 324.969C931.807 324.824 941.009 324.438 945.416 325.837C941.235 335.415 932.396 333.608 923.832 333.267C917.435 332.724 911.074 331.891 904.675 331.23C910.914 324.367 917.958 325.4 926.899 324.969Z" fill="#FEFEFF"/>
<path d="M985.511 311.678C984.836 313.574 978.924 315.088 977.829 317.342C978.418 319.563 982.483 318.101 983.103 318.966C982.204 319.032 982.569 318.867 981.925 319.362C981.053 321.41 980.932 324.147 980.639 326.352C979.507 334.864 979.916 347.48 982.802 355.589C984.876 355.633 986.93 355.617 989.004 355.55C1006.57 354.978 1024.31 355.474 1041.87 354.812C1041.8 341.08 1041.64 326.873 1041.87 313.167L1042.42 312.972C1042.8 314.785 1042.65 323.639 1042.65 326.059L1042.66 354.87L1062.48 354.587C1066.25 354.55 1071.21 354.664 1074.87 354.299C1075.26 353.833 1075.26 353.872 1075.43 353.294C1075.62 354.417 1075.75 353.973 1075.34 354.774C1075.14 354.816 1073.63 355.095 1073.57 355.117C1072.35 355.299 1071.19 355.275 1069.96 355.295C1062.84 355.411 1055.72 355.404 1048.61 355.595L1010.22 356.303C1001.06 356.48 991.55 356.862 982.412 356.762C978.089 346.139 978.892 330.228 981.18 319.137C979.625 318.994 977.384 319.135 977.463 317.073C978.56 315.143 983.3 312.909 985.511 311.678Z" fill="#080717"/>
<path d="M1037.3 287.065C1040.09 286.398 1045.38 286.26 1048.25 286.304L1048.32 286.696L1047.51 286.993C1046.1 287.072 1042.23 287.222 1041.08 287.51C1040.06 287.463 1038.11 287.501 1037.3 287.065Z" fill="#080717"/>
<path d="M1132.12 347.035L1131.94 348.291C1130.4 349.692 1128.3 351.923 1126.39 352.393L1126.06 352.184C1126.36 351.071 1130.31 348.684 1131.79 347.335L1132.12 347.035Z" fill="#080717"/>
<path d="M1128.37 340.4C1129.77 340.882 1131.15 341.4 1132.61 341.67L1132.49 342.264C1130.97 341.856 1129.69 341.377 1128.21 340.836L1128.37 340.4Z" fill="#343437"/>
<path d="M833.652 236.206C837.687 234.789 842.612 232.846 846.904 232.442C863.93 230.835 882.71 232.623 898.898 238.237C903.139 239.708 902.014 244.241 904.474 247.798C903.817 250.708 903.381 253.14 902.907 256.081C901.894 255.841 900.843 255.611 899.844 255.331C898.323 253.823 897.456 252.637 896.079 251.111C897.107 253.776 897.286 254.202 899.382 256.146C902.372 256.827 904.224 257.269 907.05 258.44C905.533 258.641 904.13 258.766 902.608 258.895C894.568 259.889 888.338 263.308 880.934 265.948L880.204 266.167C877.478 267.61 874.225 268.846 871.373 270.158C867.687 271.853 863.884 273.786 860.053 275.087L860.075 276.032C857.298 276.75 854.47 277.904 851.685 278.683C847.106 279.963 837.298 282.294 833.37 284.626L833.13 284.838C834.779 285.489 836.069 285.019 837.588 285.404C828.675 285.613 828.549 286.511 822.34 292.964C822.194 291.792 822.811 292.399 823.251 290.85L823.955 289.273C823.324 287.445 803.829 290.292 801.344 288.151L801.318 288.511L801.142 288.463C801.147 287.113 800.986 284.624 801.57 283.579C801.699 280.252 799.484 276.705 797.085 274.513C791.246 269.179 781.379 270.19 776.385 276.158C775.246 277.52 773.203 280.804 773.333 282.644L773.544 283.146L773.062 283.699C772.927 284.934 772.901 285.501 773.229 286.714C773.794 287.522 773.577 287.075 773.702 288.205C770.777 286.85 757.778 288.152 753.934 287.003C753.25 286.798 752.2 286.342 751.98 285.616C750.039 279.219 751.831 270.467 754.111 264.451C755.408 260.779 758.891 259.385 761.988 257.825C770.143 253.717 779.962 254.355 788.179 252.029C793.007 250.663 800.175 246.57 804.996 244.432C812.117 241.275 819.047 238.397 826.276 235.463L827.531 234.757C829.462 234.517 831.707 233.886 833.628 233.403C834.131 233.516 834.44 233.585 834.936 233.738L835.368 234.464C835.003 235.222 834.443 235.597 833.619 235.838L833.652 236.206Z" fill="#FEFEFF"/>
<path d="M846.236 251.166C846.295 252.395 846.08 252.58 846.693 253.33L847.641 253.454L850.308 253.663C852.316 253.854 873.189 252.926 875.234 252.482C876.478 252.444 877.899 252.438 879.124 252.333C879.568 252.208 880.29 252.226 880.782 252.209C880.643 253.96 880.463 264.824 880.934 265.949L880.204 266.168C877.477 267.611 874.225 268.847 871.373 270.158C867.687 271.854 863.883 273.787 860.052 275.088L860.074 276.033C857.298 276.751 854.47 277.904 851.685 278.683C847.105 279.964 837.298 282.294 833.37 284.626L833.13 284.839C834.778 285.49 836.069 285.019 837.588 285.405C828.675 285.613 828.548 286.512 822.34 292.964C822.193 291.792 822.811 292.399 823.251 290.851L823.955 289.273C823.324 287.446 803.829 290.293 801.344 288.152L801.318 288.511L801.142 288.464C801.147 287.114 800.986 284.624 801.569 283.579C801.692 284.671 801.762 285.9 801.851 287.007C809.269 287.002 819.284 287.262 826.801 286.706C827.473 286.656 832.709 284.003 833.779 283.472C829.834 283.687 824.79 283.699 820.801 283.602C816.517 283.499 807.208 284.735 804.726 280.988L805.202 280.767C804.486 278.903 804.654 276.157 804.648 274.097C804.713 271.349 804.713 268.6 804.648 265.853C804.774 263.115 804.696 259.632 804.714 256.834C811.509 256.539 818.628 255.908 825.43 255.465C831.714 255.056 838.436 254.715 844.677 254.099C846.042 253.599 846.202 252.39 846.236 251.166Z" fill="#FEFEFF"/>
<path d="M879.124 252.333C879.568 252.208 880.29 252.226 880.782 252.209C880.643 253.96 880.463 264.824 880.934 265.949L880.204 266.168C877.477 267.611 874.225 268.847 871.373 270.159C867.687 271.854 863.884 273.787 860.052 275.088C855.037 276.833 851.549 278.018 846.407 279.257L846.394 254.052C847.85 254.016 848.882 253.863 850.308 253.663C852.316 253.854 873.189 252.926 875.234 252.482C876.479 252.444 877.9 252.438 879.124 252.333Z" fill="#FEFEFF"/>
<path d="M879.124 252.333C879.569 252.208 880.291 252.226 880.783 252.209C880.644 253.96 880.464 264.824 880.934 265.949L880.204 266.168C880.096 264.003 880.54 253.375 880.038 252.519L879.124 252.333Z" fill="#8E8D90"/>
<path d="M846.236 251.166C846.295 252.395 846.08 252.58 846.693 253.33L847.641 253.454L850.308 253.663C848.882 253.863 847.85 254.016 846.393 254.052L846.407 279.257C851.549 278.017 855.037 276.833 860.052 275.088L860.074 276.033C857.298 276.751 854.47 277.904 851.685 278.683C847.105 279.964 837.298 282.294 833.37 284.626L833.13 284.839C834.778 285.49 836.069 285.019 837.588 285.405C828.675 285.613 828.548 286.512 822.34 292.964C822.193 291.792 822.811 292.399 823.251 290.851L823.955 289.273C823.324 287.446 803.829 290.293 801.344 288.152L801.318 288.511L801.142 288.464C801.147 287.114 800.986 284.624 801.569 283.579C801.692 284.671 801.762 285.9 801.851 287.007C809.269 287.002 819.284 287.262 826.801 286.706C827.473 286.656 832.709 284.003 833.779 283.472C829.834 283.687 824.79 283.699 820.801 283.602C816.517 283.499 807.208 284.735 804.726 280.988L805.202 280.767C805.713 281.313 806.363 281.88 807.045 282.201C809.419 283.318 831.975 283.078 835.471 282.536C838.864 282.01 842.363 280.356 845.659 279.312C845.672 275.841 846.087 256.36 845.402 254.384L844.677 254.099C846.042 253.599 846.202 252.39 846.236 251.166Z" fill="#080717"/>
<path d="M801.344 288.151C803.196 287.79 807.995 287.879 810.073 287.866L826.2 287.779C825.058 288.863 824.296 289.675 823.251 290.851L823.955 289.273C823.324 287.446 803.829 290.293 801.344 288.151Z" fill="#F8F7FE"/>
<path d="M850.298 235.46C853.202 234.924 856.575 235.149 859.577 235.184C870.498 235.314 881.53 236.958 892.054 239.857C894.274 240.469 899.108 241.424 899.314 244.083C899.524 246.795 896.909 249.062 895.217 250.895C892.822 251.329 885.012 252.145 882.448 252.134L880.782 252.209C880.291 252.226 879.569 252.208 879.124 252.333C877.9 252.439 876.479 252.445 875.234 252.482C873.19 252.926 852.317 253.854 850.309 253.664L847.642 253.455L846.694 253.33C846.08 252.581 846.295 252.395 846.236 251.166C846.435 246.753 846.226 241.126 846.289 236.552C847.685 236.57 849.122 236.279 850.493 236.026L850.609 235.807L850.298 235.46Z" fill="#080717"/>
<path d="M850.493 236.025L850.477 236.277C850.316 239.06 850.808 251.687 850.093 253.057C849.048 253.359 848.744 253.367 847.642 253.454L846.694 253.33C846.08 252.58 846.295 252.394 846.236 251.166C846.435 246.753 846.226 241.126 846.289 236.551C847.685 236.569 849.122 236.279 850.493 236.025Z" fill="#FEFEFF"/>
<path d="M876.628 237.215C878.349 237.406 879.204 237.571 880.885 237.971C881.179 241.777 881.057 247.444 881.089 251.39C879.642 251.584 878.517 251.701 877.057 251.792C876.01 250.454 876.618 239.585 876.628 237.215Z" fill="#FEFEFF"/>
<path d="M881.089 251.391C881.569 251.636 882.001 251.833 882.448 252.134L880.782 252.209C880.291 252.226 879.569 252.208 879.124 252.333C877.9 252.438 876.479 252.444 875.234 252.482C876.038 252.099 876.237 252.039 877.057 251.793C878.518 251.701 879.642 251.585 881.089 251.391Z" fill="#080717"/>
<path d="M833.545 239.785C835.67 240.138 842.868 236.369 846.288 236.551C846.225 241.126 846.435 246.752 846.236 251.165C846.202 252.39 846.043 253.599 844.677 254.098C838.436 254.715 831.714 255.056 825.431 255.464C818.628 255.907 811.509 256.539 804.714 256.834C804.696 259.631 804.774 263.115 804.649 265.852C804.713 268.6 804.713 271.349 804.649 274.096C804.654 276.156 804.486 278.903 805.202 280.766L804.726 280.987C803.469 278.58 804.081 260.375 804.119 256.539C807.904 251.213 826.856 242.054 833.545 239.785Z" fill="#080717"/>
<path d="M804.649 274.097C804.077 272.413 804.189 267.56 804.649 265.854C804.713 268.601 804.713 271.35 804.649 274.097Z" fill="#343437"/>
<path d="M833.628 233.402C834.131 233.516 834.44 233.585 834.936 233.738L835.368 234.464C835.003 235.222 834.443 235.597 833.619 235.838L833.652 236.206C825.011 239.744 817.017 243.903 808.735 248.165C805.106 250.032 798.509 255.154 795.449 256.139C792.05 255.488 790.969 254.972 787.824 253.484C778.339 254.566 769.186 255.442 760.433 259.619C758.341 260.617 754.747 263.712 754.627 266.054C755.611 268.045 760.827 267.868 763.19 267.959C767.342 268.119 773.285 268.543 777.052 266.512C778.433 265.768 780.989 263.242 781.497 261.779C781.023 259.047 772.489 260.952 770.536 261.371C767.198 262.072 763.958 263.177 760.888 264.662L760.646 264.504C762.146 261.668 780.229 257.223 782.83 260.833C783.445 263.589 776.792 268.503 774.523 268.744C767.738 269.466 760.543 269.273 753.872 267.853C753.066 270.982 751.523 277.74 752.524 280.69C755.115 283.854 768.947 282.633 773.333 282.644L773.544 283.146L773.062 283.699C772.927 284.933 772.901 285.5 773.229 286.714C773.794 287.522 773.577 287.075 773.702 288.205C770.777 286.85 757.778 288.152 753.934 287.002C753.25 286.798 752.2 286.342 751.98 285.616C750.039 279.219 751.831 270.467 754.111 264.45C755.408 260.779 758.891 259.385 761.988 257.825C770.143 253.717 779.962 254.355 788.179 252.029C793.007 250.663 800.175 246.569 804.996 244.432C812.117 241.275 819.047 238.397 826.276 235.463L827.531 234.756C829.462 234.517 831.707 233.885 833.628 233.402Z" fill="url(#paint1_linear_1753_5368)"/>
<path d="M773.229 286.715C770.873 286.796 755.735 286.739 753.235 285.5C752.827 285.298 752.433 283.505 752.568 282.607C753.564 282.396 755.664 283.406 756.667 283.544C761.822 284.253 767.902 283.647 773.062 283.7C772.927 284.935 772.901 285.502 773.229 286.715Z" fill="#FEFEFF"/>
<path d="M833.545 239.785C838.287 237.693 845.136 235.752 850.298 235.459L850.609 235.806L850.493 236.025C849.122 236.279 847.684 236.569 846.288 236.552C842.868 236.369 835.67 240.138 833.545 239.785Z" fill="#080717"/>
<path d="M916.778 279.342L916.545 279.039C917.4 278.592 917.632 278.541 918.546 277.924L918.782 278.46C920.295 278.754 922.274 278.661 923.846 278.66L923.824 278.839C922.994 278.993 922.358 279.074 921.517 279.166L921.366 311.145L945.292 311.297L945.016 311.787C939.626 311.921 934.233 311.988 928.841 311.988C926.713 311.986 922.954 312.069 921 311.904L920.707 312.012C915.366 311.861 909.339 312.012 903.927 312.013L874.07 312.064L874.623 311.047C874.795 308.677 874.626 303.772 874.63 301.179C874.661 294.389 874.658 287.599 874.62 280.808C875.394 280.486 885.164 280.478 886.803 280.426C892.996 280.229 899.306 280.006 905.506 279.727C909.088 279.565 913.291 279.712 916.778 279.342Z" fill="#DB4431"/>
<path d="M916.778 279.342L916.545 279.039C917.4 278.592 917.632 278.541 918.546 277.924L918.782 278.46C920.295 278.754 922.274 278.661 923.846 278.66L923.824 278.839C922.994 278.993 922.358 279.074 921.517 279.166L921.366 311.145L945.292 311.297L945.016 311.787C939.626 311.921 934.233 311.988 928.841 311.988C926.713 311.986 922.954 312.069 921 311.904L920.707 312.012C915.366 311.861 909.339 312.012 903.927 312.013L874.07 312.064L874.623 311.047C879.385 311.201 884.876 311.089 889.686 311.1L920.64 311.116L920.642 279.308C919.287 279.356 918.13 279.361 916.778 279.342Z" fill="#080717"/>
<path d="M860.075 276.033C862.162 277.347 865.544 279.635 867.903 280.031C868.612 280.222 869.072 280.4 869.811 280.361C870.611 280.455 873.472 280.593 873.969 280.739L874.62 280.81C874.658 287.6 874.661 294.39 874.63 301.181C874.626 303.773 874.795 308.678 874.623 311.048L874.07 312.065L903.927 312.014C909.339 312.013 915.365 311.862 920.707 312.014C920.677 312.941 920.791 313.514 920.304 314.089C915.93 314.434 908.625 314.175 903.925 314.16L873.233 314.069C873.402 309.636 872.499 305.542 869.552 302.092C866.912 298.988 863.136 297.075 859.073 296.782C852.562 296.299 846.854 300.327 844.11 306.048C842.871 308.631 842.627 311.046 842.475 313.861C837.18 313.924 830.639 314.284 825.414 313.556C824.605 313.443 822.235 312.504 821.373 312.167L820.504 312.649L819.545 312.224C818.624 311.852 817.399 311.436 817.096 310.469C816.027 307.046 816.495 302.124 817.802 298.992L818.091 298.704L818.629 298.787C818.905 298.37 820.514 295.064 820.861 294.393C825.586 294.374 845.209 293.805 848.511 291.877C849.845 291.098 852.238 289.212 852.438 287.54C852.517 286.885 852.259 286.474 851.808 286.034C849.617 283.894 836.86 284.526 833.371 284.627C837.299 282.295 847.106 279.964 851.686 278.684C854.47 277.905 857.298 276.752 860.075 276.033Z" fill="#DB4431"/>
<path d="M817.802 298.992L818.091 298.703L818.629 298.786L817.608 301.859L833.638 301.854C836.775 301.855 840.991 301.743 844.009 302.141L843.962 302.324C840.583 303.05 835.888 302.754 832.328 302.751L817.639 302.804C817.601 305.225 817.504 307.883 817.607 310.284C819.169 311.265 819.65 311.496 821.373 312.166L820.504 312.648L819.545 312.223C818.624 311.852 817.399 311.436 817.096 310.468C816.027 307.046 816.495 302.123 817.802 298.992Z" fill="#080717"/>
<path d="M873.968 280.738L874.62 280.809C874.657 287.599 874.66 294.389 874.63 301.18C874.626 303.772 874.795 308.678 874.623 311.047L874.07 312.065C873.772 307.338 873.856 302.022 873.867 297.249C873.878 291.816 873.797 286.146 873.968 280.738Z" fill="#080717"/>
<path d="M814.04 321.975C825.055 321.797 836.072 321.806 847.086 322C855.834 328.565 860.414 328.386 869.294 322.277L869.418 322.382C870.238 322.165 870.831 322.271 871.703 322.299C880.929 322.29 890.156 322.35 899.382 322.479C902.834 322.53 908.818 322.413 911.961 322.772C908.205 325.955 902.892 329.986 900.823 334.473C900.418 335.353 899.944 337.222 899.578 338.268C895.381 337.878 884.892 338.226 880.183 338.207C865.792 338.099 851.4 338.075 837.008 338.136C833.024 335.564 828.752 332.302 824.761 329.599C822.446 328.03 815.874 323.701 814.04 321.975Z" fill="#FEFEFF"/>
<path d="M975.134 359.203C975.434 359.784 975.685 360.628 976.269 360.667C979.167 360.856 982.655 360.728 985.532 360.684L1004.12 360.452C1028.35 360.101 1052.58 359.889 1076.81 359.818C1077.42 362.074 1077.93 363.796 1079.04 365.875C1066.59 366.126 1053.54 365.871 1041.01 365.905L972.319 366.084C973.489 363.484 974.214 361.939 975.134 359.203Z" fill="#FEFEFF"/>
<path d="M780.2 299.156C788.915 298.856 797.634 298.717 806.355 298.739C808.956 298.735 815.392 298.605 817.802 298.992C816.495 302.123 816.027 307.045 817.097 310.468C817.399 311.436 818.624 311.852 819.545 312.223C817.775 312.926 801.58 312.628 798.893 312.628C793.34 307.932 786.13 303.735 780.2 299.156Z" fill="#FEFEFF"/>
<path d="M837.589 285.406C840.956 285.426 848.617 285.177 851.353 286.59C852.313 288.237 849.168 290.321 847.969 290.942C846.954 291.465 845.866 291.832 844.741 292.03C842.024 292.501 824.24 293.56 822.341 292.965C828.549 286.513 828.676 285.614 837.589 285.406Z" fill="#FEFEFF"/>
<path d="M945.016 311.787L945.619 312.284C941.054 314.139 926.439 314.749 921.413 314.068C920.921 313.469 921.068 312.868 921 311.904C922.954 312.069 926.713 311.986 928.841 311.988C934.233 311.988 939.626 311.921 945.016 311.787Z" fill="#DB4431"/>
<path d="M979.02 383.32L1095.04 383.182L1119.77 383.205C1122.24 383.217 1129.36 383.125 1131.44 383.628C1133.19 384.056 1139.42 388.226 1141.37 389.41C1146.96 392.802 1152.47 396.355 1158.17 399.611C1148.08 399.898 1137.42 399.636 1127.29 399.597L1080.7 399.566L971.647 399.516C956.709 399.492 939.529 399.896 924.818 399.328C920.582 396.442 916.321 393.594 912.035 390.783C908.633 388.586 904.424 386.048 901.345 383.465L979.02 383.32Z" fill="#FEFEFF"/>
<path d="M859.069 350.948C872.575 350.872 886.081 350.867 899.587 350.933C899.599 352.585 899.304 355.112 900.497 356.445C903.569 359.878 930.633 361.127 936.186 361.547C937.013 362.871 937.828 364.202 938.63 365.542C932.143 365.781 924.98 365.707 918.473 365.732C905.745 365.788 893.017 365.74 880.29 365.588C873.631 360.209 865.882 356.175 859.069 350.948Z" fill="#FEFEFF"/>
<path d="M952.324 342.524C956.94 341.826 961.573 343.673 964.443 347.355C967.313 351.037 967.973 355.981 966.168 360.287C964.365 364.592 960.378 367.589 955.741 368.126C948.742 368.936 942.385 363.988 941.453 357.004C940.521 350.021 945.357 343.578 952.324 342.524Z" fill="#FEFEFF"/>
<path d="M952.616 352.02C957.733 351.787 959.047 356.305 954.596 358.845C949.909 359.108 947.927 354.564 952.616 352.02Z" fill="#080717"/>
<path d="M780.325 289.933C776.502 289.818 773.971 285.914 777.544 283.115C777.749 283.772 777.632 283.576 778.019 284.123C778.401 282.739 778.804 280.797 779.598 279.579C782.524 275.091 789.037 274.716 793.261 277.471C794.251 278.117 794.601 278.61 794.767 279.756C796.67 282.333 797.03 285.738 795.706 288.656C794.382 291.573 791.583 293.546 788.39 293.811C785.198 294.076 782.111 292.592 780.325 289.933Z" fill="#FEFEFF"/>
<path d="M780.325 289.933C776.502 289.818 773.971 285.914 777.544 283.115C777.749 283.772 777.632 283.576 778.019 284.123C778.401 282.739 778.804 280.797 779.598 279.579C782.524 275.091 789.037 274.716 793.261 277.471C794.251 278.117 794.601 278.61 794.767 279.756C791.913 275.892 786.496 275.016 782.569 277.783C778.644 280.549 777.647 285.945 780.325 289.933Z" fill="#080717"/>
<path d="M786.664 281.761C788.347 281.386 790.018 282.437 790.409 284.116C790.801 285.795 789.766 287.476 788.09 287.884C786.392 288.297 784.683 287.246 784.286 285.543C783.889 283.841 784.958 282.141 786.664 281.761Z" fill="#080717"/>
<path d="M786.57 282.984C787.272 282.687 788.081 282.799 788.677 283.276C789.272 283.754 789.558 284.519 789.421 285.269C789.284 286.019 788.747 286.635 788.021 286.871C786.964 287.215 785.822 286.665 785.434 285.623C785.044 284.581 785.546 283.418 786.57 282.984Z" fill="#FEFEFF"/>
<path d="M855.985 302.734C860.944 301.514 865.95 304.555 867.152 309.519C868.354 314.482 865.293 319.477 860.326 320.66C855.384 321.837 850.421 318.796 849.226 313.859C848.031 308.922 851.053 303.948 855.985 302.734Z" fill="#FEFEFF"/>
<path d="M857.044 308.14C858.268 307.703 859.631 307.958 860.615 308.807C861.598 309.656 862.049 310.968 861.795 312.242C861.542 313.515 860.623 314.555 859.389 314.963C857.513 315.582 855.487 314.578 854.845 312.71C854.203 310.841 855.183 308.804 857.044 308.14Z" fill="#080717"/>
<path d="M857 313.721C855.818 313.04 855.411 311.53 856.092 310.348C856.773 309.166 858.283 308.76 859.465 309.442C860.645 310.123 861.05 311.632 860.37 312.813C859.69 313.993 858.182 314.4 857 313.721Z" fill="#FEFEFF"/>
<path d="M857 313.721C855.818 313.04 855.411 311.53 856.092 310.348C856.773 309.166 858.283 308.76 859.465 309.442C856.571 311.163 858.243 311.151 857 313.721Z" fill="#F8F7FE"/>
<path d="M900.763 353.82C907.839 355.317 915.01 356.326 922.225 356.84C925.188 357.067 932.323 357.13 934.837 357.714C935.317 358.325 935.345 359.46 935.449 360.293C926.864 359.708 910.255 358.898 901.701 356.103C901.109 355.91 900.916 354.514 900.763 353.82Z" fill="#FEFEFF"/>
<path d="M774.967 289.963C776.209 290.233 781.652 294.813 782.935 295.976C780.366 295.954 775.828 292.209 774.967 289.963Z" fill="#080717"/>
<path d="M744.947 28.0189C745.194 27.3327 745.739 26.017 746.421 25.9121C751.951 25.0601 760.685 25.4685 766.141 25.4925L790.875 25.4633L818.815 25.4071C822.737 25.3958 833.44 24.947 836.656 25.8773C837.994 27.2017 837.762 28.2425 837.773 30.1727L837.839 232.626C842.071 232.185 846.395 231.646 850.631 231.328C861.512 230.512 873.06 231.353 883.756 233.409C883.227 197.73 883.602 161.33 883.626 125.598L883.572 87.4499C883.558 80.7674 883.47 74.0475 883.622 67.3675C883.693 64.2834 884.978 64.029 887.702 64.0091C915.467 63.8069 943.237 64.027 971.003 63.9937C972.41 63.9922 974.015 63.9917 975.342 64.4793C975.842 65.052 976.206 65.4757 976.227 66.2811C976.387 72.3721 976.326 78.7154 976.329 84.7956L976.32 122.422L976.34 234.281C983.142 234.282 990.458 234.147 997.217 234.318L997.297 234.936C993.222 234.834 988.897 234.789 984.827 234.854C962.131 235.22 939.204 234.364 916.531 234.877L916.52 257.055C913.674 257.063 910.828 257.05 907.983 257.014C907.957 252.684 907.961 248.355 907.995 244.025C908.014 241.441 908.141 237.555 907.889 235.092C905 235.568 896.185 235.228 892.68 235.36C894.557 235.934 901.47 237.879 902.105 239.514C903.282 242.541 903.141 244.366 905.338 247.421C904.356 250.798 904.269 253.034 903.632 256.331C904.879 256.77 909.182 258.648 909.732 258.751L910.57 258.928C909.461 258.96 903.262 259.08 902.608 258.895C904.131 258.766 905.533 258.641 907.05 258.44C904.224 257.268 902.372 256.827 899.382 256.146C897.286 254.202 897.107 253.775 896.079 251.11C897.456 252.637 898.324 253.822 899.844 255.33C900.843 255.611 901.894 255.841 902.907 256.081C903.381 253.14 903.817 250.708 904.474 247.797C902.015 244.241 903.139 239.708 898.898 238.237C882.71 232.622 863.93 230.835 846.905 232.441C842.612 232.846 837.687 234.789 833.653 236.206L833.619 235.838C834.443 235.597 835.003 235.221 835.368 234.464L834.936 233.737C834.44 233.585 834.132 233.516 833.628 233.402C831.707 233.885 829.463 234.517 827.531 234.756L826.276 235.463C821.44 234.935 811.207 235.373 805.945 235.365L763.734 235.31C763.727 238.059 764.009 253.9 763.328 255.192C762.479 255.403 762.881 255.441 762.082 255.059C760.987 253.334 761.227 246.214 761.414 244.008C761.197 241.6 761.3 237.799 761.294 235.288C756.636 235.287 722.644 235.744 721.079 234.924C720.796 234.573 720.519 234.216 720.249 233.856C717.884 230.697 715.991 225.778 714.73 222.03C708.16 202.509 706.898 178.288 709.832 157.947C712.89 138.135 720.728 119.365 732.667 103.261C736.382 98.1945 739.382 94.2276 744.458 90.4322C744.467 88.9543 744.407 87.9509 744.751 86.5006C744.945 82.2324 744.785 76.8379 744.788 72.4463C744.756 61.8322 744.783 51.2176 744.869 40.6041C744.907 37.8342 744.661 30.2305 744.947 28.0189Z" fill="#FEFEFF"/>
<path d="M744.947 28.0189C745.194 27.3327 745.739 26.017 746.421 25.9121C751.951 25.0601 760.685 25.4685 766.141 25.4925L790.875 25.4633L818.815 25.4071C822.737 25.3958 833.44 24.947 836.656 25.8773C837.994 27.2017 837.762 28.2425 837.774 30.1727L837.84 232.626C842.071 232.185 846.396 231.646 850.631 231.328C861.512 230.512 873.06 231.353 883.756 233.409C883.227 197.73 883.602 161.33 883.626 125.598L883.572 87.4499C883.558 80.7674 883.47 74.0475 883.623 67.3675C883.693 64.2834 884.979 64.029 887.702 64.0091C915.467 63.8069 943.237 64.027 971.003 63.9937C972.41 63.9922 974.015 63.9917 975.342 64.4793C975.842 65.052 976.206 65.4757 976.227 66.2811C976.387 72.3721 976.327 78.7154 976.329 84.7956L976.32 122.422L976.34 234.281C983.142 234.282 990.458 234.147 997.217 234.318L997.297 234.936C993.222 234.834 988.897 234.789 984.827 234.854C962.131 235.22 939.204 234.364 916.531 234.877L916.52 257.055C913.674 257.063 910.829 257.05 907.983 257.014C907.957 252.684 907.961 248.355 907.995 244.025C908.014 241.441 908.142 237.555 907.889 235.092C905 235.568 896.185 235.228 892.68 235.36C894.557 235.934 901.47 237.879 902.105 239.514C903.282 242.541 903.141 244.366 905.338 247.421C904.356 250.798 904.269 253.034 903.632 256.331C904.879 256.77 909.182 258.648 909.732 258.751L910.57 258.928C909.461 258.96 903.262 259.08 902.608 258.895C904.131 258.766 905.533 258.641 907.051 258.44C904.224 257.268 902.372 256.827 899.382 256.146C897.286 254.202 897.107 253.775 896.079 251.11C897.456 252.637 898.324 253.822 899.845 255.33C900.843 255.611 901.894 255.841 902.907 256.081C903.382 253.14 903.818 250.708 904.475 247.797C902.015 244.241 903.139 239.708 898.898 238.237C882.71 232.622 863.93 230.835 846.905 232.441C842.612 232.846 837.687 234.789 833.653 236.206L833.619 235.838C834.443 235.597 835.003 235.221 835.368 234.464L834.936 233.737C834.44 233.585 834.132 233.516 833.628 233.402C834.802 233.16 836.034 232.976 837.22 232.781C837.098 213.06 837.082 193.34 837.175 173.62L837.187 88.0947L837.149 48.962C837.139 45.5979 837.456 28.2082 836.426 26.4719C833.775 25.84 827.187 26.0416 824.248 26.0457L806.3 26.0743L764.649 26.1352C759.254 26.1439 752.552 25.7274 747.123 26.3747C746.306 26.4719 745.898 27.1505 745.546 27.8347L744.947 28.0189Z" fill="#FEFEFF"/>
<path d="M744.947 28.0189C745.194 27.3327 745.739 26.017 746.421 25.9121C751.951 25.0601 760.685 25.4685 766.141 25.4925L790.875 25.4633L818.815 25.4071C822.737 25.3958 833.44 24.947 836.656 25.8773C837.994 27.2017 837.762 28.2425 837.774 30.1727L837.84 232.626C842.071 232.185 846.396 231.646 850.631 231.328C861.512 230.512 873.06 231.353 883.756 233.409C883.227 197.73 883.602 161.33 883.626 125.598L883.572 87.4499C883.558 80.7674 883.47 74.0475 883.623 67.3675C883.693 64.2834 884.979 64.029 887.702 64.0091C915.467 63.8069 943.237 64.027 971.003 63.9937C972.41 63.9922 974.015 63.9917 975.342 64.4793C975.842 65.052 976.206 65.4757 976.227 66.2811C976.387 72.3721 976.327 78.7154 976.329 84.7956L976.32 122.422L976.34 234.281C983.142 234.282 990.458 234.147 997.217 234.318L997.297 234.936C993.222 234.834 988.897 234.789 984.827 234.854C962.131 235.22 939.204 234.364 916.531 234.877L916.213 234.44C918.758 234.046 931.306 234.282 934.388 234.281L975.622 234.263L975.646 110.663L975.648 81.6951C975.65 77.9764 975.923 68.043 975.119 65.0141C973.582 64.3765 967.826 64.6042 965.81 64.6129L949.517 64.6283C929.151 64.6206 908.747 64.5858 888.38 64.5812C887.401 64.5807 885.499 64.5822 884.734 65.1246C883.887 68.7635 884.153 79.0848 884.151 83.4529L884.184 117.709L884.173 193.502C884.193 206.651 884.026 220.478 884.41 233.571C891.83 235.029 901.214 234.544 909.018 234.571C908.686 234.704 908.134 234.88 907.889 235.092C905 235.568 896.185 235.228 892.68 235.36C894.557 235.934 901.47 237.879 902.105 239.514C903.282 242.541 903.141 244.366 905.338 247.421C904.356 250.798 904.269 253.034 903.632 256.331C904.879 256.77 909.182 258.648 909.732 258.751L910.57 258.928C909.461 258.96 903.262 259.08 902.608 258.895C904.131 258.766 905.533 258.641 907.051 258.44C904.224 257.268 902.372 256.827 899.382 256.146C897.286 254.202 897.107 253.775 896.079 251.11C897.456 252.637 898.324 253.822 899.845 255.33C900.843 255.611 901.894 255.841 902.907 256.081C903.382 253.14 903.818 250.708 904.475 247.797C902.015 244.241 903.139 239.708 898.898 238.237C882.71 232.622 863.93 230.835 846.905 232.441C842.612 232.846 837.687 234.789 833.653 236.206L833.619 235.838C834.443 235.597 835.003 235.221 835.368 234.464L834.936 233.737C834.44 233.585 834.132 233.516 833.628 233.402C834.802 233.16 836.034 232.976 837.22 232.781C837.098 213.06 837.082 193.34 837.175 173.62L837.187 88.0947L837.149 48.962C837.139 45.5979 837.456 28.2082 836.426 26.4719C833.775 25.84 827.187 26.0416 824.248 26.0457L806.3 26.0743L764.649 26.1352C759.254 26.1439 752.552 25.7274 747.123 26.3747C746.306 26.4719 745.898 27.1505 745.546 27.8347L744.947 28.0189Z" fill="#080717"/>
<path d="M975.865 97.7812C976.341 98.6599 976.124 119.345 976.121 122.088C975.644 121.209 975.861 100.524 975.865 97.7812Z" fill="#343437"/>
<path d="M910.869 228.643C911.08 230.311 911.186 232.045 911.314 233.726C911.661 234.182 911.428 234.006 912.054 234.194C913.836 232.76 912.542 227.809 913.422 225.436C913.488 228.445 913.512 231.456 913.493 234.467C914.261 234.475 915.486 234.528 916.213 234.442L916.531 234.879L916.52 257.057C913.674 257.065 910.828 257.052 907.983 257.016C907.957 252.686 907.961 248.356 907.995 244.027C908.014 241.443 908.141 237.557 907.889 235.093C908.134 234.882 908.686 234.705 909.018 234.572L910.252 234.502C911.295 233.312 910.807 230.682 910.869 228.643Z" fill="#080717"/>
<path d="M910.684 169.429C911.471 168.56 912.652 168.424 913.346 169.496C913.773 180.128 913.431 192.828 913.454 203.629L913.483 217.977C913.485 219.975 913.599 223.633 913.422 225.436C912.541 227.809 913.836 232.76 912.053 234.194C911.428 234.006 911.66 234.182 911.313 233.726C911.185 232.045 911.079 230.311 910.869 228.643C910.458 224.86 910.86 216.038 910.783 211.898C910.523 198.015 911.27 183.248 910.684 169.429Z" fill="#080717"/>
<path d="M905.878 153.115L906.733 153.275C908.886 153.419 915.485 153.205 916.547 153.395L917.144 153.674C916.716 157.916 916.496 166.596 913.346 169.494C912.653 168.423 911.472 168.559 910.684 169.428C907.972 168.282 907.799 166.264 907.363 163.535C906.811 160.077 906.401 156.582 905.878 153.115Z" fill="#FEFEFF"/>
<path d="M905.878 153.115L906.733 153.275C906.55 155.437 907.902 167.327 910.319 168.352C915.818 170.684 916.209 157.321 916.547 153.395L917.144 153.674C916.716 157.916 916.496 166.596 913.346 169.494C912.653 168.423 911.472 168.559 910.684 169.428C907.972 168.282 907.799 166.264 907.363 163.535C906.811 160.077 906.401 156.582 905.878 153.115Z" fill="#080717"/>
<path d="M902.59 152.377C909.792 147.988 912.271 147.224 919.663 152.103L919.678 152.491C918.457 153.082 917.505 152.853 917.144 153.673L916.547 153.395C915.485 153.205 908.887 153.418 906.733 153.275L905.878 153.115C904.756 152.892 903.687 152.704 902.59 152.377Z" fill="#080717"/>
<path d="M744.458 90.4335C744.467 88.9556 744.407 87.9522 744.751 86.502L744.777 138.299C744.78 145.419 744.406 158.569 745.05 165.217C744.649 171.135 744.24 172.258 744.524 178.358C738.011 186.167 734.687 193.146 736.202 203.668C737.238 210.855 740.139 214.563 744.821 219.806C744.749 224.792 744.737 229.779 744.786 234.765C739.659 234.798 734.531 234.803 729.404 234.782C727.485 234.778 722.803 234.669 721.079 234.925C720.796 234.574 720.519 234.218 720.249 233.858C717.884 230.698 715.991 225.779 714.73 222.031C708.16 202.51 706.898 178.289 709.832 157.949C712.89 138.136 720.728 119.367 732.667 103.263C736.382 98.1958 739.382 94.2289 744.458 90.4335Z" fill="#F7F7F7"/>
<path d="M745.669 164.406C748.248 159.241 751.641 154.995 757.364 153.156C767.191 149.997 776.497 156.702 779.042 166.213C780.269 170.609 780.134 173.767 780.133 178.192C783.336 181.393 785.425 184.032 787.033 188.324C793.348 205.19 782.351 224.421 763.838 225.668L763.65 225.112C763.277 224.852 763.068 224.729 763.003 224.195C762.204 217.645 763.754 208.151 762.487 201.939C761.715 203.879 762.651 220.965 762.078 224.12C761.96 224.769 761.751 224.718 761.116 225.105L761.221 225.655C761.446 227.401 761.315 232.748 761.308 234.717C761.735 236.225 761.651 242.497 761.414 244.008C761.197 241.6 761.3 237.8 761.295 235.289C756.636 235.287 722.644 235.744 721.079 234.925C722.803 234.668 727.485 234.777 729.404 234.781C734.532 234.802 739.659 234.797 744.786 234.764C744.738 229.778 744.749 224.791 744.821 219.805C740.139 214.562 737.238 210.854 736.203 203.667C734.687 193.145 738.011 186.167 744.524 178.357C744.241 172.257 744.649 171.134 745.05 165.216C745.233 165.018 745.499 164.635 745.669 164.406Z" fill="#FEFEFF"/>
<path d="M745.298 220.182C750.516 223.849 754.921 225.304 761.22 225.657C761.445 227.402 761.314 232.749 761.307 234.718C756.097 234.705 750.626 234.858 745.446 234.643C745.137 230.872 745.328 224.203 745.298 220.182Z" fill="#FEFEFF"/>
<path d="M745.669 164.406C748.248 159.241 751.641 154.995 757.364 153.156C767.191 149.997 776.497 156.702 779.042 166.213C780.269 170.609 780.134 173.767 780.133 178.192C783.336 181.393 785.425 184.032 787.033 188.324C793.348 205.19 782.351 224.421 763.838 225.668L763.65 225.112C770.108 224.099 775.188 222.541 780.011 217.911C785.132 212.904 788.088 206.09 788.247 198.929C788.365 190.314 785.365 184.466 779.566 178.445C779.551 176.926 779.526 175.409 779.491 173.89C779.339 167.581 777.779 161.757 773.069 157.309C766.388 150.999 756.401 151.644 750.287 158.446C744.433 164.961 744.79 170.667 745.106 178.836C743.977 180.043 742.762 181.3 741.776 182.62C731.677 196.139 736.068 217.264 752.452 223.415C755.382 224.515 758.078 224.782 761.116 225.105L761.221 225.655C754.921 225.303 750.517 223.848 745.298 220.18C745.329 224.202 745.138 230.871 745.446 234.642C750.626 234.857 756.098 234.704 761.308 234.717C761.735 236.225 761.651 242.497 761.414 244.008C761.197 241.6 761.3 237.8 761.295 235.289C756.636 235.287 722.644 235.744 721.079 234.925C722.803 234.668 727.485 234.777 729.404 234.781C734.532 234.802 739.659 234.797 744.786 234.764C744.738 229.778 744.749 224.791 744.821 219.805C740.139 214.562 737.238 210.854 736.203 203.667C734.687 193.145 738.011 186.167 744.524 178.357C744.241 172.257 744.649 171.134 745.05 165.216C745.233 165.018 745.499 164.635 745.669 164.406Z" fill="#080717"/>
<path d="M761.116 225.105C761.751 224.719 761.96 224.769 762.078 224.12C762.651 220.966 761.715 203.879 762.487 201.939C763.754 208.152 762.204 217.646 763.003 224.196C763.068 224.729 763.277 224.852 763.65 225.112L763.839 225.668C763.645 228.463 763.722 231.856 763.764 234.697C784.957 235.009 806.322 234.597 827.532 234.757L826.276 235.464C821.441 234.936 811.207 235.374 805.945 235.366L763.735 235.311C763.728 238.06 764.009 253.901 763.328 255.193C762.479 255.404 762.882 255.442 762.082 255.06C760.988 253.334 761.228 246.215 761.415 244.008C761.651 242.497 761.735 236.226 761.308 234.717C761.315 232.748 761.446 227.402 761.221 225.656L761.116 225.105Z" fill="#080717"/>
<path d="M745.546 27.8359C745.288 31.1074 745.443 35.9948 745.439 39.3829L745.348 57.312L745.264 115.343L745.307 150.012C745.314 152.144 745.219 162.853 745.669 164.407C745.499 164.636 745.233 165.019 745.05 165.217C744.406 158.569 744.78 145.419 744.777 138.299L744.751 86.5019C744.945 82.2337 744.785 76.8392 744.788 72.4476C744.756 61.8335 744.783 51.2189 744.869 40.6054C744.907 37.8354 744.661 30.2318 744.947 28.0202L745.546 27.8359Z" fill="#6C6C72"/>
<path d="M1048.14 167.915C1047.16 165.562 1047.53 154.911 1047.54 151.577L1047.51 125.539L1047.46 110.271C1047.43 107.099 1047.12 99.827 1047.85 97.0453C1048.79 96.6457 1049.83 96.5884 1050.85 96.5919C1069.12 96.6508 1087.4 96.6094 1105.66 96.6242L1125.36 96.6058C1128.09 96.595 1138.54 96.0853 1140.02 97.5013C1140.95 99.8188 1140.39 142.141 1140.35 148.052C1140.48 154.241 1140.36 160.732 1140.33 166.939C1140.32 170.055 1140.45 175.662 1140.18 178.605L1140.27 234.689C1142 234.705 1155.48 234.566 1156.12 235.068C1153.87 235.499 1146.8 235.24 1144.09 235.29C1133.74 235.483 1123.06 234.957 1112.74 235.094C1112.81 236.872 1113.14 246.861 1112.32 247.601C1111.45 247.698 1111.09 247.776 1110.2 247.658C1109.46 246.149 1110.14 237.399 1109.79 234.785C1096.97 235.099 1084.1 234.731 1071.29 234.967C1068.05 235.027 1064.44 237.235 1060.61 237.539L1059.95 237.738C1059.57 238.961 1059.7 242.083 1059.7 243.502L1059.71 256.618C1059.72 258.836 1060.1 264.185 1058.86 265.903L1057.94 265.964C1056.37 263.819 1056.89 258.455 1056.92 255.711L1056.96 243.156C1056.96 241.866 1057.03 238.848 1056.74 237.751C1050.78 239.069 1046.29 235.463 1041.67 235.129C1037.77 234.847 1031.97 234.973 1027.9 234.963L1002.05 234.968L1002.04 234.433C1006.73 234.198 1012.18 234.314 1016.93 234.316C1025.21 234.342 1033.48 234.323 1041.76 234.262C1039.54 232.926 1037.58 231.205 1035.97 229.179C1029.61 221.13 1028.74 209.002 1033.53 199.881C1034.71 197.627 1038.29 194.332 1038.91 192.085C1039.72 189.184 1039.21 185.201 1039.66 181.835C1040.55 175.341 1043.05 171.889 1048.14 167.915Z" fill="#FEFEFF"/>
<path d="M1056.92 237.15C1042.6 237.939 1031.75 228.412 1031.08 213.98C1030.81 207.95 1032.29 201.919 1036.17 197.192C1037.21 195.767 1039.02 193.844 1039.47 192.114C1040.87 186.713 1039.26 181.784 1041.66 176.441C1046.3 166.111 1059.03 162.277 1067.56 170.598C1071.54 174.481 1073.11 179.103 1073.25 184.616C1073.41 186.073 1073.31 188.236 1073.87 189.563C1074.76 191.658 1076.46 193.471 1077.63 195.415C1084.01 206.011 1084.37 220.866 1075.08 229.935C1070.7 234.207 1066.52 235.947 1060.69 237.05L1060.61 237.539L1059.95 237.738C1059.57 238.961 1059.7 242.083 1059.7 243.502L1059.71 256.617C1059.72 258.836 1060.1 264.185 1058.86 265.903L1057.94 265.963C1056.37 263.818 1056.89 258.455 1056.91 255.711L1056.96 243.156C1056.96 241.866 1057.03 238.847 1056.74 237.751L1056.92 237.15Z" fill="#FEFEFF"/>
<path d="M1056.92 237.149C1059.14 234.803 1056.38 217.662 1058.13 215.229C1059.1 218.193 1057.4 235.776 1059.08 236.729C1059.61 237.029 1060.11 237.022 1060.69 237.049L1060.61 237.538L1059.95 237.738C1059.57 238.961 1059.7 242.083 1059.7 243.501L1059.71 256.617C1059.71 258.835 1060.1 264.185 1058.86 265.902L1057.94 265.963C1056.37 263.818 1056.89 258.454 1056.91 255.711L1056.96 243.156C1056.96 241.866 1057.03 238.847 1056.74 237.75L1056.92 237.149Z" fill="#080717"/>
<path d="M1093.05 171.098C1093.16 163.097 1093.02 155.984 1099.15 149.928C1105.39 143.765 1115.88 144.105 1121.75 150.567C1126.55 155.844 1126.4 160.824 1126.28 167.457C1132.53 175.396 1136.37 183.364 1135.11 193.877C1134.32 200.791 1130.8 207.105 1125.35 211.429C1121.28 214.619 1117.11 215.937 1112.04 216.451L1112.7 216.985C1112.78 221.718 1113.05 229.571 1112.74 234.103L1112.74 235.094C1112.81 236.872 1113.14 246.861 1112.32 247.601C1111.45 247.698 1111.09 247.776 1110.2 247.658C1109.46 246.149 1110.14 237.399 1109.79 234.785L1109.89 234.37C1109.92 230.885 1110.2 219.763 1109.8 216.885L1109.84 216.557C1094.1 215.196 1084.09 204.744 1085.24 188.478C1085.81 180.47 1088.84 177.379 1093.05 171.098Z" fill="#FEFEFF"/>
<path d="M1109.84 216.556C1110.64 216.089 1110.92 216.122 1111.08 215.228C1111.61 212.223 1110.69 195.841 1111.51 194.051C1112.4 196.707 1111.87 212.366 1112.04 216.451L1112.7 216.984C1112.78 221.717 1113.05 229.571 1112.74 234.102L1112.74 235.094C1112.81 236.871 1113.14 246.861 1112.32 247.601C1111.45 247.698 1111.08 247.775 1110.2 247.657C1109.46 246.149 1110.14 237.398 1109.79 234.784L1109.89 234.37C1109.92 230.884 1110.2 219.762 1109.8 216.884L1109.84 216.556Z" fill="#080717"/>
<path d="M1048.14 167.915C1047.16 165.562 1047.53 154.911 1047.54 151.577L1047.51 125.539L1047.46 110.271C1047.43 107.099 1047.12 99.827 1047.85 97.0453C1048.79 96.6457 1049.83 96.5884 1050.85 96.5919C1069.12 96.6508 1087.4 96.6094 1105.66 96.6242L1125.36 96.6058C1128.09 96.595 1138.54 96.0853 1140.02 97.5013C1140.95 99.8188 1140.39 142.141 1140.35 148.052C1140.48 154.241 1140.36 160.732 1140.33 166.939C1140.32 170.055 1140.45 175.662 1140.18 178.605L1140.27 234.689C1142 234.705 1155.48 234.566 1156.12 235.068C1153.87 235.499 1146.8 235.24 1144.09 235.29C1133.74 235.483 1123.06 234.957 1112.74 235.094L1112.74 234.103C1114.12 234.978 1136.21 234.673 1139.63 234.65L1139.68 157.297C1139.87 143.589 1139.93 129.88 1139.87 116.171C1139.87 112.455 1140.15 100.205 1139.38 97.446C1136.73 97.0167 1131.34 97.1523 1128.48 97.1523L1110.4 97.1605L1048.02 97.1615L1048.12 142.487L1048.14 158.394C1048.15 161.078 1048.05 165.195 1048.32 167.755C1052.87 165.569 1056.92 164.558 1061.91 166.299C1066.48 167.891 1069.83 171.47 1071.94 175.712C1074.59 181.037 1073.35 183.764 1074.39 189.021C1074.72 190.656 1078 194.226 1078.79 195.863C1082.61 203.786 1084.57 212.491 1081.46 220.968C1079.13 227.326 1075.99 230.872 1070.41 234.258C1083.48 234.349 1096.88 234.128 1109.89 234.37L1109.79 234.785C1096.97 235.099 1084.1 234.731 1071.29 234.967C1068.05 235.027 1064.44 237.235 1060.61 237.539L1060.69 237.05C1066.52 235.947 1070.7 234.207 1075.08 229.935C1084.37 220.866 1084.01 206.011 1077.63 195.416C1076.46 193.471 1074.76 191.659 1073.87 189.563C1073.31 188.236 1073.41 186.073 1073.25 184.616C1073.11 179.104 1071.54 174.482 1067.56 170.598C1059.03 162.277 1046.3 166.112 1041.66 176.441C1039.26 181.784 1040.87 186.713 1039.47 192.114C1039.02 193.845 1037.21 195.767 1036.17 197.192C1032.29 201.92 1030.81 207.95 1031.08 213.98C1031.75 228.412 1042.6 237.939 1056.92 237.15L1056.74 237.751C1050.78 239.069 1046.29 235.463 1041.67 235.129C1037.77 234.847 1031.97 234.973 1027.9 234.963L1002.05 234.968L1002.04 234.433C1006.73 234.198 1012.18 234.314 1016.93 234.316C1025.21 234.342 1033.48 234.323 1041.76 234.262C1039.54 232.926 1037.58 231.205 1035.97 229.179C1029.61 221.13 1028.74 209.002 1033.53 199.881C1034.71 197.627 1038.29 194.332 1038.91 192.085C1039.72 189.184 1039.21 185.201 1039.66 181.835C1040.55 175.341 1043.05 171.889 1048.14 167.915Z" fill="#080717"/>
<path d="M1140.35 148.051C1140.48 154.24 1140.36 160.731 1140.33 166.937C1140.32 170.053 1140.45 175.66 1140.18 178.603C1140.06 177.167 1140.04 175.547 1140.07 174.099C1140.29 165.578 1139.57 156.514 1140.35 148.051Z" fill="#6C6C72"/>
<path d="M1092.37 170.94C1092.54 162.638 1092.58 155.571 1098.91 149.341C1105.28 143.073 1116.1 143.567 1122.09 150.059C1126.92 155.304 1127.19 160.561 1127 167.274C1129.58 170.6 1131.83 173.341 1133.35 177.34C1140.36 195.725 1132.9 213.608 1112.7 216.983L1112.04 216.45C1117.11 215.935 1121.28 214.618 1125.35 211.427C1130.8 207.103 1134.32 200.789 1135.11 193.875C1136.37 183.362 1132.53 175.394 1126.28 167.456C1126.4 160.822 1126.55 155.842 1121.75 150.565C1115.87 144.103 1105.39 143.764 1099.15 149.926C1093.02 155.982 1093.16 163.095 1093.05 171.096C1088.84 177.377 1085.81 180.469 1085.24 188.476C1084.09 204.742 1094.1 215.194 1109.84 216.555L1109.8 216.883C1103.4 217.093 1097.18 214.726 1092.55 210.312C1087.25 205.29 1084.53 199.065 1084.4 191.776C1084.25 183.098 1087.39 177.67 1092.37 170.94Z" fill="#080717"/>
<path d="M1152.22 139.304C1155.5 136.145 1160.59 133.264 1164.88 131.841C1172.52 129.31 1179.03 133.203 1184.64 138.062C1185.14 138.495 1185.35 138.806 1185.31 139.435C1184.28 139.779 1180.51 139.611 1179.13 139.607C1179.12 140.579 1179.17 143.039 1179.07 143.89C1179.39 150.539 1179.34 158.572 1178.9 165.234C1178.77 167.204 1175.46 170.447 1173.9 171.714L1173.91 284.175C1175.4 284.143 1176.89 283.988 1178.29 284.422C1178.97 285.079 1178.91 286.306 1178.92 287.321C1179.03 303.427 1178.85 319.558 1178.83 335.662L1161.98 335.658L1161.96 301.878C1161.98 296.618 1161.8 289.358 1162.12 284.216L1166.21 284.161L1166.14 200.494L1166.02 181.972C1166.01 180.604 1165.93 174.38 1166.16 173.459C1166.31 170.166 1165.38 170.984 1163.13 168.19C1162.47 167.373 1162.03 166.404 1161.84 165.371C1161.45 163.079 1161.52 155.602 1161.56 152.902C1161.6 149.161 1161.35 142.897 1161.69 139.333C1159.05 139.437 1154.86 139.455 1152.22 139.304Z" fill="#080717"/>
<path d="M1161.69 139.332L1162.04 139.211C1162.07 140.203 1162.12 140.82 1162.25 141.804C1162.28 140.937 1162.22 140.45 1162.59 139.661C1163.88 139.282 1176.23 139.556 1178.24 139.642C1177.19 146.481 1179.5 159.964 1177.26 166.833C1176.83 168.147 1174.68 169.734 1173.59 170.726C1172.33 172.206 1168.31 171.764 1166.78 170.91L1166.54 171.101C1166.59 172.139 1166.7 172.753 1166.4 173.727L1166.16 173.458C1166.31 170.165 1165.38 170.983 1163.13 168.189C1162.47 167.372 1162.03 166.403 1161.84 165.37C1161.45 163.078 1161.52 155.601 1161.56 152.9C1161.6 149.16 1161.35 142.896 1161.69 139.332Z" fill="#FEFEFF"/>
<path d="M1161.69 139.332L1162.04 139.211C1162.07 140.203 1162.12 140.82 1162.25 141.804L1162.31 142.324C1162.49 144.048 1162.2 146.132 1162.39 147.715C1163.26 155.025 1158.52 172.115 1171.03 171.013C1171.88 170.931 1172.74 170.835 1173.59 170.726C1172.33 172.206 1168.31 171.764 1166.78 170.91L1166.54 171.101C1166.59 172.139 1166.7 172.753 1166.4 173.727L1166.16 173.458C1166.31 170.165 1165.38 170.983 1163.13 168.189C1162.47 167.372 1162.03 166.403 1161.84 165.37C1161.45 163.078 1161.52 155.601 1161.56 152.9C1161.6 149.16 1161.35 142.896 1161.69 139.332Z" fill="#080717"/>
<path d="M997.42 239.939C997.592 239.35 997.477 239.348 997.821 239.032C998.861 239.9 999.328 240.209 1000.75 239.98C1001.43 239.274 1001.23 239.429 1001.5 238.33L1001.93 239.504C1002.51 240.155 1004.46 240.003 1005.38 240.02C1005.48 250.568 1005.49 261.116 1005.43 271.664L993.996 271.828L994.02 239.955L997.42 239.939Z" fill="#080717"/>
<path d="M998.354 167.922C998.914 167.96 1000.19 168.017 1000.68 168.105L1002.02 168.572C1001.78 183.282 1002.01 198.302 1001.95 213.045L1001.86 227.174C1001.86 228.878 1001.78 232.901 1002.04 234.433L1002.05 234.968C1001.96 236.556 1001.93 237.914 1001.93 239.506L1001.5 238.332C1001.23 239.43 1001.43 239.275 1000.75 239.982C999.328 240.211 998.861 239.902 997.821 239.034C997.477 239.35 997.592 239.352 997.42 239.941C997.413 238.272 997.372 236.604 997.297 234.938L997.217 234.319C997.561 232.661 997.387 219.356 997.393 216.969L997.374 168.332L998.354 167.922Z" fill="#080717"/>
<path d="M989.132 148.014C996.284 141.479 1004.26 140.195 1011.38 147.816C1010.42 147.894 1008.5 147.865 1007.86 148.427L1007.6 149.102C1007.52 151.427 1005.37 165.094 1003.77 167.624C1003.62 167.865 1002.39 168.41 1002.02 168.571L1000.68 168.104C1000.19 168.016 998.913 167.959 998.354 167.921L997.374 168.331C997.113 168.146 996.855 167.959 996.619 167.743C995.063 166.322 993.648 151.411 993.444 148.583C992.33 147.731 990.632 147.978 989.132 148.014Z" fill="#FEFEFF"/>
<path d="M989.132 148.014C996.284 141.479 1004.26 140.195 1011.38 147.816C1010.42 147.894 1008.5 147.865 1007.86 148.427L1007.6 149.102L1007.2 148.376C1006.5 148.032 994.905 147.975 993.932 148.369L993.444 148.583C992.33 147.731 990.632 147.978 989.132 148.014Z" fill="#080717"/>
<path d="M1007.2 148.377L1007.6 149.102C1007.52 151.427 1005.37 165.095 1003.77 167.625C1003.62 167.865 1002.39 168.41 1002.02 168.571L1000.68 168.105C1001.38 167.958 1002.41 167.834 1002.99 167.41C1004.61 166.223 1006.57 151.333 1007.2 148.377Z" fill="#080717"/>
<path d="M993.444 148.583L993.932 148.369L993.985 148.625C995.16 154.514 995.105 160.893 996.843 166.633C996.963 167.029 997.987 167.682 998.354 167.921L997.374 168.331C997.113 168.146 996.855 167.959 996.619 167.743C995.063 166.322 993.648 151.411 993.444 148.583Z" fill="#080717"/>
</g>
</g>
<defs>
<linearGradient id="paint0_linear_1753_5368" x1="1062.8" y1="242.65" x2="954.63" y2="361.322" gradientUnits="userSpaceOnUse">
<stop stop-color="#000106"/>
<stop offset="1" stop-color="#0A0424"/>
</linearGradient>
<linearGradient id="paint1_linear_1753_5368" x1="750.039" y1="281.289" x2="837.065" y2="237.88" gradientUnits="userSpaceOnUse">
<stop stop-color="#010100"/>
<stop offset="1" stop-color="#02012E"/>
</linearGradient>
<clipPath id="clip0_1753_5368">
<rect width="1264" height="461" fill="white"/>
</clipPath>
<clipPath id="clip1_1753_5368">
<rect width="524" height="524" fill="white" transform="translate(687 -40)"/>
</clipPath>
</defs>
</svg>
