<svg width="335" height="385" viewBox="0 0 335 385" fill="none" xmlns="http://www.w3.org/2000/svg">
<g clip-path="url(#clip0_1753_5369)">
<rect width="334" height="385" fill="#F7F7F7"/>
<g clip-path="url(#clip1_1753_5369)">
<rect width="290" height="290" transform="translate(14 137)" fill="#F7F7F7"/>
<path d="M14 137H304V427H14V137Z" fill="#F7F7F7"/>
<path d="M95.1622 289.863C97.3949 289.078 100.12 288.003 102.496 287.779C111.919 286.89 122.312 287.88 131.271 290.987C133.619 291.801 132.996 294.31 134.357 296.278C133.994 297.889 133.753 299.235 133.49 300.862C132.929 300.73 132.348 300.602 131.795 300.447C130.953 299.612 130.473 298.956 129.711 298.111C130.28 299.586 130.379 299.822 131.539 300.898C133.194 301.275 134.219 301.519 135.783 302.168C134.943 302.279 134.167 302.348 133.324 302.419C133.687 302.522 137.117 302.455 137.731 302.438L137.267 302.34C140.119 302.095 142.677 301.576 145.814 301.519C155.028 301.353 166.31 301.719 174.25 306.901C175.894 307.974 176.187 312.112 176.652 314.021C177.437 317.249 178.244 320.333 178.263 323.692C184.124 321.041 189.847 318.104 196.121 316.528C201.119 315.273 206.356 315.075 211.487 315.008C225.169 314.829 238.686 316.279 251.572 321.151C253.05 321.71 254.716 322.556 255.424 324.048C256.633 326.593 254.966 330.133 255.633 332.903C256.056 334.658 257.869 337.575 258.943 339.106C259.592 340.031 260.373 340.951 260.865 341.969C262.167 344.664 260.739 354.495 259.616 357.267C259.581 357.354 259.543 357.441 259.506 357.528C258.03 357.741 256.633 357.917 255.146 358.05C253.884 358.163 252.355 358.157 251.135 358.366C250.894 360.138 250.688 360.764 249.975 362.411C250.512 362.912 253.019 364.315 253.813 364.783C256.111 366.138 258.398 367.51 260.675 368.898L280.373 381.083C285.055 383.946 289.955 386.789 294.553 389.749L157.4 389.801C162.348 393.59 167.65 396.86 172.494 400.558C218.771 434.195 162.597 427.553 157.4 433.088C139.353 439.729 132.078 416.324 119.982 414.271C119.24 414.145 109.454 405.205 108.898 404.797C104.297 401.415 99.9769 397.595 95.5844 393.938L66.8526 369.558L49.3872 354.749L33.4838 341.284C31.3268 339.442 25.181 334.643 23.9555 332.572C22.7764 330.606 22.4322 328.25 22.9997 326.028C23.9654 322.325 27.0276 319.525 30.9423 319.438C33.9007 319.371 36.848 319.386 39.8067 319.381L57.0413 319.354C57.8742 319.352 61.4165 319.458 61.9393 319.149L61.9835 318.641C60.3644 317.891 53.1708 318.612 51.0431 317.975C50.6644 317.862 50.0833 317.61 49.9615 317.208C48.8876 313.668 49.8794 308.824 51.1411 305.494C51.8587 303.462 53.7868 302.691 55.5004 301.828C60.0135 299.554 65.4482 299.907 69.9953 298.62C72.6673 297.864 76.6347 295.598 79.3028 294.415C83.2436 292.668 87.0793 291.075 91.0798 289.452L91.7745 289.06C92.8433 288.928 94.0854 288.578 95.1486 288.311C95.4272 288.374 95.598 288.412 95.8724 288.497L96.1117 288.899C95.9095 289.318 95.5994 289.525 95.1438 289.659L95.1622 289.863Z" fill="#080717"/>
<path d="M137.268 302.339C140.12 302.094 142.678 301.574 145.815 301.518C155.029 301.352 166.311 301.717 174.251 306.899C175.894 307.972 176.188 312.111 176.652 314.02C177.437 317.248 178.245 320.332 178.264 323.691C184.124 321.039 189.847 318.102 196.122 316.526C201.119 315.272 206.356 315.074 211.488 315.006C225.17 314.827 238.687 316.278 251.572 321.15C253.051 321.709 254.716 322.554 255.425 324.047C256.634 326.592 254.967 330.132 255.634 332.902C256.057 334.657 257.87 337.574 258.944 339.105C259.593 340.03 260.374 340.95 260.866 341.967C262.168 344.663 260.739 354.494 259.617 357.266C259.581 357.353 259.544 357.44 259.507 357.526C258.03 357.74 256.634 357.916 255.147 358.049C253.885 358.162 252.355 358.155 251.136 358.365C250.895 360.136 250.689 360.762 249.976 362.409C249.726 362.521 248.901 363.428 248.707 363.669C244.652 368.688 238.177 368.239 233.554 364.312C232.638 363.533 231.949 362.399 230.966 361.625C230.353 360.474 230.07 359.521 229.737 358.273C216.326 358.312 202.916 358.429 189.506 358.624L179.218 358.752C177.626 358.776 175.696 358.847 174.092 358.742C173.769 358.721 173.629 358.254 173.464 357.932L173.404 357.756C173.568 357.343 173.637 356.76 173.712 356.305L173.988 356.149C174.473 342.173 151.405 340.593 151.194 356.341C144.55 356.1 138.891 355.702 132.371 354.355C131.971 351.916 132.033 349.787 132.182 347.328C131.875 346.946 131.833 346.788 131.648 346.346C131.851 345.767 132.113 344.732 132.337 344.246C133.483 341.762 136.423 339.532 138.502 337.77C136.762 337.571 133.45 337.636 131.54 337.608C126.434 337.536 121.328 337.503 116.221 337.508C117.32 337.177 120.831 337.286 122.149 337.285L136.666 337.413C136.947 337.414 139.23 337.608 139.063 337.659C141.813 336.813 152.527 332.61 154.94 333.058C155.201 333.04 156.919 332.611 157.279 332.526L157.129 331.966L156.795 331.691L156.948 331.419L143.706 331.335L143.79 313.637C144.255 313.586 144.607 313.541 145.067 313.456L145.079 313.357C144.209 313.357 143.114 313.409 142.276 313.246L142.146 312.949C141.64 313.291 141.511 313.319 141.038 313.566L141.167 313.734C139.237 313.939 136.911 313.858 134.929 313.947C131.498 314.102 128.005 314.225 124.578 314.334C123.671 314.363 118.264 314.367 117.836 314.546L117.475 314.507C117.2 314.426 115.617 314.35 115.174 314.297C114.765 314.319 114.51 314.221 114.118 314.115C112.813 313.895 110.941 312.63 109.786 311.902L109.773 311.379C111.894 310.659 113.999 309.59 116.039 308.651C117.617 307.926 119.417 307.242 120.926 306.443L121.33 306.322C125.428 304.86 128.875 302.968 133.325 302.418C133.687 302.521 137.118 302.454 137.731 302.437L137.268 302.339Z" fill="#FEFEFF"/>
<path d="M115.289 313.905C115.605 312.95 125.307 308.009 126.747 307.2C139.069 300.283 154.837 300.908 168.109 304.436C169.639 304.843 173.792 306.538 174.765 308.181C175.373 309.994 177.687 319.974 177.631 321.45C177.434 321.7 177.552 321.622 177.303 321.718L177.54 321.872C177.633 322.649 177.568 323.242 177.52 324.017C175.052 325.173 171.996 326.742 169.556 327.769C166.606 324.672 162.635 324.157 159.146 327.074C157.938 328.085 157.417 329.748 157.091 331.269L156.948 331.421L143.706 331.337L143.79 313.639C144.256 313.588 144.607 313.543 145.067 313.458L145.079 313.359C144.209 313.36 143.114 313.411 142.276 313.248L142.146 312.952C141.64 313.293 141.511 313.321 141.038 313.569L141.167 313.736C139.237 313.941 136.911 313.86 134.929 313.949C131.498 314.104 128.005 314.227 124.578 314.336C123.671 314.365 118.264 314.37 117.836 314.548L117.475 314.509C117.2 314.428 115.617 314.352 115.174 314.3C114.765 314.321 114.51 314.223 114.118 314.117L114.56 313.89C114.839 313.929 115.011 313.954 115.289 313.905Z" fill="#FEFEFF"/>
<path d="M164.06 312.789C167.249 312.719 170.436 312.554 173.615 312.295C173.547 314.358 173.077 314.645 171.712 316.29C172.532 318.934 174.245 321.569 177.303 321.718L177.539 321.872C177.633 322.649 177.568 323.241 177.52 324.017C175.052 325.172 171.996 326.742 169.555 327.769C166.606 324.671 162.635 324.157 159.146 327.074C157.937 328.084 157.417 329.747 157.09 331.268L156.948 331.421L143.706 331.337L143.79 313.638C144.653 313.768 149.028 313.582 150.213 313.506C153.855 313.275 158.288 313.34 161.84 312.888L164.06 312.789Z" fill="#DB4431"/>
<path d="M145.113 303.352C147.689 302.916 159.809 303.396 162.086 304.462L162.214 304.722L162.864 304.957C162.54 305.102 162.623 305.099 162.286 305.141C162.335 306.001 163.145 309.773 163.464 310.6C163.549 311.184 163.66 311.837 163.718 312.417C162.865 312.476 161.514 312.53 160.706 312.65L160.641 312.796C161.054 312.836 161.426 312.863 161.841 312.888C158.289 313.34 153.856 313.275 150.214 313.506C149.029 313.582 144.654 313.768 143.791 313.638C144.256 313.588 144.608 313.543 145.068 313.457L145.079 313.359C144.209 313.359 143.115 313.411 142.277 313.248L142.146 312.951C142.21 310.063 141.919 307.121 142.018 304.021C142.705 303.861 143.717 303.798 144.442 303.728C144.6 303.677 144.952 303.449 145.113 303.352Z" fill="#080717"/>
<path d="M144.442 303.727C144.702 304.351 144.813 311.598 145 313.195C144.179 313.198 143.065 313.173 142.277 313.246L142.146 312.95C142.21 310.062 141.919 307.12 142.018 304.02C142.705 303.86 143.717 303.797 144.442 303.727Z" fill="#FEFEFF"/>
<path d="M159.807 304.557C160.634 304.687 161.591 304.732 162.285 305.141C162.334 306.001 163.144 309.773 163.463 310.6C163.548 311.184 163.658 311.837 163.717 312.417C162.864 312.476 161.513 312.53 160.705 312.65L159.807 304.557Z" fill="#FEFEFF"/>
<path d="M118.397 313.927C118.767 313.926 119.424 313.961 119.702 313.752C120.839 312.894 121.988 311.639 123.141 310.828C127.944 307.45 134.689 304.436 140.508 303.785C141.14 303.931 141.38 304.005 142.017 304.021C141.918 307.121 142.209 310.063 142.146 312.951C141.64 313.293 141.511 313.321 141.038 313.568L141.167 313.736C139.237 313.941 136.911 313.86 134.929 313.949C131.498 314.103 128.005 314.227 124.578 314.336C123.671 314.365 118.264 314.369 117.836 314.547L117.475 314.508C117.2 314.428 115.617 314.351 115.174 314.299C114.765 314.321 114.51 314.222 114.118 314.116L114.56 313.89C114.839 313.929 115.011 313.954 115.289 313.904C116.318 313.895 117.371 313.87 118.397 313.927Z" fill="#080717"/>
<path d="M114.118 314.116L114.56 313.889C114.839 313.928 115.011 313.953 115.289 313.903C116.318 313.894 117.371 313.869 118.397 313.926C118.754 314.102 118.889 314.04 119.267 313.982L119.429 314.156C118.598 314.294 116.26 314.227 115.174 314.298C114.765 314.32 114.51 314.221 114.118 314.116Z" fill="#080717"/>
<path d="M162.085 304.461C165.264 304.989 170.899 306.82 173.514 308.708C173.669 309.629 173.799 310.377 173.865 311.309C173.81 311.746 173.848 311.975 173.615 312.294C170.436 312.553 167.249 312.718 164.06 312.788L161.841 312.887C161.426 312.862 161.054 312.836 160.641 312.795L160.705 312.649C161.513 312.529 162.864 312.475 163.718 312.416C163.659 311.836 163.548 311.183 163.464 310.599C163.144 309.772 162.334 306 162.285 305.14C162.622 305.098 162.54 305.101 162.863 304.956L162.213 304.721L162.085 304.461Z" fill="#080717"/>
<path d="M173.864 311.309C174.029 312.963 174.221 314.073 173.067 315.474C172.806 315.787 172.54 316.095 172.267 316.398C173.287 319.144 174.629 320.797 177.63 321.449C177.434 321.698 177.551 321.62 177.303 321.717C174.245 321.568 172.532 318.933 171.712 316.289C173.077 314.644 173.547 314.357 173.615 312.294C173.848 311.974 173.809 311.745 173.864 311.309Z" fill="#080717"/>
<path d="M140.507 303.785C142.089 303.498 143.51 303.386 145.111 303.352C144.95 303.448 144.598 303.676 144.44 303.727C143.716 303.797 142.704 303.86 142.016 304.02C141.379 304.005 141.139 303.931 140.507 303.785Z" fill="#080717"/>
<path d="M137.268 302.339C140.12 302.094 142.678 301.574 145.815 301.518C155.029 301.352 166.311 301.717 174.251 306.899C175.894 307.972 176.188 312.111 176.652 314.02C177.437 317.248 178.245 320.332 178.264 323.691C184.124 321.039 189.847 318.102 196.122 316.526C201.119 315.272 206.356 315.074 211.488 315.006C225.17 314.827 238.687 316.278 251.572 321.15C253.051 321.709 254.716 322.554 255.425 324.047C256.634 326.592 254.967 330.132 255.634 332.902C256.057 334.657 257.87 337.574 258.944 339.105C259.593 340.03 260.374 340.95 260.866 341.967C262.168 344.663 260.739 354.494 259.617 357.266C259.581 357.353 259.544 357.44 259.507 357.526C258.03 357.74 256.634 357.916 255.147 358.049C253.885 358.162 252.355 358.155 251.136 358.365C250.895 360.136 250.689 360.762 249.976 362.409C249.726 362.521 248.901 363.428 248.707 363.669C244.652 368.688 238.177 368.239 233.554 364.312C232.638 363.533 231.949 362.399 230.966 361.625C230.353 360.474 230.07 359.521 229.737 358.273C216.326 358.312 202.916 358.429 189.506 358.624L179.218 358.752C177.626 358.776 175.696 358.847 174.092 358.742C173.769 358.721 173.629 358.254 173.464 357.932L173.404 357.756C173.568 357.343 173.637 356.76 173.712 356.305L173.988 356.149L174.091 358.206C183.568 358.28 193.298 357.935 202.801 357.819L228.477 357.736C228.688 356.667 229.107 355.973 227.944 355.67C227.973 355.658 228.81 355.504 228.923 355.48C229.15 355.037 229.075 355.283 228.972 354.661C229.095 351.543 231.893 347.173 234.558 345.615C235.256 345.206 236.249 344.888 236.991 344.484L237.17 344.385L237.397 344.406C240.739 343.49 243.879 343.682 246.904 345.436C251.857 348.308 252.838 352.478 252.186 357.765C254.537 357.531 256.657 357.304 258.988 356.945C259.755 355.158 260.036 353.845 260.243 351.893L260.346 351.198C260.476 350.184 260.53 349.577 260.551 348.557L260.614 348.229C259.807 348.079 259.047 347.793 258.271 347.526L258.18 347.767C256.683 347.248 256.332 347.313 255.2 346.125C255.352 344.695 256.151 341.711 256.031 340.393C255.84 338.287 251.431 335.674 249.929 333.925C248.562 332.332 248.6 332.515 247.495 330.565C249.864 330.582 252.396 330.34 254.808 330.279C255.004 325.086 256.369 323.422 250.236 321.298C237.423 316.859 223.955 315.016 210.416 315.621C208.634 315.701 206.357 315.67 204.556 315.948C192.339 320.266 180.819 326.665 169.877 333.563C167.633 334.977 163.989 333.303 162.297 331.469C160.74 331.686 158.798 332.148 157.279 332.526L157.129 331.966L156.795 331.691L156.948 331.419L157.09 331.266C157.417 329.746 157.937 328.083 159.146 327.072C162.635 324.155 166.606 324.67 169.556 327.767C171.996 326.74 175.052 325.17 177.52 324.015C177.568 323.239 177.633 322.647 177.539 321.87L177.303 321.716C177.552 321.62 177.434 321.698 177.631 321.448C177.687 319.971 175.373 309.992 174.765 308.178C173.792 306.536 169.639 304.841 168.109 304.434C154.837 300.906 139.069 300.28 126.747 307.198C125.307 308.006 115.605 312.948 115.289 313.903C115.01 313.952 114.839 313.927 114.56 313.888L114.118 314.115C112.813 313.895 110.941 312.63 109.786 311.902L109.773 311.379C111.894 310.659 113.999 309.59 116.039 308.651C117.617 307.926 119.417 307.242 120.926 306.443L121.33 306.322C125.428 304.86 128.875 302.968 133.325 302.418C133.687 302.521 137.118 302.454 137.731 302.437L137.268 302.339Z" fill="url(#paint0_linear_1753_5369)"/>
<path d="M254.705 331.098C254.936 335.445 258.825 339.207 260.589 342.825C261.116 343.906 260.583 346.949 260.614 348.229C259.807 348.08 259.047 347.793 258.271 347.527C257.403 347.046 256.633 346.636 255.819 346.066C256.19 343.702 257.258 340.188 255.782 338.368C253.776 335.895 250.164 334.287 248.729 331.283L254.705 331.098Z" fill="#FEFEFF"/>
<path d="M239.713 348.804C243.719 348.092 247.54 350.777 248.227 354.788C248.914 358.8 246.204 362.603 242.189 363.265C238.209 363.921 234.446 361.241 233.766 357.265C233.085 353.289 235.741 349.51 239.713 348.804Z" fill="#FEFEFF"/>
<path d="M240.457 353.984C241.604 353.689 242.771 354.384 243.057 355.533C243.343 356.682 242.638 357.844 241.487 358.121C240.349 358.395 239.203 357.699 238.92 356.563C238.637 355.427 239.323 354.276 240.457 353.984Z" fill="#080717"/>
<path d="M165.212 329.341C165.491 329.316 165.418 329.326 165.703 329.388L165.61 329.607C164.839 330.048 163.645 330.413 162.777 330.711L162.522 330.773L162.322 330.633L162.392 330.274C162.908 329.592 164.382 329.469 165.212 329.341Z" fill="#FEFBE1"/>
<path d="M177.874 335.665C179.927 335.607 183.834 335.25 185.932 334.898C186.915 334.653 188.359 333.591 189.333 333.511C194.854 333.059 200.406 332.951 205.937 332.58C207.271 332.491 209.123 332.341 210.399 332.455C210.271 340.041 210.361 347.903 210.395 355.503C200.681 355.87 190.861 355.595 181.14 355.912C179.992 355.949 178.856 355.958 177.707 355.933C176.11 351.446 175.884 344.464 176.51 339.752C176.673 338.532 176.74 337.018 177.222 335.884C177.579 335.61 177.376 335.702 177.874 335.665Z" fill="#FEFEFF"/>
<path d="M236.852 330.213C237.219 330.493 237.162 330.384 237.39 330.747C237.064 334.755 237.504 340.286 237.397 344.408L237.169 344.387L236.991 344.485C236.249 344.89 235.256 345.208 234.558 345.616C231.893 347.175 229.095 351.545 228.972 354.663C228.874 354.983 228.877 354.961 228.66 355.219C226.635 355.421 223.89 355.358 221.806 355.378L210.833 355.535L210.83 339.59C210.83 338.251 210.914 333.351 210.7 332.347C211.197 332.39 211.485 332.338 211.972 332.281C212.674 332.266 213.4 332.26 214.099 332.225C216.675 331.997 219.499 331.91 222.103 331.755L233.247 331.042L232.856 331.046L232.758 330.875L232.897 331.041L232.281 330.978C232.673 330.865 232.625 330.919 232.922 330.639C234.244 330.43 235.451 330.477 236.852 330.213Z" fill="#FEFEFF"/>
<path d="M236.852 330.213C237.22 330.493 237.162 330.384 237.391 330.747C237.065 334.755 237.504 340.286 237.397 344.408L237.17 344.387C236.848 340.743 237.025 334.691 237.008 330.847C235.818 330.863 234.448 330.974 233.247 331.042L232.856 331.046L232.758 330.875L232.898 331.041L232.281 330.978C232.673 330.865 232.625 330.919 232.923 330.639C234.245 330.43 235.451 330.477 236.852 330.213Z" fill="#080717"/>
<path d="M213.931 317.588C224.523 317.742 233.697 318.891 243.953 321.761C245.622 322.228 248.114 322.928 249.66 323.636C250.001 324.277 250.23 324.701 250.647 325.312C248.676 330.4 242.026 330.773 237.391 330.747C237.162 330.384 237.22 330.492 236.852 330.213C235.451 330.476 234.245 330.43 232.923 330.638C232.626 330.919 232.674 330.864 232.282 330.978L232.898 331.04L232.758 330.875L232.856 331.045L233.248 331.042L222.104 331.755C219.5 331.91 216.676 331.997 214.1 332.225L213.503 331.753C213.434 331.412 213.477 328.305 213.479 327.812L213.522 317.969L213.969 317.805L213.931 317.588Z" fill="#080717"/>
<path d="M232.816 319.689C234.122 319.951 235.431 320.204 236.741 320.449C236.762 322.43 236.593 328.64 236.852 330.212C235.451 330.476 234.245 330.429 232.923 330.638C232.751 329.893 232.815 321.118 232.816 319.689Z" fill="#FEFEFF"/>
<path d="M179.207 331.63C180.872 329.87 189.454 325.607 191.949 324.324C196.046 322.216 203.428 318.582 207.867 318.009C208.315 318.25 209.396 318.229 209.961 318.255C210.596 318.095 212.739 318.012 213.521 317.969L213.478 327.812C213.476 328.305 213.434 331.412 213.502 331.753L214.099 332.225C213.4 332.259 212.675 332.265 211.973 332.281C211.485 332.337 211.197 332.389 210.701 332.347L210.399 332.455C209.123 332.34 207.271 332.49 205.937 332.579C200.406 332.95 194.854 333.058 189.333 333.51C188.359 333.59 186.914 334.652 185.932 334.897C183.834 335.249 179.927 335.606 177.874 335.664C177.531 335.185 175.281 335.995 174.955 334.766C175.561 333.518 178.833 332.68 179.207 331.63Z" fill="#080717"/>
<path d="M213.521 317.969L213.478 327.812C213.476 328.305 213.434 331.412 213.502 331.753L214.099 332.225C213.4 332.259 212.674 332.265 211.972 332.281C211.137 332.246 210.895 332.242 210.066 332.032C209.716 330.89 209.973 320.391 209.96 318.255C210.595 318.095 212.739 318.012 213.521 317.969Z" fill="#FEFEFF"/>
<path d="M210.066 332.033C211.236 331.969 212.34 331.923 213.503 331.754L214.1 332.226C213.4 332.26 212.675 332.266 211.973 332.282C211.138 332.247 210.895 332.243 210.066 332.033Z" fill="#080717"/>
<path d="M182.758 331.19C184.084 331.106 188.442 331.074 188.417 332.918C187.846 333.86 186.339 334.22 185.306 334.486C183.667 334.709 179.808 335.098 179.309 332.931C179.531 331.637 181.659 331.306 182.758 331.19Z" fill="#FEFEFF"/>
<path d="M116.222 337.509C117.321 337.178 120.832 337.287 122.149 337.286L136.666 337.414C136.948 337.415 139.231 337.609 139.063 337.66C141.814 336.814 152.527 332.611 154.941 333.059C150.866 334.107 140.074 336.765 137.276 339.323C140.625 338.594 154.997 337.37 157.512 339.11C157.66 339.212 157.68 339.263 157.768 339.395C157.763 340.226 156.608 341.582 155.982 342.221C154.011 344.228 152.115 344.343 149.582 344.431C144.315 344.613 138.669 343.069 133.522 343.133C132.597 344.584 132.425 345.643 132.183 347.329C131.875 346.947 131.834 346.79 131.649 346.347C131.851 345.768 132.114 344.733 132.338 344.247C133.483 341.764 136.423 339.533 138.502 337.771C136.763 337.572 133.451 337.637 131.54 337.609C126.435 337.538 121.328 337.504 116.222 337.509Z" fill="#080717"/>
<path d="M146.768 338.987C149.485 338.907 154.577 338.693 157.017 339.468C154.702 344.768 149.811 343.768 145.071 343.58C141.53 343.279 138.01 342.818 134.469 342.452C137.922 338.654 141.82 339.226 146.768 338.987Z" fill="#FEFEFF"/>
<path d="M179.206 331.631C178.832 332.68 175.561 333.518 174.955 334.766C175.281 335.995 177.53 335.186 177.873 335.665C177.376 335.701 177.578 335.61 177.222 335.884C176.739 337.017 176.672 338.532 176.51 339.752C175.883 344.463 176.11 351.445 177.707 355.933C178.855 355.957 179.992 355.949 181.139 355.911C190.86 355.595 200.68 355.869 210.395 355.503C210.361 347.903 210.27 340.04 210.398 332.455L210.7 332.347C210.914 333.351 210.831 338.251 210.83 339.59L210.833 355.535L221.806 355.378C223.89 355.358 226.635 355.421 228.66 355.219C228.877 354.961 228.875 354.983 228.972 354.663C229.075 355.285 229.15 355.039 228.922 355.482C228.809 355.505 227.973 355.66 227.944 355.671C227.266 355.772 226.623 355.759 225.941 355.77C222.005 355.835 218.062 355.831 214.126 355.936L192.884 356.328C187.809 356.426 182.548 356.638 177.491 356.582C175.099 350.703 175.543 341.897 176.809 335.759C175.949 335.68 174.708 335.758 174.752 334.617C175.359 333.549 177.982 332.312 179.206 331.631Z" fill="#080717"/>
<path d="M207.866 318.009C209.414 317.64 212.341 317.564 213.93 317.588L213.968 317.805L213.521 317.969C212.739 318.013 210.595 318.096 209.96 318.255C209.396 318.229 208.314 318.251 207.866 318.009Z" fill="#080717"/>
<path d="M260.347 351.199L260.244 351.894C259.392 352.67 258.229 353.904 257.172 354.164L256.99 354.049C257.16 353.433 259.342 352.112 260.166 351.365L260.347 351.199Z" fill="#080717"/>
<path d="M258.271 347.527C259.047 347.794 259.807 348.08 260.614 348.23L260.55 348.558C259.706 348.333 258.999 348.068 258.18 347.768L258.271 347.527Z" fill="#343437"/>
<path d="M95.1628 289.863C97.3955 289.078 100.121 288.003 102.497 287.779C111.919 286.89 122.313 287.88 131.272 290.987C133.619 291.801 132.997 294.31 134.358 296.278C133.994 297.889 133.753 299.235 133.491 300.862C132.93 300.73 132.348 300.602 131.796 300.447C130.954 299.612 130.474 298.956 129.712 298.111C130.28 299.586 130.38 299.822 131.54 300.898C133.194 301.275 134.22 301.519 135.784 302.168C134.944 302.279 134.168 302.348 133.325 302.419C128.876 302.97 125.428 304.862 121.33 306.323L120.926 306.444C119.417 307.243 117.617 307.927 116.039 308.653C113.999 309.591 111.894 310.661 109.773 311.381L109.786 311.904C108.249 312.301 106.684 312.94 105.143 313.371C102.608 314.079 97.1806 315.369 95.0067 316.66L94.8736 316.777C95.7861 317.138 96.5 316.877 97.3409 317.091C92.4083 317.206 92.3381 317.703 88.9023 321.274C88.821 320.626 89.1628 320.962 89.4064 320.105L89.7961 319.232C89.4469 318.22 78.6577 319.796 77.2822 318.611L77.2677 318.81L77.1703 318.784C77.1731 318.036 77.0839 316.659 77.4071 316.08C77.4784 314.239 76.253 312.276 74.9248 311.063C71.6935 308.111 66.2327 308.671 63.4692 311.974C62.8388 312.727 61.708 314.545 61.7799 315.563L61.8966 315.841L61.6298 316.147C61.5554 316.83 61.5409 317.144 61.7224 317.816C62.0351 318.263 61.915 318.015 61.9841 318.641C60.3651 317.891 53.1714 318.612 51.0437 317.975C50.6651 317.862 50.0839 317.61 49.9622 317.208C48.8883 313.668 49.88 308.824 51.1417 305.494C51.8593 303.462 53.7874 302.691 55.501 301.828C60.0142 299.554 65.4488 299.907 69.9959 298.62C72.668 297.864 76.6353 295.598 79.3034 294.415C83.2442 292.668 87.0799 291.075 91.0804 289.452L91.7751 289.06C92.8439 288.928 94.086 288.578 95.1492 288.311C95.4278 288.374 95.5986 288.412 95.873 288.497L96.1123 288.899C95.9101 289.318 95.6 289.526 95.1444 289.659L95.1628 289.863Z" fill="#FEFEFF"/>
<path d="M102.127 298.141C102.16 298.821 102.041 298.923 102.38 299.338L102.905 299.407L104.381 299.523C105.492 299.628 117.044 299.115 118.176 298.869C118.864 298.848 119.651 298.845 120.328 298.786C120.574 298.717 120.974 298.727 121.246 298.718C121.169 299.687 121.07 305.7 121.33 306.322L120.926 306.443C119.417 307.242 117.617 307.926 116.039 308.652C113.999 309.59 111.894 310.66 109.774 311.38L109.786 311.903C108.249 312.3 106.684 312.939 105.143 313.37C102.608 314.078 97.1807 315.368 95.0068 316.659L94.8737 316.776C95.7862 317.136 96.5001 316.876 97.341 317.09C92.4084 317.205 92.3382 317.702 88.9023 321.273C88.8211 320.625 89.1629 320.961 89.4064 320.104L89.7961 319.23C89.4469 318.219 78.6577 319.795 77.2822 318.61L77.2678 318.809L77.1704 318.782C77.1732 318.035 77.084 316.658 77.4071 316.079C77.4751 316.683 77.5139 317.364 77.5629 317.976C81.6685 317.974 87.2108 318.117 91.3713 317.81C91.7432 317.782 94.6409 316.314 95.2331 316.02C93.0499 316.139 90.258 316.145 88.0505 316.092C85.6798 316.035 80.5277 316.719 79.1539 314.645L79.4173 314.523C79.0211 313.491 79.1143 311.971 79.1112 310.831C79.1468 309.311 79.1468 307.789 79.1112 306.269C79.1805 304.754 79.1372 302.826 79.1474 301.278C82.9078 301.114 86.848 300.765 90.6126 300.52C94.0901 300.294 97.8105 300.105 101.264 299.764C102.02 299.487 102.108 298.818 102.127 298.141Z" fill="#FEFEFF"/>
<path d="M120.328 298.787C120.574 298.718 120.974 298.728 121.246 298.719C121.169 299.688 121.069 305.701 121.33 306.323L120.926 306.444C119.417 307.243 117.617 307.927 116.038 308.653C113.998 309.591 111.893 310.661 109.773 311.381C106.997 312.347 105.067 313.002 102.221 313.688L102.214 299.739C103.02 299.719 103.591 299.634 104.38 299.524C105.492 299.629 117.044 299.116 118.175 298.87C118.864 298.849 119.65 298.846 120.328 298.787Z" fill="#FEFEFF"/>
<path d="M120.328 298.787C120.574 298.718 120.974 298.728 121.246 298.719C121.169 299.688 121.07 305.701 121.33 306.323L120.926 306.444C120.866 305.246 121.112 299.364 120.834 298.89L120.328 298.787Z" fill="#8E8D90"/>
<path d="M102.127 298.141C102.16 298.821 102.041 298.923 102.38 299.338L102.905 299.407L104.381 299.523C103.592 299.633 103.02 299.718 102.214 299.738L102.222 313.687C105.067 313.001 106.998 312.346 109.774 311.38L109.786 311.903C108.249 312.3 106.684 312.939 105.143 313.37C102.608 314.078 97.1806 315.368 95.0068 316.659L94.8737 316.776C95.7861 317.136 96.5001 316.876 97.3409 317.09C92.4084 317.205 92.3381 317.702 88.9023 321.273C88.821 320.625 89.1629 320.961 89.4064 320.104L89.7961 319.23C89.4469 318.219 78.6577 319.795 77.2822 318.61L77.2678 318.809L77.1704 318.782C77.1732 318.035 77.084 316.658 77.4071 316.079C77.4751 316.683 77.5139 317.364 77.5629 317.976C81.6685 317.974 87.2108 318.117 91.3713 317.81C91.7431 317.782 94.6409 316.314 95.233 316.02C93.0498 316.139 90.258 316.145 88.0505 316.092C85.6798 316.035 80.5277 316.719 79.1539 314.645L79.4173 314.523C79.7002 314.825 80.0602 315.139 80.4377 315.317C81.7512 315.935 94.2348 315.802 96.1693 315.502C98.047 315.211 99.9838 314.295 101.808 313.718C101.815 311.797 102.045 301.015 101.665 299.921L101.264 299.764C102.02 299.487 102.108 298.818 102.127 298.141Z" fill="#080717"/>
<path d="M77.2822 318.61C78.3071 318.41 80.9633 318.46 82.1134 318.452L91.0388 318.404C90.4064 319.004 89.9847 319.454 89.4064 320.104L89.7961 319.231C89.4469 318.22 78.6577 319.795 77.2822 318.61Z" fill="#F8F7FE"/>
<path d="M104.375 289.449C105.982 289.153 107.849 289.277 109.51 289.296C115.554 289.368 121.659 290.278 127.484 291.883C128.713 292.221 131.388 292.75 131.502 294.221C131.618 295.722 130.171 296.977 129.235 297.991C127.909 298.232 123.587 298.683 122.168 298.677L121.246 298.719C120.974 298.728 120.574 298.718 120.328 298.787C119.651 298.846 118.864 298.849 118.176 298.87C117.044 299.115 105.492 299.629 104.381 299.524L102.905 299.408L102.38 299.339C102.041 298.924 102.16 298.821 102.127 298.141C102.237 295.699 102.121 292.585 102.156 290.053C102.928 290.063 103.724 289.903 104.483 289.762L104.547 289.641L104.375 289.449Z" fill="#080717"/>
<path d="M104.483 289.762L104.474 289.901C104.385 291.441 104.657 298.429 104.261 299.188C103.683 299.355 103.515 299.359 102.905 299.407L102.38 299.339C102.041 298.924 102.16 298.821 102.127 298.141C102.237 295.699 102.121 292.584 102.156 290.053C102.928 290.063 103.724 289.902 104.483 289.762Z" fill="#FEFEFF"/>
<path d="M118.947 290.42C119.899 290.526 120.372 290.617 121.303 290.838C121.466 292.945 121.398 296.081 121.416 298.265C120.615 298.373 119.993 298.437 119.184 298.488C118.605 297.747 118.941 291.731 118.947 290.42Z" fill="#FEFEFF"/>
<path d="M121.416 298.266C121.682 298.401 121.921 298.51 122.168 298.677L121.246 298.718C120.974 298.728 120.575 298.718 120.328 298.787C119.651 298.845 118.865 298.849 118.176 298.869C118.62 298.658 118.731 298.624 119.185 298.488C119.993 298.438 120.615 298.373 121.416 298.266Z" fill="#080717"/>
<path d="M95.1031 291.842C96.279 292.037 100.263 289.952 102.156 290.052C102.121 292.584 102.237 295.698 102.127 298.14C102.108 298.818 102.02 299.487 101.264 299.763C97.8102 300.105 94.0898 300.293 90.6124 300.52C86.8477 300.765 82.9075 301.114 79.1472 301.277C79.137 302.826 79.1803 304.753 79.1109 306.269C79.1466 307.789 79.1466 309.31 79.1109 310.831C79.114 311.971 79.0209 313.491 79.4171 314.523L79.1537 314.645C78.4578 313.312 78.7966 303.237 78.8175 301.114C80.9124 298.166 91.4011 293.098 95.1031 291.842Z" fill="#080717"/>
<path d="M79.1113 310.832C78.7947 309.9 78.8567 307.214 79.1113 306.27C79.147 307.79 79.147 309.311 79.1113 310.832Z" fill="#343437"/>
<path d="M95.1492 288.311C95.4279 288.373 95.5986 288.412 95.8731 288.496L96.1124 288.898C95.9102 289.317 95.6 289.525 95.1444 289.658L95.1628 289.862C90.3803 291.82 85.9564 294.122 81.3725 296.481C79.3643 297.514 75.7132 300.349 74.0194 300.894C72.1384 300.533 71.5402 300.248 69.7997 299.425C64.5502 300.023 59.4846 300.508 54.6404 302.82C53.4829 303.372 51.494 305.085 51.4272 306.381C51.9721 307.483 54.8587 307.385 56.1666 307.436C58.4645 307.524 61.7533 307.758 63.8383 306.635C64.6023 306.223 66.0172 304.825 66.2979 304.015C66.0356 302.503 61.3127 303.557 60.2317 303.79C58.3843 304.177 56.5914 304.789 54.8922 305.611L54.7585 305.523C55.5886 303.954 65.5964 301.494 67.0356 303.492C67.376 305.017 63.6944 307.736 62.4384 307.87C58.6834 308.269 54.7013 308.163 51.0094 307.377C50.5634 309.109 49.7093 312.849 50.2635 314.481C51.6973 316.232 59.3526 315.557 61.7799 315.563L61.8966 315.84L61.6298 316.146C61.5554 316.83 61.5409 317.143 61.7224 317.815C62.0351 318.262 61.915 318.015 61.9841 318.64C60.3651 317.89 53.1714 318.611 51.0437 317.975C50.6651 317.861 50.0839 317.609 49.9622 317.207C48.8883 313.667 49.88 308.824 51.1417 305.494C51.8593 303.462 53.7874 302.69 55.501 301.827C60.0142 299.553 65.4488 299.906 69.9959 298.619C72.668 297.863 76.6354 295.598 79.3034 294.415C83.2442 292.668 87.0799 291.075 91.0804 289.451L91.7751 289.06C92.8439 288.927 94.086 288.578 95.1492 288.311Z" fill="url(#paint1_linear_1753_5369)"/>
<path d="M61.7221 317.815C60.4179 317.859 52.0402 317.828 50.6565 317.143C50.4305 317.031 50.2127 316.038 50.2874 315.541C50.8388 315.424 52.0008 315.983 52.5562 316.06C55.4086 316.452 58.7736 316.117 61.6295 316.146C61.555 316.83 61.5405 317.144 61.7221 317.815Z" fill="#FEFEFF"/>
<path d="M95.1035 291.843C97.728 290.685 101.519 289.611 104.375 289.449L104.547 289.642L104.483 289.763C103.724 289.903 102.929 290.064 102.156 290.054C100.263 289.953 96.2794 292.039 95.1035 291.843Z" fill="#080717"/>
<path d="M141.167 313.736L141.038 313.568C141.511 313.321 141.64 313.293 142.146 312.951L142.276 313.248C143.114 313.411 144.209 313.359 145.079 313.359L145.067 313.458C144.607 313.543 144.255 313.588 143.79 313.639L143.706 331.337L156.948 331.421L156.795 331.692C153.812 331.766 150.827 331.803 147.843 331.803C146.666 331.803 144.585 331.848 143.504 331.757L143.342 331.817C140.385 331.733 137.05 331.817 134.055 331.817L117.531 331.846L117.837 331.283C117.933 329.971 117.839 327.256 117.841 325.822C117.858 322.064 117.856 318.306 117.836 314.548C118.264 314.369 123.671 314.365 124.578 314.336C128.005 314.227 131.498 314.104 134.929 313.949C136.911 313.86 139.237 313.941 141.167 313.736Z" fill="#DB4431"/>
<path d="M141.167 313.736L141.038 313.568C141.511 313.321 141.64 313.293 142.146 312.951L142.276 313.248C143.114 313.411 144.209 313.359 145.079 313.359L145.067 313.458C144.607 313.543 144.255 313.588 143.79 313.639L143.706 331.337L156.948 331.421L156.795 331.692C153.812 331.766 150.827 331.803 147.843 331.803C146.666 331.803 144.585 331.848 143.504 331.757L143.342 331.817C140.385 331.733 137.05 331.817 134.055 331.817L117.531 331.846L117.837 331.283C120.472 331.368 123.512 331.306 126.173 331.312L143.305 331.321L143.306 313.717C142.556 313.744 141.915 313.747 141.167 313.736Z" fill="#080717"/>
<path d="M109.786 311.904C110.941 312.632 112.813 313.897 114.118 314.117C114.511 314.223 114.765 314.321 115.174 314.299C115.617 314.352 117.2 314.428 117.475 314.509L117.836 314.548C117.857 318.306 117.858 322.064 117.841 325.822C117.839 327.256 117.933 329.971 117.838 331.283L117.532 331.846L134.055 331.817C137.05 331.817 140.386 331.733 143.342 331.817C143.325 332.33 143.388 332.647 143.119 332.966C140.698 333.157 136.655 333.013 134.054 333.005L117.068 332.954C117.162 330.501 116.662 328.236 115.031 326.326C113.57 324.608 111.48 323.55 109.231 323.387C105.628 323.12 102.469 325.349 100.951 328.515C100.265 329.945 100.13 331.282 100.046 332.84C97.1154 332.875 93.4952 333.073 90.6035 332.671C90.1557 332.608 88.8442 332.088 88.367 331.902L87.8861 332.169L87.3554 331.934C86.8456 331.728 86.1676 331.498 86.0003 330.962C85.4084 329.068 85.6672 326.344 86.3905 324.611L86.5508 324.451L86.8485 324.497C87.0014 324.266 87.8915 322.437 88.0835 322.065C90.6989 322.055 101.559 321.74 103.386 320.673C104.125 320.242 105.449 319.198 105.56 318.272C105.603 317.91 105.46 317.682 105.211 317.439C103.998 316.255 96.9381 316.605 95.007 316.66C97.1808 315.37 102.608 314.08 105.143 313.371C106.684 312.94 108.249 312.302 109.786 311.904Z" fill="#DB4431"/>
<path d="M86.3905 324.611L86.5508 324.451L86.8485 324.497L86.2832 326.198L95.1548 326.195C96.8911 326.196 99.2244 326.133 100.895 326.354L100.869 326.455C98.9984 326.857 96.4003 326.693 94.4301 326.692L86.3007 326.72C86.2795 328.061 86.2257 329.532 86.2829 330.861C87.1472 331.404 87.4137 331.531 88.367 331.902L87.8861 332.169L87.3554 331.934C86.8456 331.728 86.1676 331.498 86.0003 330.962C85.4084 329.068 85.6672 326.344 86.3905 324.611Z" fill="#080717"/>
<path d="M117.475 314.508L117.836 314.547C117.856 318.305 117.858 322.063 117.841 325.821C117.839 327.256 117.932 329.97 117.837 331.282L117.531 331.845C117.366 329.229 117.413 326.287 117.419 323.646C117.425 320.639 117.38 317.501 117.475 314.508Z" fill="#080717"/>
<path d="M84.3086 337.33C90.4045 337.232 96.5019 337.237 102.598 337.344C107.439 340.977 109.973 340.878 114.888 337.497L114.957 337.555C115.41 337.435 115.738 337.494 116.221 337.51C121.328 337.505 126.434 337.538 131.54 337.609C133.45 337.638 136.762 337.572 138.502 337.772C136.423 339.533 133.483 341.764 132.337 344.247C132.113 344.734 131.851 345.768 131.648 346.348C129.326 346.132 123.52 346.324 120.915 346.314C112.95 346.254 104.985 346.241 97.0196 346.274C94.8151 344.851 92.451 343.046 90.242 341.55C88.9605 340.681 85.3233 338.286 84.3086 337.33Z" fill="#FEFEFF"/>
<path d="M173.463 357.934C173.629 358.255 173.768 358.722 174.091 358.744C175.695 358.849 177.625 358.778 179.218 358.753L189.506 358.625C202.915 358.43 216.326 358.313 229.737 358.274C230.069 359.522 230.352 360.475 230.966 361.626C224.076 361.765 216.857 361.624 209.92 361.643L171.905 361.742C172.552 360.303 172.954 359.448 173.463 357.934Z" fill="#FEFEFF"/>
<path d="M65.5801 324.701C70.403 324.535 75.2288 324.458 80.0549 324.471C81.4944 324.468 85.0565 324.396 86.3901 324.61C85.6668 326.343 85.408 329.067 85.9999 330.962C86.1672 331.497 86.8452 331.727 87.355 331.933C86.3754 332.322 77.4126 332.157 75.9255 332.157C72.8522 329.558 68.8618 327.235 65.5801 324.701Z" fill="#FEFEFF"/>
<path d="M97.3409 317.091C99.2044 317.102 103.445 316.965 104.959 317.746C105.49 318.658 103.75 319.811 103.086 320.155C102.524 320.445 101.922 320.648 101.3 320.757C99.7957 321.017 89.9536 321.604 88.9023 321.274C92.3382 317.703 92.4084 317.206 97.3409 317.091Z" fill="#FEFEFF"/>
<path d="M156.795 331.691L157.129 331.966C154.603 332.993 146.514 333.331 143.733 332.954C143.46 332.622 143.541 332.29 143.504 331.756C144.585 331.847 146.666 331.802 147.843 331.802C150.828 331.802 153.812 331.765 156.795 331.691Z" fill="#DB4431"/>
<path d="M175.614 371.28L239.824 371.203L253.51 371.216C254.875 371.223 258.82 371.172 259.966 371.45C260.939 371.687 264.386 373.995 265.466 374.65C268.557 376.527 271.61 378.494 274.762 380.296C269.175 380.455 263.276 380.31 257.67 380.288L231.889 380.271L171.534 380.243C163.266 380.23 153.758 380.453 145.617 380.139C143.273 378.542 140.914 376.966 138.542 375.41C136.659 374.194 134.33 372.79 132.626 371.36L175.614 371.28Z" fill="#FEFEFF"/>
<path d="M109.229 353.364C116.704 353.322 124.179 353.319 131.654 353.356C131.66 354.27 131.497 355.668 132.157 356.406C133.857 358.306 148.836 358.997 151.909 359.23C152.366 359.963 152.817 360.699 153.261 361.441C149.671 361.573 145.707 361.532 142.106 361.546C135.062 361.577 128.017 361.55 120.974 361.466C117.288 358.489 113 356.257 109.229 353.364Z" fill="#FEFEFF"/>
<path d="M160.84 348.702C163.394 348.315 165.958 349.337 167.547 351.375C169.135 353.413 169.5 356.149 168.502 358.532C167.504 360.915 165.297 362.573 162.731 362.871C158.857 363.319 155.339 360.58 154.823 356.715C154.307 352.85 156.984 349.285 160.84 348.702Z" fill="#FEFEFF"/>
<path d="M161.001 353.958C163.833 353.829 164.56 356.329 162.097 357.735C159.503 357.88 158.406 355.365 161.001 353.958Z" fill="#080717"/>
<path d="M65.6494 319.596C63.5336 319.532 62.1329 317.371 64.1102 315.822C64.2235 316.186 64.1592 316.077 64.3733 316.38C64.5849 315.614 64.8078 314.539 65.2473 313.865C66.8664 311.382 70.471 311.174 72.8088 312.699C73.3568 313.056 73.5502 313.329 73.642 313.963C74.6955 315.389 74.8943 317.274 74.1617 318.889C73.4293 320.503 71.8802 321.595 70.113 321.742C68.3461 321.888 66.6381 321.067 65.6494 319.596Z" fill="#FEFEFF"/>
<path d="M65.6494 319.596C63.5336 319.532 62.1329 317.371 64.1102 315.822C64.2235 316.186 64.1592 316.077 64.3733 316.38C64.5849 315.614 64.8078 314.539 65.2473 313.865C66.8664 311.382 70.471 311.174 72.8088 312.699C73.3568 313.056 73.5502 313.329 73.642 313.963C72.0629 311.825 69.0646 311.34 66.8916 312.871C64.7188 314.402 64.1672 317.389 65.6494 319.596Z" fill="#080717"/>
<path d="M69.158 315.073C70.0892 314.866 71.0141 315.447 71.2305 316.377C71.4471 317.306 70.8745 318.236 69.9473 318.462C69.0073 318.69 68.0614 318.108 67.8417 317.166C67.6222 316.224 68.2135 315.283 69.158 315.073Z" fill="#080717"/>
<path d="M69.105 315.751C69.4938 315.586 69.9416 315.648 70.2712 315.912C70.6006 316.177 70.7589 316.6 70.683 317.016C70.6074 317.431 70.31 317.771 69.9084 317.902C69.323 318.093 68.6915 317.788 68.4763 317.211C68.2607 316.635 68.5383 315.991 69.105 315.751Z" fill="#FEFEFF"/>
<path d="M107.522 326.68C110.266 326.005 113.037 327.688 113.702 330.435C114.367 333.182 112.674 335.946 109.924 336.601C107.189 337.253 104.443 335.57 103.781 332.837C103.12 330.105 104.792 327.352 107.522 326.68Z" fill="#FEFEFF"/>
<path d="M108.108 329.673C108.785 329.431 109.54 329.572 110.084 330.042C110.628 330.512 110.878 331.238 110.738 331.943C110.597 332.648 110.089 333.223 109.406 333.449C108.368 333.792 107.247 333.236 106.891 332.202C106.536 331.168 107.078 330.041 108.108 329.673Z" fill="#080717"/>
<path d="M108.084 332.762C107.43 332.385 107.204 331.55 107.581 330.896C107.958 330.241 108.794 330.017 109.448 330.394C110.101 330.771 110.325 331.606 109.949 332.259C109.573 332.913 108.738 333.138 108.084 332.762Z" fill="#FEFEFF"/>
<path d="M108.084 332.762C107.43 332.385 107.204 331.55 107.581 330.896C107.958 330.241 108.794 330.017 109.448 330.394C107.846 331.346 108.772 331.34 108.084 332.762Z" fill="#F8F7FE"/>
<path d="M132.304 354.953C136.22 355.781 140.189 356.34 144.182 356.625C145.822 356.75 149.77 356.785 151.161 357.108C151.427 357.446 151.443 358.075 151.5 358.535C146.749 358.211 137.557 357.763 132.823 356.216C132.495 356.11 132.388 355.337 132.304 354.953Z" fill="#FEFEFF"/>
<path d="M62.6836 319.613C63.3712 319.763 66.3834 322.297 67.0936 322.941C65.6717 322.929 63.1602 320.857 62.6836 319.613Z" fill="#080717"/>
<path d="M46.0704 174.644C46.2072 174.264 46.5088 173.536 46.886 173.478C49.9466 173.006 54.7803 173.232 57.7998 173.245L71.4885 173.229L86.9516 173.198C89.1218 173.192 95.0456 172.944 96.8252 173.458C97.5658 174.191 97.4375 174.767 97.4437 175.836L97.4803 287.88C99.8224 287.637 102.215 287.338 104.559 287.162C110.582 286.71 116.972 287.176 122.892 288.314C122.599 268.568 122.807 248.423 122.82 228.647L122.79 207.535C122.782 203.836 122.734 200.117 122.818 196.421C122.857 194.714 123.569 194.573 125.076 194.562C140.442 194.45 155.811 194.572 171.178 194.553C171.956 194.552 172.845 194.552 173.579 194.822C173.856 195.139 174.057 195.374 174.069 195.819C174.158 199.19 174.124 202.701 174.125 206.066L174.12 226.89L174.131 288.796C177.896 288.797 181.944 288.722 185.685 288.817L185.729 289.159C183.475 289.102 181.081 289.077 178.828 289.114C166.268 289.316 153.579 288.842 141.031 289.126L141.025 301.4C139.45 301.405 137.875 301.397 136.3 301.378C136.286 298.981 136.288 296.585 136.307 294.189C136.317 292.759 136.388 290.609 136.248 289.245C134.649 289.509 129.771 289.321 127.831 289.394C128.87 289.711 132.695 290.788 133.047 291.692C133.698 293.368 133.62 294.378 134.836 296.068C134.293 297.938 134.245 299.175 133.892 301C134.582 301.243 136.964 302.282 137.268 302.339L137.732 302.437C137.118 302.454 133.688 302.521 133.325 302.418C134.168 302.347 134.944 302.278 135.784 302.167C134.22 301.518 133.195 301.274 131.54 300.897C130.38 299.821 130.281 299.585 129.712 298.11C130.474 298.955 130.954 299.611 131.796 300.446C132.349 300.601 132.93 300.729 133.491 300.861C133.753 299.234 133.995 297.888 134.358 296.277C132.997 294.309 133.62 291.8 131.272 290.986C122.313 287.878 111.92 286.889 102.497 287.778C100.121 288.002 97.3959 289.077 95.1631 289.861L95.1447 289.658C95.6004 289.524 95.9105 289.317 96.1127 288.898L95.8734 288.496C95.5989 288.411 95.4282 288.373 95.1495 288.31C94.0864 288.577 92.8442 288.927 91.7754 289.059L91.0807 289.451C88.4045 289.159 82.7407 289.401 79.8285 289.396L56.4679 289.366C56.464 290.887 56.6197 299.654 56.2431 300.369C55.7732 300.486 55.9958 300.507 55.5532 300.296C54.9477 299.341 55.0805 295.401 55.1839 294.179C55.0635 292.847 55.1207 290.744 55.1176 289.354C52.5393 289.353 33.7269 289.606 32.8609 289.152C32.7045 288.958 32.5513 288.761 32.4013 288.561C31.0926 286.813 30.0452 284.09 29.3471 282.016C25.7109 271.213 25.0129 257.808 26.6364 246.551C28.3291 235.586 32.6667 225.198 39.2743 216.286C41.3302 213.481 42.9903 211.286 45.7997 209.185C45.8045 208.367 45.7713 207.812 45.9617 207.009C46.0693 204.647 45.9809 201.662 45.9826 199.231C45.9648 193.357 45.9795 187.483 46.0271 181.609C46.0483 180.076 45.9121 175.868 46.0704 174.644Z" fill="#FEFEFF"/>
<path d="M46.0703 174.644C46.2071 174.264 46.5087 173.536 46.8859 173.478C49.9465 173.006 54.7802 173.232 57.7997 173.245L71.4884 173.229L86.9516 173.198C89.1217 173.192 95.0455 172.944 96.8252 173.458C97.5657 174.191 97.4374 174.767 97.4437 175.836L97.4802 287.88C99.8223 287.637 102.215 287.338 104.559 287.162C110.581 286.71 116.972 287.176 122.892 288.314C122.599 268.568 122.807 248.423 122.82 228.647L122.79 207.535C122.782 203.836 122.734 200.117 122.818 196.421C122.857 194.714 123.569 194.573 125.076 194.562C140.442 194.45 155.811 194.572 171.178 194.553C171.956 194.552 172.845 194.552 173.579 194.822C173.856 195.139 174.057 195.374 174.069 195.819C174.158 199.19 174.124 202.701 174.125 206.066L174.12 226.89L174.131 288.796C177.896 288.797 181.944 288.722 185.685 288.817L185.729 289.159C183.475 289.102 181.081 289.077 178.828 289.114C166.268 289.316 153.579 288.842 141.031 289.126L141.025 301.4C139.45 301.405 137.875 301.397 136.3 301.378C136.286 298.981 136.288 296.585 136.307 294.189C136.317 292.759 136.388 290.609 136.248 289.245C134.649 289.509 129.77 289.321 127.831 289.394C128.87 289.711 132.695 290.788 133.047 291.692C133.698 293.368 133.62 294.378 134.836 296.068C134.293 297.938 134.245 299.175 133.892 301C134.582 301.243 136.964 302.282 137.268 302.339L137.732 302.437C137.118 302.454 133.687 302.521 133.325 302.418C134.168 302.347 134.944 302.278 135.784 302.167C134.22 301.518 133.195 301.274 131.54 300.897C130.38 299.821 130.281 299.585 129.712 298.11C130.474 298.955 130.954 299.611 131.796 300.446C132.349 300.601 132.93 300.729 133.491 300.861C133.753 299.234 133.995 297.888 134.358 296.277C132.997 294.309 133.62 291.8 131.272 290.986C122.313 287.878 111.92 286.889 102.497 287.778C100.121 288.002 97.3958 289.077 95.163 289.861L95.1446 289.658C95.6003 289.524 95.9104 289.317 96.1126 288.898L95.8733 288.496C95.5989 288.411 95.4281 288.373 95.1495 288.31C95.7991 288.176 96.4808 288.074 97.1375 287.966C97.0696 277.052 97.0611 266.138 97.1126 255.224L97.1191 207.892L97.0979 186.234C97.0922 184.372 97.2681 174.748 96.6977 173.787C95.231 173.438 91.5845 173.549 89.9583 173.552L80.0253 173.567L56.9742 173.601C53.9881 173.606 50.2793 173.375 47.2745 173.734C46.8225 173.787 46.5965 174.163 46.4017 174.542L46.0703 174.644Z" fill="#FEFEFF"/>
<path d="M46.0703 174.644C46.2071 174.264 46.5087 173.536 46.8859 173.478C49.9465 173.006 54.7802 173.232 57.7997 173.245L71.4884 173.229L86.9516 173.198C89.1217 173.192 95.0455 172.944 96.8252 173.458C97.5657 174.191 97.4374 174.767 97.4437 175.836L97.4802 287.88C99.8223 287.637 102.215 287.338 104.559 287.162C110.581 286.71 116.972 287.176 122.892 288.314C122.599 268.568 122.807 248.423 122.82 228.647L122.79 207.535C122.782 203.836 122.734 200.117 122.818 196.421C122.857 194.714 123.569 194.573 125.076 194.562C140.442 194.45 155.811 194.572 171.178 194.553C171.956 194.552 172.845 194.552 173.579 194.822C173.856 195.139 174.057 195.374 174.069 195.819C174.158 199.19 174.124 202.701 174.125 206.066L174.12 226.89L174.131 288.796C177.896 288.797 181.944 288.722 185.685 288.817L185.729 289.159C183.475 289.102 181.081 289.077 178.828 289.114C166.268 289.316 153.579 288.842 141.031 289.126L140.855 288.884C142.263 288.666 149.208 288.797 150.914 288.796L173.734 288.786L173.747 220.382L173.748 204.35C173.749 202.292 173.9 196.794 173.455 195.118C172.605 194.765 169.419 194.891 168.304 194.896L159.287 194.905C148.015 194.9 136.723 194.881 125.451 194.878C124.909 194.878 123.857 194.879 123.434 195.179C122.964 197.193 123.112 202.905 123.11 205.323L123.129 224.281L123.123 266.228C123.134 273.505 123.041 281.157 123.254 288.403C127.36 289.21 132.554 288.942 136.873 288.957C136.689 289.03 136.384 289.128 136.248 289.245C134.649 289.509 129.77 289.321 127.831 289.394C128.87 289.711 132.695 290.788 133.047 291.692C133.698 293.368 133.62 294.378 134.836 296.068C134.293 297.938 134.245 299.175 133.892 301C134.582 301.243 136.964 302.282 137.268 302.339L137.732 302.437C137.118 302.454 133.687 302.521 133.325 302.418C134.168 302.347 134.944 302.278 135.784 302.167C134.22 301.518 133.195 301.274 131.54 300.897C130.38 299.821 130.281 299.585 129.712 298.11C130.474 298.955 130.954 299.611 131.796 300.446C132.349 300.601 132.93 300.729 133.491 300.861C133.753 299.234 133.995 297.888 134.358 296.277C132.997 294.309 133.62 291.8 131.272 290.986C122.313 287.878 111.92 286.889 102.497 287.778C100.121 288.002 97.3958 289.077 95.163 289.861L95.1446 289.658C95.6003 289.524 95.9104 289.317 96.1126 288.898L95.8733 288.496C95.5989 288.411 95.4281 288.373 95.1495 288.31C95.7991 288.176 96.4808 288.074 97.1375 287.966C97.0696 277.052 97.0611 266.138 97.1126 255.224L97.1191 207.892L97.0979 186.234C97.0922 184.372 97.2681 174.748 96.6977 173.787C95.231 173.438 91.5845 173.549 89.9583 173.552L80.0253 173.567L56.9742 173.601C53.9881 173.606 50.2793 173.375 47.2745 173.734C46.8225 173.787 46.5965 174.163 46.4017 174.542L46.0703 174.644Z" fill="#080717"/>
<path d="M173.868 213.254C174.132 213.74 174.011 225.188 174.009 226.706C173.746 226.22 173.866 214.772 173.868 213.254Z" fill="#343437"/>
<path d="M137.897 285.675C138.013 286.598 138.072 287.559 138.143 288.489C138.335 288.741 138.206 288.643 138.552 288.748C139.539 287.954 138.822 285.214 139.309 283.9C139.346 285.566 139.359 287.233 139.349 288.899C139.774 288.903 140.452 288.932 140.854 288.885L141.03 289.127L141.024 301.401C139.449 301.405 137.874 301.398 136.299 301.378C136.285 298.982 136.287 296.586 136.306 294.189C136.316 292.76 136.387 290.609 136.247 289.245C136.383 289.128 136.688 289.031 136.872 288.957L137.555 288.918C138.132 288.26 137.862 286.804 137.897 285.675Z" fill="#080717"/>
<path d="M137.795 252.906C138.231 252.425 138.884 252.35 139.268 252.943C139.504 258.827 139.315 265.856 139.328 271.833L139.344 279.774C139.345 280.88 139.408 282.904 139.31 283.902C138.823 285.215 139.539 287.956 138.553 288.749C138.207 288.645 138.335 288.742 138.143 288.49C138.072 287.56 138.014 286.6 137.897 285.677C137.67 283.583 137.892 278.701 137.849 276.409C137.706 268.726 138.119 260.554 137.795 252.906Z" fill="#080717"/>
<path d="M135.135 243.877L135.608 243.966C136.8 244.045 140.452 243.927 141.04 244.032L141.37 244.186C141.133 246.534 141.011 251.338 139.268 252.942C138.884 252.349 138.23 252.424 137.795 252.905C136.294 252.271 136.198 251.154 135.957 249.644C135.651 247.73 135.424 245.796 135.135 243.877Z" fill="#FEFEFF"/>
<path d="M135.135 243.877L135.608 243.966C135.507 245.162 136.255 251.742 137.592 252.309C140.636 253.6 140.852 246.205 141.04 244.032L141.37 244.186C141.133 246.534 141.011 251.338 139.268 252.942C138.884 252.349 138.23 252.424 137.795 252.905C136.294 252.271 136.198 251.154 135.957 249.644C135.651 247.73 135.424 245.796 135.135 243.877Z" fill="#080717"/>
<path d="M133.314 243.468C137.301 241.039 138.672 240.616 142.764 243.316L142.772 243.531C142.096 243.858 141.569 243.731 141.369 244.185L141.039 244.031C140.451 243.926 136.799 244.044 135.608 243.965L135.134 243.876C134.514 243.753 133.922 243.649 133.314 243.468Z" fill="#080717"/>
<path d="M45.7997 209.186C45.8045 208.368 45.7713 207.812 45.9616 207.01L45.9764 235.676C45.9781 239.617 45.7711 246.894 46.1273 250.573C45.9053 253.848 45.6793 254.47 45.8362 257.846C42.2315 262.168 40.392 266.03 41.2307 271.853C41.8037 275.831 43.4094 277.883 46.0004 280.785C45.9605 283.544 45.9543 286.304 45.9812 289.064C43.1435 289.082 40.3059 289.085 37.4682 289.073C36.4063 289.071 33.8149 289.01 32.8609 289.153C32.7045 288.958 32.5513 288.761 32.4013 288.561C31.0926 286.813 30.0452 284.091 29.3471 282.016C25.7109 271.213 25.0129 257.808 26.6364 246.551C28.3291 235.586 32.6667 225.198 39.2743 216.286C41.3301 213.482 42.9903 211.286 45.7997 209.186Z" fill="#F7F7F7"/>
<path d="M46.4692 250.125C47.8968 247.266 49.7742 244.916 52.9415 243.898C58.3801 242.15 63.5305 245.861 64.9391 251.125C65.6179 253.558 65.5435 255.305 65.5429 257.755C67.3158 259.526 68.4718 260.986 69.3613 263.362C72.8563 272.696 66.7706 283.339 56.5249 284.029L56.4207 283.721C56.2142 283.578 56.0984 283.509 56.0624 283.214C55.6203 279.589 56.4779 274.335 55.7769 270.897C55.3496 271.97 55.8676 281.427 55.5504 283.173C55.4852 283.532 55.3697 283.504 55.0182 283.718L55.076 284.022C55.2009 284.989 55.1281 287.948 55.1244 289.037C55.3606 289.872 55.3142 293.343 55.1833 294.179C55.063 292.847 55.1202 290.743 55.1171 289.354C52.5388 289.353 33.7264 289.606 32.8604 289.152C33.8144 289.01 36.4058 289.071 37.4677 289.073C40.3054 289.085 43.143 289.081 45.9807 289.063C45.9538 286.304 45.96 283.544 45.9999 280.784C43.4089 277.883 41.8032 275.831 41.2302 271.853C40.3915 266.03 42.231 262.168 45.8357 257.846C45.6788 254.47 45.9048 253.848 46.1268 250.573C46.2282 250.463 46.3752 250.251 46.4692 250.125Z" fill="#FEFEFF"/>
<path d="M46.2642 280.994C49.1524 283.024 51.5899 283.829 55.0761 284.024C55.201 284.99 55.1282 287.95 55.1245 289.039C52.241 289.032 49.213 289.116 46.3461 288.998C46.1753 286.911 46.281 283.22 46.2642 280.994Z" fill="#FEFEFF"/>
<path d="M46.4692 250.125C47.8968 247.266 49.7742 244.916 52.9415 243.898C58.3801 242.15 63.5305 245.861 64.9391 251.125C65.6179 253.558 65.5435 255.305 65.5429 257.755C67.3158 259.526 68.4718 260.986 69.3613 263.362C72.8563 272.696 66.7706 283.339 56.5249 284.029L56.4207 283.721C59.9947 283.161 62.806 282.298 65.4752 279.737C68.3092 276.965 69.9456 273.194 70.0334 269.231C70.0985 264.463 68.4384 261.227 65.2291 257.894C65.2206 257.054 65.2067 256.214 65.1878 255.374C65.1037 251.882 64.2399 248.659 61.6336 246.197C57.9358 242.705 52.4085 243.062 49.0251 246.826C45.785 250.432 45.9829 253.59 46.1577 258.111C45.5326 258.779 44.8606 259.474 44.3149 260.205C38.7254 267.687 41.1555 279.378 50.223 282.782C51.8447 283.391 53.3369 283.539 55.0182 283.718L55.076 284.022C51.5898 283.827 49.1523 283.022 46.2641 280.992C46.2809 283.218 46.1752 286.909 46.346 288.996C49.2129 289.115 52.2409 289.03 55.1244 289.037C55.3606 289.872 55.3142 293.343 55.1833 294.179C55.063 292.847 55.1202 290.743 55.1171 289.354C52.5388 289.353 33.7264 289.606 32.8604 289.152C33.8144 289.01 36.4058 289.071 37.4677 289.073C40.3054 289.085 43.143 289.081 45.9807 289.063C45.9538 286.304 45.96 283.544 45.9999 280.784C43.4089 277.883 41.8032 275.831 41.2302 271.853C40.3915 266.03 42.231 262.168 45.8357 257.846C45.6788 254.47 45.9048 253.848 46.1268 250.573C46.2282 250.463 46.3752 250.251 46.4692 250.125Z" fill="#080717"/>
<path d="M55.0186 283.719C55.37 283.505 55.4856 283.533 55.5507 283.174C55.8679 281.428 55.3499 271.972 55.7773 270.898C56.4782 274.337 55.6206 279.591 56.0627 283.216C56.0987 283.511 56.2145 283.579 56.421 283.723L56.5252 284.031C56.4179 285.578 56.4606 287.455 56.4838 289.028C68.2127 289.2 80.0373 288.972 91.7752 289.061L91.0805 289.452C88.4042 289.16 82.7404 289.402 79.8283 289.398L56.4677 289.367C56.4637 290.889 56.6195 299.656 56.2428 300.371C55.773 300.488 55.9956 300.508 55.553 300.297C54.9475 299.342 55.0803 295.402 55.1837 294.181C55.3145 293.345 55.3609 289.874 55.1248 289.039C55.1284 287.949 55.2012 284.99 55.0763 284.024L55.0186 283.719Z" fill="#080717"/>
<path d="M46.4016 174.543C46.2592 176.353 46.3447 179.058 46.3424 180.933L46.292 190.856L46.2459 222.972L46.2694 242.159C46.2733 243.339 46.2209 249.266 46.4696 250.126C46.3756 250.253 46.2286 250.465 46.1272 250.574C45.7709 246.895 45.9779 239.618 45.9762 235.677L45.9615 207.011C46.0691 204.649 45.9808 201.663 45.9825 199.233C45.9646 193.358 45.9794 187.484 46.0269 181.61C46.0482 180.077 45.912 175.869 46.0703 174.645L46.4016 174.543Z" fill="#6C6C72"/>
<path d="M213.866 252.068C213.324 250.766 213.532 244.871 213.533 243.026L213.52 228.616L213.49 220.166C213.476 218.41 213.3 214.386 213.707 212.846C214.226 212.625 214.805 212.593 215.369 212.595C225.477 212.628 235.595 212.605 245.702 212.613L256.606 212.603C258.115 212.597 263.9 212.315 264.716 213.099C265.231 214.381 264.922 237.804 264.901 241.075C264.972 244.5 264.904 248.093 264.889 251.528C264.882 253.252 264.953 256.355 264.803 257.984L264.854 289.023C265.815 289.032 273.271 288.955 273.625 289.233C272.384 289.471 268.471 289.328 266.971 289.356C261.239 289.463 255.329 289.171 249.617 289.247C249.655 290.231 249.842 295.76 249.386 296.169C248.905 296.223 248.703 296.266 248.214 296.201C247.806 295.366 248.179 290.523 247.985 289.076C240.891 289.25 233.77 289.046 226.679 289.177C224.885 289.21 222.889 290.432 220.767 290.601L220.402 290.711C220.195 291.388 220.264 293.115 220.265 293.9L220.272 301.159C220.273 302.387 220.486 305.348 219.798 306.298L219.292 306.332C218.42 305.144 218.709 302.176 218.723 300.658L218.749 293.709C218.749 292.995 218.787 291.325 218.626 290.718C215.328 291.447 212.843 289.451 210.286 289.266C208.129 289.111 204.92 289.18 202.664 289.175L188.361 289.177L188.356 288.881C190.951 288.751 193.967 288.816 196.594 288.817C201.174 288.831 205.755 288.821 210.336 288.787C209.108 288.047 208.023 287.095 207.13 285.974C203.615 281.519 203.132 274.807 205.781 269.759C206.436 268.512 208.415 266.688 208.76 265.444C209.205 263.839 208.923 261.635 209.176 259.772C209.665 256.178 211.053 254.268 213.866 252.068Z" fill="#FEFEFF"/>
<path d="M218.727 290.385C210.801 290.822 204.799 285.549 204.429 277.562C204.277 274.225 205.095 270.887 207.241 268.271C207.819 267.482 208.823 266.418 209.071 265.461C209.847 262.471 208.953 259.744 210.28 256.786C212.847 251.07 219.896 248.948 224.616 253.553C226.818 255.702 227.689 258.26 227.764 261.311C227.851 262.117 227.796 263.314 228.108 264.049C228.601 265.208 229.539 266.211 230.187 267.288C233.717 273.151 233.919 281.373 228.775 286.392C226.351 288.756 224.038 289.719 220.816 290.33L220.768 290.6L220.403 290.711C220.196 291.387 220.265 293.115 220.266 293.9L220.272 301.159C220.274 302.387 220.486 305.347 219.798 306.298L219.293 306.331C218.42 305.144 218.71 302.176 218.724 300.657L218.749 293.709C218.75 292.995 218.788 291.325 218.627 290.718L218.727 290.385Z" fill="#FEFEFF"/>
<path d="M218.727 290.384C219.958 289.085 218.427 279.599 219.397 278.252C219.932 279.893 218.994 289.624 219.921 290.151C220.213 290.317 220.49 290.313 220.816 290.328L220.768 290.599L220.403 290.709C220.196 291.386 220.265 293.114 220.266 293.899L220.272 301.158C220.274 302.385 220.486 305.346 219.798 306.296L219.293 306.33C218.42 305.143 218.71 302.174 218.724 300.656L218.749 293.708C218.75 292.994 218.788 291.323 218.627 290.716L218.727 290.384Z" fill="#080717"/>
<path d="M238.723 253.829C238.784 249.402 238.705 245.465 242.098 242.113C245.55 238.703 251.354 238.89 254.605 242.467C257.26 245.387 257.182 248.144 257.111 251.815C260.572 256.208 262.7 260.618 262.002 266.436C261.561 270.263 259.617 273.757 256.599 276.15C254.344 277.916 252.037 278.645 249.233 278.93L249.597 279.225C249.641 281.844 249.791 286.191 249.618 288.698L249.618 289.247C249.656 290.231 249.843 295.76 249.386 296.169C248.905 296.223 248.704 296.266 248.214 296.201C247.806 295.366 248.179 290.523 247.986 289.076L248.042 288.847C248.057 286.918 248.216 280.762 247.992 279.17L248.015 278.988C239.302 278.235 233.764 272.451 234.402 263.448C234.717 259.017 236.391 257.306 238.723 253.829Z" fill="#FEFEFF"/>
<path d="M248.015 278.987C248.459 278.728 248.612 278.746 248.699 278.252C248.991 276.589 248.487 267.522 248.937 266.531C249.431 268.001 249.135 276.668 249.232 278.928L249.597 279.224C249.64 281.843 249.79 286.189 249.618 288.697L249.617 289.246C249.655 290.23 249.842 295.758 249.386 296.168C248.905 296.221 248.703 296.264 248.214 296.199C247.806 295.364 248.178 290.521 247.985 289.074L248.041 288.845C248.056 286.916 248.216 280.761 247.991 279.168L248.015 278.987Z" fill="#080717"/>
<path d="M213.866 252.068C213.324 250.766 213.532 244.871 213.533 243.026L213.52 228.616L213.49 220.166C213.476 218.41 213.3 214.386 213.707 212.846C214.226 212.625 214.805 212.593 215.369 212.595C225.477 212.628 235.595 212.605 245.702 212.613L256.606 212.603C258.115 212.597 263.9 212.315 264.716 213.099C265.231 214.381 264.922 237.804 264.901 241.075C264.972 244.501 264.904 248.093 264.889 251.528C264.882 253.252 264.953 256.355 264.803 257.984L264.854 289.023C265.815 289.032 273.271 288.955 273.625 289.233C272.384 289.471 268.471 289.328 266.971 289.356C261.239 289.463 255.329 289.171 249.617 289.247L249.618 288.699C250.382 289.183 262.609 289.014 264.501 289.002L264.526 246.192C264.633 238.605 264.669 231.018 264.634 223.431C264.635 221.374 264.787 214.595 264.365 213.068C262.897 212.83 259.914 212.905 258.328 212.905L248.322 212.91L213.8 212.911L213.858 237.995L213.867 246.799C213.87 248.284 213.818 250.562 213.969 251.98C216.484 250.769 218.724 250.21 221.489 251.174C224.018 252.055 225.871 254.035 227.039 256.383C228.505 259.33 227.818 260.84 228.396 263.749C228.575 264.654 230.394 266.629 230.831 267.535C232.946 271.92 234.031 276.738 232.309 281.429C231.017 284.948 229.283 286.911 226.19 288.785C233.426 288.835 240.84 288.713 248.041 288.847L247.985 289.076C240.891 289.25 233.77 289.046 226.679 289.177C224.885 289.21 222.889 290.432 220.767 290.601L220.815 290.33C224.037 289.719 226.351 288.756 228.774 286.392C233.918 281.373 233.716 273.152 230.186 267.288C229.538 266.212 228.6 265.209 228.107 264.049C227.795 263.315 227.85 262.117 227.763 261.311C227.689 258.26 226.817 255.702 224.615 253.553C219.896 248.948 212.846 251.07 210.28 256.787C208.952 259.744 209.846 262.471 209.07 265.461C208.822 266.418 207.819 267.482 207.24 268.271C205.095 270.887 204.277 274.225 204.428 277.562C204.798 285.549 210.8 290.822 218.726 290.385L218.626 290.718C215.328 291.447 212.843 289.451 210.286 289.266C208.129 289.111 204.92 289.18 202.664 289.175L188.361 289.178L188.356 288.881C190.951 288.751 193.967 288.816 196.594 288.817C201.174 288.831 205.755 288.821 210.336 288.787C209.108 288.048 208.023 287.095 207.13 285.974C203.615 281.519 203.132 274.807 205.781 269.759C206.436 268.512 208.415 266.688 208.76 265.445C209.205 263.839 208.923 261.635 209.176 259.772C209.665 256.178 211.053 254.268 213.866 252.068Z" fill="#080717"/>
<path d="M264.901 241.074C264.972 244.499 264.904 248.092 264.89 251.527C264.882 253.251 264.954 256.354 264.803 257.983C264.742 257.188 264.727 256.292 264.747 255.49C264.865 250.774 264.466 245.758 264.901 241.074Z" fill="#6C6C72"/>
<path d="M238.347 253.741C238.441 249.146 238.463 245.236 241.966 241.788C245.49 238.319 251.481 238.592 254.791 242.185C257.466 245.088 257.613 247.997 257.511 251.712C258.941 253.553 260.181 255.07 261.025 257.283C264.902 267.458 260.778 277.355 249.597 279.223L249.232 278.928C252.036 278.643 254.343 277.914 256.598 276.148C259.616 273.755 261.56 270.261 262.001 266.434C262.699 260.616 260.571 256.206 257.111 251.813C257.181 248.142 257.259 245.385 254.604 242.465C251.354 238.888 245.55 238.701 242.097 242.111C238.704 245.463 238.783 249.4 238.722 253.827C236.39 257.304 234.716 259.015 234.402 263.446C233.763 272.449 239.301 278.233 248.015 278.986L247.991 279.168C244.45 279.284 241.01 277.974 238.443 275.531C235.509 272.751 234.007 269.307 233.936 265.272C233.85 260.47 235.587 257.466 238.347 253.741Z" fill="#080717"/>
<path d="M271.47 236.233C273.286 234.485 276.1 232.89 278.476 232.103C282.702 230.702 286.305 232.857 289.411 235.546C289.688 235.785 289.803 235.957 289.785 236.305C289.213 236.496 287.128 236.403 286.361 236.4C286.359 236.939 286.385 238.3 286.329 238.771C286.508 242.451 286.479 246.897 286.235 250.584C286.163 251.674 284.331 253.469 283.47 254.17L283.471 316.41C284.297 316.392 285.12 316.306 285.895 316.546C286.272 316.91 286.24 317.589 286.244 318.151C286.31 327.064 286.207 335.992 286.198 344.904L276.87 344.902L276.861 326.207C276.868 323.296 276.774 319.278 276.946 316.432L279.21 316.402L279.175 270.098L279.108 259.847C279.103 259.09 279.058 255.646 279.184 255.136C279.267 253.313 278.751 253.766 277.509 252.219C277.144 251.767 276.898 251.231 276.795 250.659C276.578 249.391 276.619 245.253 276.637 243.758C276.663 241.688 276.521 238.222 276.709 236.249C275.252 236.307 272.93 236.317 271.47 236.233Z" fill="#080717"/>
<path d="M276.708 236.248L276.902 236.182C276.919 236.731 276.948 237.072 277.022 237.617C277.037 237.137 277.005 236.867 277.21 236.431C277.924 236.221 284.757 236.373 285.868 236.42C285.29 240.205 286.565 247.667 285.325 251.469C285.087 252.196 283.899 253.074 283.295 253.623C282.6 254.442 280.375 254.198 279.527 253.725L279.395 253.831C279.421 254.405 279.483 254.745 279.318 255.284L279.184 255.135C279.267 253.313 278.751 253.765 277.508 252.219C277.144 251.767 276.898 251.23 276.795 250.659C276.578 249.391 276.619 245.252 276.637 243.758C276.663 241.688 276.52 238.221 276.708 236.248Z" fill="#FEFEFF"/>
<path d="M276.708 236.248L276.902 236.182C276.919 236.731 276.948 237.072 277.022 237.617L277.054 237.904C277.151 238.859 276.994 240.012 277.099 240.888C277.58 244.933 274.955 254.392 281.879 253.782C282.352 253.737 282.824 253.684 283.295 253.623C282.6 254.442 280.375 254.198 279.527 253.725L279.395 253.831C279.421 254.405 279.483 254.745 279.318 255.284L279.184 255.135C279.267 253.313 278.751 253.765 277.508 252.219C277.144 251.767 276.898 251.23 276.795 250.659C276.578 249.391 276.619 245.252 276.637 243.758C276.663 241.688 276.52 238.221 276.708 236.248Z" fill="#080717"/>
<path d="M185.797 291.928C185.893 291.602 185.829 291.6 186.019 291.426C186.595 291.906 186.853 292.077 187.639 291.95C188.018 291.559 187.904 291.645 188.056 291.037L188.293 291.687C188.613 292.047 189.696 291.963 190.203 291.972C190.257 297.81 190.266 303.648 190.229 309.485L183.902 309.576L183.916 291.937L185.797 291.928Z" fill="#080717"/>
<path d="M186.314 252.07C186.624 252.092 187.329 252.123 187.602 252.172L188.343 252.43C188.212 260.571 188.335 268.884 188.303 277.043L188.256 284.862C188.254 285.806 188.211 288.032 188.357 288.88L188.361 289.176C188.309 290.055 188.293 290.807 188.292 291.688L188.056 291.038C187.904 291.646 188.018 291.56 187.639 291.951C186.853 292.078 186.595 291.907 186.019 291.426C185.829 291.601 185.892 291.602 185.797 291.928C185.793 291.005 185.771 290.082 185.729 289.159L185.685 288.817C185.875 287.899 185.779 280.536 185.782 279.214L185.772 252.297L186.314 252.07Z" fill="#080717"/>
<path d="M181.21 241.053C185.168 237.437 189.582 236.726 193.522 240.944C192.993 240.987 191.932 240.971 191.576 241.282L191.432 241.655C191.385 242.942 190.197 250.506 189.31 251.907C189.226 252.04 188.548 252.341 188.343 252.431L187.602 252.172C187.328 252.123 186.623 252.092 186.314 252.071L185.771 252.298C185.627 252.195 185.484 252.092 185.354 251.972C184.493 251.186 183.709 242.934 183.597 241.368C182.98 240.897 182.04 241.034 181.21 241.053Z" fill="#FEFEFF"/>
<path d="M181.21 241.053C185.168 237.437 189.582 236.726 193.522 240.944C192.993 240.987 191.932 240.971 191.576 241.282L191.432 241.655L191.209 241.254C190.823 241.064 184.405 241.032 183.866 241.25L183.597 241.368C182.98 240.897 182.04 241.034 181.21 241.053Z" fill="#080717"/>
<path d="M191.209 241.254L191.432 241.655C191.385 242.942 190.197 250.506 189.31 251.906C189.226 252.039 188.548 252.341 188.343 252.43L187.602 252.172C187.989 252.091 188.558 252.022 188.879 251.787C189.778 251.13 190.859 242.89 191.209 241.254Z" fill="#080717"/>
<path d="M183.597 241.368L183.867 241.25L183.896 241.392C184.546 244.651 184.516 248.181 185.478 251.358C185.544 251.577 186.111 251.939 186.314 252.071L185.771 252.297C185.627 252.195 185.485 252.092 185.354 251.972C184.493 251.186 183.709 242.933 183.597 241.368Z" fill="#080717"/>
</g>
</g>
<defs>
<linearGradient id="paint0_linear_1753_5369" x1="221.982" y1="293.427" x2="162.115" y2="359.105" gradientUnits="userSpaceOnUse">
<stop stop-color="#000106"/>
<stop offset="1" stop-color="#0A0424"/>
</linearGradient>
<linearGradient id="paint1_linear_1753_5369" x1="48.8884" y1="314.813" x2="97.0516" y2="290.789" gradientUnits="userSpaceOnUse">
<stop stop-color="#010100"/>
<stop offset="1" stop-color="#02012E"/>
</linearGradient>
<clipPath id="clip0_1753_5369">
<rect width="335" height="385" fill="white"/>
</clipPath>
<clipPath id="clip1_1753_5369">
<rect width="290" height="290" fill="white" transform="translate(14 137)"/>
</clipPath>
</defs>
</svg>
