<svg width="378" height="391" viewBox="0 0 378 391" fill="none" xmlns="http://www.w3.org/2000/svg">
<rect width="335" height="385" rx="12" fill="#F7F7F7"/>
<g clip-path="url(#clip0_891_3263)">
<path d="M299.902 159.263C300.324 159.636 300.967 160.324 301.359 160.745C309.828 169.684 314.308 181.677 313.774 193.98C313.374 205.782 308.329 216.949 299.736 225.05C291.477 232.71 279.32 237.867 267.996 237.453C267.4 240.913 267.038 247.225 266.735 250.921C270.132 252.614 273.866 253.668 276.617 256.405C281.633 261.395 282.754 268.567 279.923 274.969C277.642 280.127 275.308 285.275 273.003 290.431L257.45 325.243C254.171 332.826 250.814 340.375 247.381 347.889C244.332 354.536 242.599 360.568 235.11 363.466C231.527 364.852 228.292 365.21 224.488 364.455C221.562 363.874 219.084 362.386 216.396 361.181L195.644 351.75L187.594 348.122C184.948 346.942 181.851 345.704 179.523 344.026C176.864 342.146 174.803 339.539 173.586 336.518C171.706 331.75 171.962 326.292 174.031 321.63C176.366 316.487 178.738 311.361 181.147 306.252L200.296 265.17L206.401 252.168C207.568 249.638 209.33 245.454 210.825 243.306C213.12 240.054 216.326 237.553 220.039 236.12C224.593 234.385 229.638 234.458 234.139 236.325C236.22 237.179 238.709 238.559 240.919 239.545C242.323 236.765 243.84 234.045 245.466 231.389L242.502 229.477C237.016 225.884 231.948 220.26 229.059 214.324C221.491 219.777 211.672 222.821 202.325 221.919C200.564 221.749 198.782 221.491 197.026 221.258C194.339 226.076 191.856 231.181 189.374 236.114C186.535 241.639 183.756 247.195 181.039 252.781C179.902 252.407 178.208 251.617 177.085 251.123C175.275 254.465 173.294 258.888 171.428 261.956C168.285 261.927 168.127 263.674 169.566 265.962C168.988 267.233 168.126 268.781 167.485 270.062C166.003 273.046 164.503 276.021 162.984 278.987C159.832 285.248 156.601 291.47 153.292 297.651C149.93 298.624 146.369 300.267 143.009 301.313C141.306 301.844 139.395 300.427 137.807 299.5C136.605 296.812 135.633 292.169 134.371 288.966C135.606 286.132 137.776 282.523 139.186 279.647C143.294 271.27 147.794 263.049 151.934 254.685C152.902 254.291 154.628 254.065 155.902 253.656C155.542 252.974 155.387 252.673 155.125 251.933C156.779 248.98 158.3 245.955 159.683 242.866C158.538 242.323 157.398 241.768 156.264 241.201C159.996 233.358 164.235 225.526 168.026 217.693C169.547 214.55 171.482 211.156 172.84 207.995C162.808 198.498 159.144 183.161 162.227 169.891C164.823 158.603 171.859 148.838 181.745 142.801C201.486 130.504 227.791 136.836 240.003 156.522C247.702 150.203 257.287 146.629 267.244 146.364C279.656 146.06 290.941 150.778 299.902 159.263Z" fill="black"/>
<path d="M267.343 252.284C270.405 253.646 273.223 254.694 275.714 257.036C280.042 261.104 281.653 267.691 279.497 273.256C278.361 276.189 276.901 279.26 275.588 282.189L268.391 298.368L252.115 334.815C249.967 339.735 247.855 344.574 245.554 349.418C243.437 353.875 242.508 357.605 238.191 360.631C233.045 364.238 226.84 364.86 221.114 362.293L194.949 350.391L186.762 346.687C181.192 344.165 176.739 342.104 174.41 335.886C173.218 332.703 172.969 329.045 173.809 325.74C173.858 323.714 179.847 311.514 181.078 308.837C186.163 297.731 191.317 286.657 196.539 275.614L206.137 255.067C209.861 247.152 212.26 239.354 221.662 236.625C229.042 234.482 234.09 237.101 240.437 240.514C238.122 245.917 236.273 251.508 234.911 257.226C234.658 258.289 234.103 258.118 233.685 258.787C232.678 260.4 234.828 262.994 235.985 263.766C240.71 266.916 246.806 265.687 249.99 261.005C253.068 256.48 251.623 250.393 248.164 246.535C247.46 245.754 246.52 245.135 245.645 244.557C245.892 243.926 246.191 243.27 246.463 242.646C247.989 243.206 249.84 244.137 251.302 244.877C256.543 247.533 262.073 249.731 267.343 252.284Z" fill="#DB4431"/>
<path d="M267.343 252.283C270.405 253.645 273.223 254.693 275.714 257.035C280.042 261.103 281.653 267.69 279.497 273.255C278.361 276.188 276.901 279.259 275.588 282.188L268.391 298.367L252.115 334.814C249.967 339.734 247.855 344.573 245.554 349.417C243.436 353.875 242.508 357.605 238.191 360.63C233.045 364.237 226.84 364.859 221.114 362.293L194.949 350.39L186.762 346.686C181.192 344.164 176.739 342.103 174.41 335.885C173.218 332.702 172.969 329.045 173.808 325.739C174.038 326.284 174.122 327.272 174.25 327.893C174.685 330.016 175.303 332.234 176.663 333.971C177.421 334.863 178.394 336.146 179.393 336.751C182.487 338.625 186.129 340.1 189.421 341.579L205.213 348.711L215.639 353.392C217.387 354.181 220.479 355.668 222.208 356.203C225.574 357.243 230.547 356.859 233.679 355.126C235.476 354.175 237.737 352.358 238.728 350.515C241.052 346.195 242.971 341.357 244.926 336.857L254.139 316.16C259.669 303.605 265.409 291.312 270.605 278.516C274.062 270.006 277.567 263.25 270.046 255.173C269.519 254.607 267.509 252.858 267.343 252.283Z" fill="#FEFEFE"/>
<path d="M252.943 277.052C255.97 279.689 257.44 284.6 255.994 288.363C255.192 290.449 254.33 292.487 253.457 294.544L247.379 308.52L238.71 328.514C237.396 331.543 235.858 335.782 234.108 338.435C231.86 341.842 226.29 343.532 222.463 342.359C219.641 341.493 216.653 339.855 213.884 338.755C208.894 336.611 203.94 334.417 199.044 332.081C198.276 331.714 197.583 331.225 196.917 330.702C194.506 328.549 193.116 326.104 192.668 322.885C192.107 318.857 193.86 316.03 195.475 312.511L200.312 301.983L209.398 282.025C211.103 278.21 212.718 274.354 214.581 270.608C216.295 267.164 219.455 265.239 223.212 264.809C226.914 264.386 229.533 265.804 232.805 267.268C235.487 268.47 238.159 269.694 240.821 270.939C244.491 272.634 249.923 274.627 252.943 277.052Z" fill="black"/>
<path d="M244.544 312.193L244.577 312.268C244.574 312.37 234.787 334.937 233.692 337.028C232.699 338.926 230.074 340.892 227.815 341.333C226.378 341.614 224.648 341.833 223.15 341.383C220.169 340.489 217.077 338.856 214.191 337.607L204.862 333.573C198.82 330.939 195.333 329.975 193.759 323.015C193.657 322.087 193.599 319.754 193.944 318.89C196.738 311.888 200.166 305.097 203.186 298.181C203.749 296.892 204.36 295.549 205.025 294.313C207.835 295.865 212.566 297.805 215.613 299.207L244.544 312.193Z" fill="#DB4431"/>
<path d="M223.709 316.759C225.646 318.497 226.717 320.813 227.798 323.119C232.331 326.198 234.891 330.13 226.87 329.785C225.717 329.736 224.667 327.828 224.063 326.926C220.43 325.474 216.028 323.447 212.486 321.776C208.476 320.009 209.313 321.539 206.104 320.852C203.538 316.998 199.674 312.371 207.856 314.384C209.642 313.537 211.225 312.832 213.231 312.713C217.136 312.481 220.823 314.265 223.709 316.759Z" fill="black"/>
<path d="M222.465 317.226C224.224 318.715 225.686 321.601 226.784 323.611C223.146 322.228 218.291 319.806 214.732 318.068C212.657 317.151 211.012 316.471 209.089 315.234C213.796 312.664 218.433 314.004 222.465 317.226Z" fill="#F7F7F7"/>
<path d="M229.156 325.678C229.826 326.375 230.394 327.384 230.839 328.239C229.606 328.51 228.149 328.56 226.874 328.644C226.162 327.929 225.584 327.053 225.041 326.209L227.081 324.383C228.048 324.859 228.326 325.022 229.156 325.678Z" fill="#F7F7F7"/>
<path d="M208.247 316.364C209.032 317.127 210.402 318.191 209.822 319.381C209.121 320.036 207.52 320.125 206.788 319.591C206.09 318.578 205.21 317.46 205.149 316.254C205.368 315.726 205.193 315.918 205.681 315.646C206.543 315.577 207.498 315.969 208.247 316.364Z" fill="#F7F7F7"/>
<path d="M252.269 277.961C253.341 278.888 254.056 280.047 254.648 281.313C256.814 285.95 254.006 290.252 252.257 294.514C249.953 300.129 247.387 305.618 245.124 311.254C241.673 309.623 237.892 308.018 234.384 306.445L212.184 296.475C210.144 295.561 207.401 294.4 205.514 293.311C206.904 289.688 209.099 284.934 210.833 281.469C214.028 275.084 215.111 266.664 223.524 265.851C224.85 265.715 226.189 265.836 227.468 266.21C230.47 267.102 235.66 269.71 238.575 271.11C242.3 272.899 249.271 275.486 252.269 277.961Z" fill="#DB4431"/>
<path d="M244.025 293.468C245.168 294.403 247.129 296.627 245.217 298.014C244.379 298.622 243.244 298.164 242.314 297.898C240.094 299.545 238.641 298.704 237.712 296.347C233.905 294.492 228.473 291.962 224.589 290.288C222.869 291.588 221.259 291.92 220.173 289.688C220.045 289.042 220.046 288.775 220.028 288.107L219.661 287.877C218.738 287.29 217.234 286.164 218.274 285.037C219.928 283.244 226.296 282.922 228.454 283.226C232.511 283.799 236.935 287.041 239.91 289.66C241.28 290.865 242.336 292.192 243.821 293.315L244.025 293.468Z" fill="black"/>
<path d="M240.038 291.57L240.245 291.832C239.342 292.038 225.649 285.812 223.679 284.83L223.517 284.714L223.617 284.584C224.505 284.459 225.615 284.291 226.502 284.286C231.451 284.26 236.683 288.249 240.038 291.57Z" fill="#F7F7F7"/>
<path d="M222.973 288.169C223.294 288.339 223.499 288.669 223.51 289.033C223.52 289.396 223.334 289.738 223.023 289.926C222.712 290.115 222.324 290.121 222.006 289.944C221.523 289.674 221.348 289.065 221.612 288.579C221.877 288.093 222.484 287.91 222.973 288.169Z" fill="#FEFEFE"/>
<path d="M240.859 295.588C241.18 295.736 241.393 296.049 241.414 296.401C241.435 296.754 241.26 297.089 240.959 297.274C240.657 297.458 240.279 297.462 239.974 297.283C239.533 297.025 239.373 296.467 239.609 296.014C239.846 295.561 240.396 295.374 240.859 295.588Z" fill="#FEFEFE"/>
<path d="M232.956 149.345C235.057 151.176 238.16 155.285 239.52 157.584C245.228 167.232 247.257 178.955 244.493 189.862C241.773 200.581 234.919 209.788 225.43 215.467C216.719 220.631 206.449 222.458 196.573 219.935C193.923 224.506 191.095 230.421 188.747 235.145L180.482 251.593C179.273 251.001 177.794 250.261 176.519 249.882L170.982 260.848C168.729 261.04 167.914 262.084 167.572 264.256C167.803 264.891 168.116 265.514 168.405 266.127C166.198 270.236 164.308 274.429 162.146 278.485C161.471 278.146 160.232 277.32 159.649 278.046C159.825 278.848 160.92 279.164 161.618 279.481C160.858 281.234 159.85 283.04 158.933 284.717C157.969 284.216 157.252 283.686 156.195 283.829L156.124 284.002C156.638 284.898 157.521 285.222 158.432 285.669C156.562 289.423 154.617 293.138 152.596 296.812C150.42 297.554 148.251 298.318 146.091 299.104C144.753 299.588 143.079 300.289 141.72 300.56C140.881 299.953 139.628 299.396 138.666 298.938C137.649 296.033 136.663 292.644 135.729 289.677C135.594 289.329 135.54 289.008 135.705 288.664C137.403 285.124 139.316 281.367 141.198 277.938C142.022 278.378 142.693 278.891 143.594 278.72L143.749 278.486C143.459 277.625 142.533 277.315 141.71 276.891C142.534 275.151 143.404 273.433 144.32 271.739C145.314 272.129 145.727 272.558 146.815 272.432L146.96 272.25C146.586 271.429 145.665 271.172 144.836 270.81C146.502 267.15 148.662 263.557 150.413 259.919C151.102 258.487 151.925 256.896 152.72 255.525C153.891 255.323 156.211 255.162 156.707 253.927C156.936 253.357 156.445 252.739 156.15 252.257C157.873 249.042 159.527 245.791 161.111 242.505C160.169 241.972 158.655 241.347 157.592 240.816C158.414 238.707 160.894 234.304 161.959 232.063C165.825 223.934 170.287 215.893 174.067 207.728C166.578 200.427 162.592 191.636 162.187 181.092C161.76 169.918 165.798 159.033 173.41 150.842C180.961 142.77 191.378 137.985 202.421 137.514C214.196 137.112 224.424 141.347 232.956 149.345Z" fill="#FEFEFE"/>
<path d="M220.652 155.595C225.627 160.106 226.009 167.794 221.507 172.777C217.005 177.76 209.318 178.157 204.326 173.664C199.322 169.159 198.924 161.448 203.438 156.452C207.952 151.455 215.664 151.072 220.652 155.595Z" fill="black"/>
<path d="M220.544 156.881C224.805 161.33 224.668 168.387 220.237 172.667C215.806 176.948 208.748 176.841 204.449 172.429C200.122 167.989 200.23 160.879 204.688 156.572C209.147 152.265 216.257 152.403 220.544 156.881Z" fill="#F7F7F7"/>
<path d="M175.516 229.235C176.044 230.012 175.783 230.266 175.396 231.031C173.178 235.416 170.983 239.814 168.753 244.192L149.585 282.088C146.976 287.197 144.427 292.392 141.765 297.475C141.53 297.925 141.372 298.149 140.966 298.451C140.701 298.062 140.671 298.082 140.625 297.625C140.896 296.743 143.249 292.291 143.847 291.119L150.454 278.034L168.481 242.516C170.559 238.456 172.531 234.309 174.608 230.247C174.878 229.72 175.016 229.555 175.516 229.235Z" fill="black"/>
<path d="M242.357 160.733C244.034 159.404 245.742 158.123 247.566 157C256.574 151.511 267.379 149.781 277.65 152.183C288.23 154.683 297.374 161.306 303.049 170.579C308.384 179.364 310.512 190.835 308.069 200.868C305.859 211.177 299.623 220.176 290.746 225.864C284.18 230.127 275.646 232.699 267.795 232.619C267.453 226.872 267.606 223.367 261.442 220.887C255.223 218.385 251.997 223.136 248.337 227.414C240.917 223.137 236.893 218.622 232.757 211.251C241.853 202.258 246.378 193.3 246.706 180.208C246.863 173.938 245.519 169.525 243.649 163.728C243.251 162.747 242.78 161.712 242.357 160.733Z" fill="#F7F7F7"/>
<path d="M242.357 160.733C244.034 159.404 245.742 158.123 247.566 157C256.574 151.511 267.379 149.781 277.65 152.183C288.23 154.683 297.374 161.306 303.049 170.579C308.384 179.364 310.512 190.835 308.069 200.868C307.594 200.723 307.396 200.637 307.108 200.193C304.451 196.105 301.842 192.596 298.613 188.921C294.585 184.36 290.05 180.272 285.096 176.738C273.515 168.603 259.433 163.565 245.298 163.67C245.038 163.672 243.732 163.753 243.649 163.728C243.251 162.747 242.78 161.712 242.357 160.733Z" fill="#F7F7F7"/>
<path d="M300.231 160.87C303.933 164.642 307.265 169.815 309.293 174.68C313.93 185.766 313.977 198.239 309.425 209.359C304.924 220.062 296.364 228.545 285.621 232.948C274.82 237.385 262.879 237.839 252.016 233.321C252.607 232.432 253.079 231.761 253.735 230.922C261.939 234.229 271.678 234.298 280.112 231.83C290.899 228.706 299.977 221.376 305.305 211.489C307.452 207.3 308.899 202.788 309.589 198.131C311.249 187.056 308.388 175.779 301.649 166.835C295.091 158.041 285.321 152.198 274.471 150.579C265.248 149.245 255.846 151.072 247.795 155.764C245.657 157.012 243.84 158.406 241.866 159.886C241.473 159.086 240.933 158.166 240.493 157.374C248.271 150.929 258.045 147.384 268.147 147.347C280.526 147.261 291.495 152.304 300.231 160.87Z" fill="#FEFEFE"/>
<path d="M261.716 222.087L261.734 222.198C261.577 222.525 260.19 223.179 259.739 223.548C247.428 233.621 241.594 248.993 239.313 264.129C237.496 263.679 236.763 263.189 235.392 262.023C234.862 259.471 238.365 248.499 239.409 245.69C241.908 238.97 249.442 224.494 255.981 221.629C257.997 220.746 259.791 221.333 261.716 222.087Z" fill="#FEFEFE"/>
<path d="M246.508 246.305C253.246 252.189 251.701 263.83 241.759 264.471C241.211 264.49 240.721 264.409 240.178 264.342C240.408 263.343 240.601 262.225 240.78 261.215C241.54 256.934 242.579 252.729 244.085 248.645C244.415 247.75 244.784 246.352 245.367 245.6C245.771 245.661 246.148 246.03 246.508 246.305Z" fill="#F7F7F7"/>
<path d="M260.717 236.928C260.762 237.701 260.53 239.999 260.454 240.815L259.795 247.792C256.712 246.356 253.639 244.897 250.578 243.415L246.946 241.671C248.074 239.431 249.993 236.252 251.368 234.169C254.659 235.622 257.256 236.184 260.717 236.928Z" fill="#F7F7F7"/>
<path d="M247.526 228.15L247.608 228.311C247.407 228.852 246.495 230.034 246.116 230.558C239.22 226.534 233.782 221.458 230.118 214.296C229.929 213.91 229.97 214.109 230.004 213.672C230.557 212.963 231.332 212.432 232.049 211.872C236.1 219.533 240.18 223.523 247.526 228.15Z" fill="#FEFEFE"/>
<path d="M266.863 237.461C266.939 238.082 266.809 238.847 266.729 239.473C266.27 243.078 266.128 246.722 265.707 250.329C264.431 249.863 263.165 249.249 261.945 248.651L260.848 248.121C261.016 244.67 261.459 240.597 261.752 237.108C263.438 237.292 265.167 237.365 266.863 237.461Z" fill="#FEFEFE"/>
<path d="M264.195 223.631C266.797 226.268 266.537 228.856 266.775 232.477C265.533 232.432 264.235 232.286 262.993 232.168L262.022 232.017C261.746 228.103 263.164 228.007 259.773 224.798C260.849 223.984 261.742 223.434 262.964 222.886C263.393 223.089 263.796 223.371 264.195 223.631Z" fill="#FEFEFE"/>
<path d="M259.658 226.066C261.512 227.795 261.304 229.369 260.945 231.814C259.724 231.669 258.911 231.473 257.709 231.179C256.503 230.815 255.635 230.525 254.468 230.057C255.33 228.938 257.399 226.664 258.642 225.889C258.982 225.678 259.299 225.909 259.658 226.066Z" fill="#F7F7F7"/>
</g>
<defs>
<clipPath id="clip0_891_3263">
<rect width="210" height="222.173" fill="white" transform="translate(236.864 86) rotate(47.9067)"/>
</clipPath>
</defs>
</svg>
