<svg width="1264" height="461" viewBox="0 0 1264 461" fill="none" xmlns="http://www.w3.org/2000/svg">
<g clip-path="url(#clip0_1238_3908)">
<rect width="1264" height="461" fill="#F7F7F7"/>
<g clip-path="url(#clip1_1238_3908)">
<path d="M640 -13H1190V537H640V-13Z" fill="#F7F7F7"/>
<path d="M876.974 119.6C879.924 118.132 883.025 116.329 885.921 114.702C936.974 85.9891 1001.55 75.907 1057.9 93.6827C1086.9 102.831 1115.13 122.24 1128.69 150.052C1148.67 191.07 1132.48 242.979 1109.54 279.157C1131.19 295.361 1141.33 315.92 1144.78 342.486C1147.96 366.968 1147.24 392.568 1142.58 416.85C1141.05 424.791 1137.4 441.095 1127.28 441.911C1123.29 442.232 1117.49 441.883 1113.32 441.775C1113.3 444.23 1113.55 460.412 1112.82 461.771L1112.4 461.862C1111.19 460.969 1111.34 460.665 1111.4 459.238C1102.27 459.153 1027.37 458.82 1026.34 459.452C1026.09 460.171 1026.06 460.384 1025.93 461.139C1025.76 461.986 1025.95 461.635 1025.42 462.259C1024.91 462.2 1025.09 462.223 1024.61 461.912C1023.87 460.806 1023.99 460.547 1024.02 459.14C999.374 458.837 974.345 459.231 949.658 459.221C949.703 460.807 949.881 460.982 948.715 462.082L948.266 462.052C947.455 460.663 948.164 435.09 948.201 431.246C940.469 433.098 930.451 435.697 922.552 434.884C909.988 433.59 910.033 417.231 909.426 407.768C908.443 393.199 908.447 378.579 909.437 364.01C909.996 355.891 911.007 347.81 912.464 339.803C893.839 339.406 873.784 339.797 855.057 339.816C857.142 345.881 859.983 352.804 862.304 358.868C865.076 358.764 869.525 358.175 870.626 361.787C871.337 363.543 870.312 366.544 868.484 367.3C865.508 368.531 860.041 368.022 856.823 368.014L838.25 367.987L809.607 367.983C804.638 367.992 799.595 368.059 794.627 367.985C793.171 367.883 792.093 367.818 790.849 367.028C788.432 365.495 787.757 363.112 789.853 360.89C791.877 358.743 793.352 358.829 796.138 358.816C798.59 353.297 801.281 345.574 803.467 339.83C780.138 339.473 756.705 340.148 733.37 339.699C725.181 339.542 726.968 330.638 726.987 324.681L727.011 308.284L726.939 245.127L707.983 245.187C704.666 245.197 700.865 245.411 697.594 244.952C693.853 244.427 692.653 242.766 692.611 239.061C692.483 227.755 692.517 216.432 692.502 205.117L692.565 137.387L692.573 114.887C692.57 111.097 692.367 106.081 692.901 102.375C693.154 100.614 695.107 99.3556 696.529 98.4946C703.627 97.9769 714.816 98.3201 722.327 98.3131L774.502 98.3233L839.604 98.2916L860.615 98.3072C863.999 98.3099 871.564 97.5375 874.377 99.6569C875.946 100.839 876.566 102.758 876.751 104.695C877.2 105.533 876.984 117.538 876.974 119.6Z" fill="#1B1A1B"/>
<path d="M876.974 119.6C879.924 118.132 883.025 116.329 885.921 114.702C936.974 85.9891 1001.55 75.907 1057.9 93.6827C1086.9 102.831 1115.13 122.24 1128.69 150.052C1148.67 191.07 1132.48 242.979 1109.54 279.157C1093.09 267.865 1078.18 264.873 1058.81 262.764C1059.35 256.234 1059.65 251.954 1054.17 247.27C1054.44 239.557 1054.89 231.851 1055.5 224.158C1058.52 224.631 1060.7 224.803 1063.74 223.743C1067.43 222.414 1070.44 219.643 1072.06 216.064C1076.31 206.844 1071.03 194.105 1059.39 195.514C1057.65 195.726 1054.36 196.169 1053.63 198.08L1053.94 198.506C1056.79 199.192 1058.65 197.139 1060.92 197.199C1071.31 197.554 1074.85 210.862 1068.42 218.136C1065.07 221.918 1060.46 223.335 1055.53 222.356C1053.83 222.019 1052.34 220.338 1050.23 220.532L1049.94 220.93L1050.21 221.805C1050.99 222.721 1052.3 223.253 1053.41 223.824C1053.22 227.973 1052.87 232.871 1052.61 237.008C1052.38 240.81 1052.38 249.024 1051.41 252.171C1048.85 260.443 1036.91 268.6 1029.48 272.415C1021.98 268.16 1012.72 262.671 1010.26 253.939L1011.13 250.056C1019.43 250.527 1025.95 249.474 1033.43 245.514C1035.69 244.321 1041.49 240.862 1042.25 238.334C1042 237.572 1042.23 237.86 1041.5 237.467C1040.55 237.762 1035.2 242.124 1033.39 243.137C1008.56 257.005 986.053 240.671 984.189 213.347C983.127 197.787 984.564 187.033 989.04 170.886C1000.73 178.478 1009.82 178.739 1023.07 176.899C1028.97 182.512 1039.63 186.791 1047.67 188.186C1049.05 188.425 1052.91 188.584 1054.11 187.67L1054.11 187.167C1053.96 186.99 1053.81 186.812 1053.66 186.635C1051.19 186.206 1047.9 186.402 1045.51 185.771C1037.97 183.776 1031.63 181.037 1025.52 176.197C1027.25 175.524 1036.7 171.998 1035.55 169.481C1033.95 168.62 1031.52 171.284 1029.81 172.134C1028.12 172.973 1027.6 173.347 1025.72 173.934C1011.99 178.234 994.491 176.144 985.26 164.09C976.713 153.13 980.341 133.935 997.491 136.525C1004.4 137.567 1007.78 141.576 1011.56 146.95L1012.12 147.011C1012.86 146.508 1012.57 146.835 1012.94 145.924C1012.76 144.282 1011.71 143.276 1010.64 142.106C994.439 124.297 971.198 139.222 981.213 161.249C982.831 164.808 984.798 166.941 987.582 169.782C981.582 186.519 979.26 210.851 985.175 227.755C989.145 239.099 996.072 244.161 1006.41 249.069C1006.26 249.211 1006.12 249.355 1005.97 249.5C1001.52 253.971 1001 257.069 1000.98 263.061C984.909 263.44 967.598 268.091 953.648 276.177C949.339 278.675 944.294 282.662 940.325 285.699C940.072 278.528 940.231 271.299 940.218 264.123C940.181 244.808 940.473 225.457 940.209 206.146C940.17 203.366 940.256 200.463 937.708 198.695C933.934 196.076 878.913 199.108 876.894 197.144C876.453 196.035 876.567 194.917 876.564 193.698C897.428 193.533 918.411 193.97 939.286 193.837C941.163 193.826 943.894 195.238 944.172 197.189C944.841 201.889 944.544 207.104 944.532 211.889L944.576 254.364C944.576 257.488 944.378 271.339 944.871 273.477C945.591 274.372 945.166 274.194 946.053 274.316C947.131 272.847 946.651 261.987 946.633 259.219L946.532 233.054C946.475 225.851 946.473 218.649 946.526 211.447C946.562 207.139 946.787 202.604 946.442 198.302C945.832 190.688 937.611 191.791 932.162 191.743C927.73 191.704 923.318 191.727 918.9 191.718L876.596 191.675L876.636 132.908L876.602 115.459C876.593 112.348 876.469 107.688 876.751 104.695C877.2 105.533 876.984 117.538 876.974 119.6Z" fill="#F7F7F7"/>
<path d="M1002.47 221.992L1024.3 221.998C1023.8 226.306 1023.31 228.642 1020.69 232.151C1014.66 238.111 1007.1 236.814 1003.67 228.761C1002.7 226.494 1002.55 224.442 1002.47 221.992Z" fill="#1B1A1B"/>
<path d="M1025.95 143.408C1052.9 141.7 1092.7 155.281 1076.84 190.926C1076.02 192.757 1073.63 197.86 1071.14 197.412L1070.94 196.825C1071.16 195.61 1072.06 194.666 1072.83 193.641C1074.45 191.303 1075.75 188.763 1076.71 186.085C1087.31 155.605 1049.33 143.074 1026.05 145.436C1023.42 145.703 1020.83 146.392 1018.26 145.528L1018.28 144.82C1020.41 143.787 1023.55 143.623 1025.95 143.408Z" fill="#1B1A1B"/>
<path d="M1006.46 195.795C1007.2 195.873 1007.36 195.787 1007.88 196.256C1008.62 197.97 1007.66 200.58 1007.17 202.478C998.623 210.023 1003.85 210.38 1011.51 210.768C1012.1 211.317 1011.89 211.449 1011.95 212.566C1007.38 213.726 999.469 212.437 1001.74 205.871C1002.49 203.711 1004.57 202.788 1005.53 200.897C1006.07 199.843 1006.29 197.122 1006.46 195.795Z" fill="#1B1A1B"/>
<path d="M1021.38 195.108C1026.41 194.864 1026.95 201.465 1022.94 204.056C1017.76 203.817 1017.98 198.081 1021.38 195.108Z" fill="#1B1A1B"/>
<path d="M994.74 193.463C999.319 193.521 1000.03 199.49 996.13 201.791C991.586 201.295 991.362 195.972 994.74 193.463Z" fill="#1B1A1B"/>
<path d="M1022.96 183.1C1026.04 182.777 1031.77 184.362 1032.61 187.535L1032.32 187.977C1030.53 188.174 1027.77 185.817 1025.62 185.119C1021.25 184.33 1018.89 188.12 1016.39 187.804L1016.09 187.323L1016.28 186.594C1018 184.59 1020.49 183.735 1022.96 183.1Z" fill="#1B1A1B"/>
<path d="M991.494 181.209C994.61 181.157 998.443 182.297 999.513 185.748C999.717 186.406 999.468 186.686 999.108 187.121L998.557 187.113L998.057 186.575C993.44 180.896 990.461 185.12 988.148 183.014L988.401 182.571C989.733 181.654 989.918 181.524 991.494 181.209Z" fill="#1B1A1B"/>
<path d="M1063.81 206.408L1064.15 206.715C1064.47 207.685 1064.49 207.233 1064.21 208.117C1063.32 209.068 1062.41 209.391 1061.23 209.965C1062.53 210.893 1063.41 211.38 1063.15 213.028C1062.37 213.222 1062.76 213.17 1061.87 212.905C1060.68 212.139 1059.33 211.459 1058.59 210.309C1058.25 208.093 1061.96 207.187 1063.81 206.408Z" fill="#1B1A1B"/>
<path d="M950.207 430.747C958.379 428.594 966.533 426.377 974.669 424.093C978.141 423.117 982.139 421.785 985.549 420.93C985.67 423.198 986.057 431.359 987.528 432.331C989.773 433.815 1002.06 434.23 1004.84 434.44C1011.46 434.943 1017.77 435.623 1024.2 436.06L1024.02 459.141C999.375 458.838 974.345 459.232 949.658 459.221C949.703 449.741 950.221 440.116 950.207 430.747Z" fill="#DB4431"/>
<path d="M1026.18 436.221C1036.16 437.321 1046.08 437.877 1056.08 438.606C1074.55 439.965 1093.03 440.988 1111.53 441.675C1111.53 446.329 1111.79 454.991 1111.4 459.239C1102.27 459.154 1027.37 458.822 1026.34 459.453C1026.09 460.173 1026.06 460.385 1025.93 461.14C1026.12 452.835 1026.2 444.528 1026.18 436.221Z" fill="#DB4431"/>
<path d="M864.713 245.226C868.604 244.878 870.926 243.049 870.966 238.937C871.053 230.235 870.978 221.525 870.998 212.819L870.993 156.848L870.969 125.241C870.981 120.006 871.08 114.441 870.873 109.204C870.819 107.838 869.979 106.342 868.927 105.461C867.558 104.316 866.17 104.228 864.413 104.192C860.303 104.106 856.129 104.168 852.011 104.176L829.758 104.189L758.358 104.166L720.829 104.15C714.838 104.139 708.737 103.954 702.775 104.334C700.059 104.507 698.125 107.588 698.009 110.107C697.798 114.716 697.858 119.328 697.858 123.942L697.838 148.706L697.879 184.753C697.897 190.403 697.681 198.795 698.054 204.252C698.612 204.889 698.265 204.737 699.049 204.848C700.331 203.5 699.811 195.673 699.807 193.483L699.777 176.078C699.707 161.134 699.732 146.189 699.851 131.244C699.856 125.731 699.373 113.041 700.602 107.62C700.915 106.241 704.421 105.997 705.925 105.989C716.632 105.937 727.394 105.976 738.118 105.985L799.28 105.993L843.803 106.015C850.669 106.031 857.682 105.964 864.556 106.049C868.267 106.095 868.975 107.963 868.99 111.533C869.025 120.164 868.991 128.84 868.992 137.492L869.08 189.014L869.075 223.677C869.067 227.85 869.034 232.108 869.043 236.235C869.051 239.959 869.118 243.255 864.345 243.137C849.426 243.155 834.498 243.165 819.574 243.146L744.984 243.136L712.001 243.171C707.129 243.179 701.855 243.366 697.013 242.941C694.409 242.713 694.794 239.175 694.597 237.321C694.487 225.508 694.52 213.69 694.53 201.876L694.571 138.597L694.544 116.514C694.53 113.075 693.948 105.664 694.775 102.819C695.022 101.969 695.876 101.129 696.675 100.774C697.281 100.505 697.901 100.444 698.557 100.43C722.611 99.9339 746.966 100.393 771.043 100.385C779.645 100.381 870.525 99.928 872.127 100.644C873.083 101.072 873.774 101.892 874.407 102.696L874.452 103.081C874.76 105.845 874.651 109.779 874.649 112.639L874.634 127.361L874.628 176.685L874.635 189.962C874.637 192.137 874.534 194.856 874.806 197.002C875.032 198.792 876.649 199.692 878.385 199.732C882.474 199.824 886.589 199.614 890.701 199.625L921.468 199.75C925.075 199.758 932.532 199.546 935.736 200.048C937.03 201.042 937.949 201.598 938.08 203.324C938.421 207.811 938.203 212.734 938.218 217.263L938.265 262.608C938.271 269.931 938.22 277.512 938.402 284.84C938.422 285.644 938.724 286.315 939.08 287.021C931.031 294.801 926.634 300.793 921.602 310.942C920.154 314.091 919.165 316.504 917.9 319.733C915.56 326.401 914.402 330.912 912.816 337.777L790.482 337.763L750.934 337.723C745.005 337.71 739.033 337.838 733.148 337.751C729.8 337.701 729.183 335.394 729.074 332.665C728.908 328.534 728.908 324.202 728.907 320.09L728.926 299.751C728.827 281.557 728.865 263.363 729.038 245.169C735.605 245.023 742.758 245.179 749.369 245.194L830.838 245.218L853.37 245.138C855.825 245.126 862.611 244.963 864.713 245.226Z" fill="#F7F7F7"/>
<path d="M749.369 245.192L830.838 245.217L853.37 245.137C855.825 245.125 862.611 244.962 864.713 245.225C864.103 245.63 858.912 245.455 857.828 245.448L857.8 294.724L857.743 311.098C857.726 313.461 858.147 320.989 856.479 322.306C855.617 322.276 856.004 322.417 855.317 321.782C854.848 319.844 854.987 307.002 854.965 304.381C854.813 284.736 854.856 265.09 855.092 245.445C845.443 245.448 750.232 245.68 749.369 245.192Z" fill="#F1F3FC"/>
<path d="M903.186 310.918L921.603 310.942C920.155 314.091 919.167 316.503 917.901 319.732C916.795 319.232 905.119 319.478 903.3 319.486L903.186 310.918Z" fill="#F3E4E2"/>
<path d="M781.275 263.424C790.051 262.936 799.187 263.423 807.994 263.281C811.367 263.168 819.833 263.358 822.06 266.434C824.659 270.025 827.704 278.712 829.383 282.863C832.075 282.013 835.587 281.07 838.349 280.669C844.555 279.767 842.712 286.743 840.003 289.683C842.233 293.206 844.252 298.191 844.242 302.477C844.233 306.283 838.462 305.933 835.974 306.881C834.964 307.267 834.046 308.051 833.137 308.778C832.656 311.245 832.598 313.976 832.569 316.478C835.301 316.527 838.742 316.354 841.495 316.494C842.072 316.523 842.479 317.094 842.751 317.53L842.576 318.007C841.202 318.757 821.203 318.417 817.85 318.409C797.107 318.375 776.341 318.374 755.6 318.482C754.574 318.487 754.289 318.355 753.686 317.715L753.741 316.995C754.826 315.997 762.986 316.407 765.027 316.422L765.057 308.631C761.802 306.425 759.65 306.545 756.511 305.381C752.302 303.82 757.169 291.769 758.565 289.08C757.309 287.311 754.649 282.703 757.699 281.426C760.186 280.386 765.073 282.418 767.425 283.27C769.131 279.63 770.711 275.913 772.434 272.282C774.606 267.703 775.773 264.197 781.275 263.424Z" fill="#1B1A1B"/>
<path d="M829.183 285.133C831.531 283.828 837.317 282.081 839.996 282.801C842.102 284.614 839.475 287.778 838.029 289.325C839.94 292.451 842.763 298.758 842.717 302.343C841.971 304.454 832.429 305.258 830.069 308.028C829.2 309.048 819.775 309.007 818.666 307.817C813.327 303.801 808.174 304.194 801.816 304.491C793.022 304.901 786.861 302.854 778.75 307.076C773.875 309.612 760.999 305.587 756.49 303.392C757.018 295.267 758.414 290.803 765.818 286.707C776.569 286.614 822.765 288.125 828.226 285.961L829.183 285.133Z" fill="#DB4431"/>
<path d="M828.227 285.963L829.184 285.135C831.968 286.051 833.503 286.49 836.008 288.032C833.467 287.438 830.54 286.317 828.227 285.963Z" fill="#1B1A1B"/>
<path d="M824.846 291.848C830.145 291.628 835.186 294.417 833.279 300.857C832.719 302.752 830.248 303.984 828.471 304.657C825.008 305.045 821.674 304.234 820.187 300.707C819.533 299.184 819.524 297.461 820.159 295.93C821.14 293.58 822.688 292.74 824.846 291.848Z" fill="#1B1A1B"/>
<path d="M825.387 292.659C832.605 292.226 836.335 300.432 827.992 303.71C819.962 304.525 817.368 295.203 825.387 292.659Z" fill="#F7F7F7"/>
<path d="M769.253 291.833C772.829 291.69 776.031 292.694 777.267 296.478C777.772 298.022 777.646 299.703 776.917 301.154C775.876 303.194 774.327 304.013 772.26 304.675C769.127 304.788 765.936 303.555 764.594 300.531C763.916 299.028 763.895 297.311 764.537 295.792C765.499 293.532 767.159 292.702 769.253 291.833Z" fill="#1B1A1B"/>
<path d="M769.479 292.662C777.094 292.254 779.607 301.074 772.111 303.689C765.015 303.9 761.567 296.036 769.479 292.662Z" fill="#F7F7F7"/>
<path d="M784.711 293.222C787.796 293.239 813.577 293.08 814.521 293.688L814.621 294.676C811.056 294.792 785.866 294.918 784.903 294.28L784.711 293.222Z" fill="#1B1A1B"/>
<path d="M799.457 265.312C815.494 264.845 821.214 262.978 825.968 279.255C826.464 280.951 828.293 282.961 827.027 284.543C821.164 285.724 806.352 285.222 799.491 285.159L799.457 265.312Z" fill="#F7F7F7"/>
<path d="M783.391 265.335C787.953 265.146 793.03 265.245 797.631 265.242C797.725 271.767 797.645 278.487 797.646 285.027L783.61 284.946L768.963 284.847C770.613 280.413 774.733 271.141 777.516 267.245C778.8 265.448 781.323 265.461 783.391 265.335Z" fill="#F7F7F7"/>
<path d="M786.456 306.175L802.43 306.019C812.094 305.953 811.077 305.462 819.594 310.115C819.644 312.174 819.621 314.313 819.627 316.379C816.363 316.487 812.687 316.417 809.391 316.426C798.495 316.473 787.599 316.46 776.703 316.389C776.686 314.098 776.725 311.808 776.822 309.52C781.685 308.637 782.941 306.259 786.456 306.175Z" fill="#F7F7F7"/>
<path d="M758.182 282.641C761.517 283.121 763.439 283.661 766.592 284.838L764.451 285.691C762.74 286.572 761.18 288.206 759.244 287.016C758.272 285.769 758.247 284.192 758.182 282.641Z" fill="#DB4431"/>
<path d="M746.902 134.01C769.617 132.35 781.815 141.673 799.377 153.624C800.309 154.258 800.864 155.179 800.873 156.29C800.953 165.887 800.395 166.333 791.509 166.506C790.645 169.479 790.23 170.369 788.142 172.619C792.419 172.602 796.965 172.414 801.229 172.648C802.339 172.709 802.393 172.699 802.886 173.314L802.71 172.934L802.677 173.681C801.24 174.943 793.839 174.471 791.571 174.471L767.63 174.331L715.211 174.234C713.954 174.233 712.04 174.308 711.165 173.435L711.54 173.001C713.938 172.053 719.982 172.44 723.008 172.414C721.298 170.227 720.706 169.158 719.924 166.49C707.843 166.039 710.867 157.347 710.361 148.633C710.261 146.914 710.151 144.738 710.844 143.158C712.828 141.34 717.502 142.707 719.932 142.122C722.252 141.564 724.946 139.399 727.192 138.415C733.627 135.596 739.996 134.563 746.902 134.01Z" fill="#1B1A1B"/>
<path d="M720.764 144.533C725.775 148.335 729.002 149.482 735.381 149.724C740.869 149.933 746.32 149.979 751.817 149.939C764.242 149.848 776.802 150.055 789.209 149.263C792.327 150.852 796.237 153.617 799.181 155.601C799.31 163.671 800.233 165.169 791.497 165.06C790.393 158.712 787.957 155.562 781.257 155.238C775.18 155.709 772.803 159.392 772.249 165.063L739.421 165.002C737.44 154.99 727.063 151.131 721.01 160.614C720.35 161.647 720.007 163.741 719.758 165.016C717.298 164.742 715.553 164.77 713.679 162.787C711.163 160.126 711.787 154.29 711.85 150.68C718.231 152.065 720.893 151.502 720.764 144.533Z" fill="#DB4431"/>
<path d="M752.504 135.535C766.713 136.457 775.402 139.012 787.015 147.639L787.013 148.027C775.786 148.496 764.354 148.385 753.105 148.36C753.126 144.059 752.542 139.886 752.504 135.535Z" fill="#F7F7F7"/>
<path d="M749.745 135.633C750.395 135.628 750.093 135.553 750.653 135.848C751.098 137.311 751.513 146.482 751.626 148.381C743.197 148.363 734.304 149.08 726.434 146.261C724.546 145.491 723.562 144.899 722.035 143.564C731.133 137.373 738.877 136.357 749.745 135.633Z" fill="#F7F7F7"/>
<path d="M739.1 166.406L772.224 166.538C773.19 169.477 773.657 170.287 775.736 172.563L772.531 172.569C760.26 172.449 747.988 172.414 735.717 172.464C737.848 170.236 738.388 169.291 739.1 166.406Z" fill="#F7F7F7"/>
<path d="M728.234 160.067C730.873 159.48 733.49 161.142 734.08 163.781C734.671 166.42 733.013 169.039 730.375 169.633C727.732 170.23 725.106 168.567 724.514 165.923C723.922 163.278 725.588 160.655 728.234 160.067Z" fill="#F7F7F7"/>
<path d="M781.135 159.884C783.811 159.584 786.221 161.513 786.516 164.189C786.81 166.865 784.876 169.271 782.199 169.56C779.531 169.847 777.133 167.921 776.84 165.253C776.547 162.585 778.469 160.183 781.135 159.884Z" fill="#F7F7F7"/>
<path d="M711.875 144.191L719.414 144.214C719.575 146.588 719.769 147.281 718.561 149.376C717.531 149.872 715.465 150.267 714.346 150.258C713.661 150.249 713.013 149.944 712.57 149.421C711.423 148.071 711.795 145.953 711.875 144.191Z" fill="#DB4431"/>
<path d="M868.271 254.209L925.387 254.281L925.352 262.547L868.279 262.51L868.271 254.209Z" fill="#DB4431"/>
<path d="M868.428 292.363C886.589 292.77 905.947 292.414 924.2 292.363L924.143 300.925L868.452 300.884C868.459 298.044 868.451 295.204 868.428 292.363Z" fill="#DB4431"/>
<path d="M775.876 186.321C781.513 185.838 792.882 186.196 798.924 186.579C800.211 186.66 801.263 188.484 801.894 189.533C802.067 193.648 803.284 199.762 798.885 201.725C792.309 202.212 784.814 201.654 778.181 201.794C771.731 201.93 772.673 195.011 772.915 190.67C773.022 188.763 774.393 187.39 775.876 186.321Z" fill="#1B1A1B"/>
<path d="M776.555 187.906C783.635 187.683 791.563 187.82 798.632 188.318C800.988 188.484 800.564 196.352 800.21 198.002C799.978 199.082 799.321 199.466 798.429 199.968C795.061 200.213 790.852 200.003 787.4 200.073C784.107 200.045 780.693 200.156 777.415 199.955C774.876 199.882 774.363 197.533 774.539 195.408C774.794 192.344 773.617 189.921 776.555 187.906Z" fill="#F1F3FC"/>
<path d="M744.507 186.324C747.566 186.165 751.647 186.301 754.77 186.294C758.299 186.286 763.105 186.173 766.506 186.607C770.357 189.1 769.988 195.123 768.786 199.119C768.381 200.467 766.963 201.102 765.708 201.564C760.711 201.843 748.536 201.78 743.554 201.539C740.097 199.517 740.477 196.75 740.47 193.1C740.464 189.74 741.121 187.305 744.507 186.324Z" fill="#1B1A1B"/>
<path d="M743.832 188.16C746.718 187.872 765.112 187.548 766.582 188.801C768.073 190.07 767.67 194.426 767.615 196.242C767.564 197.91 767.184 198.728 765.981 199.876C760.5 200.399 748.837 200.317 743.437 199.362C741.885 199.088 741.824 190.36 743.832 188.16Z" fill="#F1F3FC"/>
<path d="M876.336 235.425L925.481 235.406L925.473 243.948L876.393 243.996L876.336 235.425Z" fill="#F3E4E2"/>
<path d="M712.744 186.343C716.555 186.058 731.275 185.613 734.411 186.817C735.466 187.222 736.247 187.779 736.692 188.842C737.632 191.094 737.764 196.626 736.775 198.876C736.086 200.443 734.763 201.204 733.222 201.77C727.66 202.051 721.596 201.652 716.169 201.765C708.764 201.921 708.79 198.783 708.977 192.672C709.086 189.093 709.312 187.759 712.744 186.343Z" fill="#1B1A1B"/>
<path d="M713.218 187.95C719.04 187.838 725.062 187.953 730.898 187.93C732.138 187.925 734.023 188.095 734.906 189.032C735.974 191.33 735.691 195.546 735.277 198.119C735.128 199.046 733.986 199.638 733.165 200.035C733.019 200.042 732.873 200.046 732.727 200.047C729.121 200.111 713.238 200.776 711.339 198.948C710.253 196.674 710.594 192.379 710.894 189.782C710.999 188.877 712.373 188.281 713.218 187.95Z" fill="#F1F3FC"/>
<path d="M814.019 170.611L854.143 170.667L854.098 178.362L814.01 178.286L814.019 170.611Z" fill="#DB4431"/>
<path d="M814.007 139.06L854.301 139.025L854.281 146.544L813.977 146.522L814.007 139.06Z" fill="#DB4431"/>
<path d="M868.376 272.924L896.731 272.938C896.756 275.763 896.736 278.588 896.671 281.412L868.365 281.327C868.422 278.526 868.426 275.725 868.376 272.924Z" fill="#DB4431"/>
<path d="M868.355 310.814L896.481 310.862C896.493 313.376 896.605 316.751 896.394 319.193L868.381 319.183C868.456 316.317 868.416 313.675 868.355 310.814Z" fill="#DB4431"/>
<path d="M903.24 272.803C910.337 273.043 918.308 272.894 925.472 272.916L925.453 281.602L903.326 281.615C903.218 278.84 903.262 275.606 903.24 272.803Z" fill="#F3E4E2"/>
<path d="M904.238 214.967L926.387 215L926.412 223.132C925.095 223.635 906.931 223.353 904.246 223.349L904.238 214.967Z" fill="#F3E4E2"/>
<path d="M876.609 215.035L897.794 215.042L897.78 223.356L876.626 223.361L876.609 215.035Z" fill="#DB4431"/>
<path d="M814.021 154.756L832.589 154.81L832.598 162.594L814.028 162.601L814.021 154.756Z" fill="#F3E4E2"/>
<path d="M814.149 187.055L832.288 187.079C832.303 189.376 832.418 192.617 832.212 194.835C826.186 194.768 820.159 194.758 814.133 194.809L814.149 187.055Z" fill="#DB4431"/>
<path d="M814.012 124.493L832.579 124.48L832.57 131.521L814.017 131.517L814.012 124.493Z" fill="#DB4431"/>
<path d="M805.983 136.902C806.706 136.977 806.76 137.009 807.455 137.249C807.728 137.704 807.763 203.319 807.476 207.398C806.47 207.473 806.905 207.585 806.095 207.205C805.095 204.554 805.876 145.588 805.983 136.902Z" fill="#1B1A1B"/>
<path d="M837.928 154.672C843.254 154.832 849.035 154.716 854.395 154.71L854.357 162.394L837.919 162.463C837.889 159.866 837.892 157.269 837.928 154.672Z" fill="#F3E4E2"/>
<path d="M851.225 187.209L854.563 187.199L854.56 194.9C850.3 194.991 845.797 194.922 841.517 194.928L838.2 194.955L838.189 187.23L851.225 187.209Z" fill="#F3E4E2"/>
<path d="M837.99 124.514L854.104 124.488L854.083 131.593L837.988 131.579L837.99 124.514Z" fill="#DB4431"/>
<path d="M1102.2 276.885C1122.28 289.046 1135.15 306.796 1140.35 329.725C1145.8 353.752 1145.57 379.754 1142.75 404.156C1141.71 413.1 1138.37 436.219 1128.62 439.604C1126.59 440.309 1112.62 439.689 1109.21 439.584C1087.37 438.724 1065.55 437.434 1043.77 435.717C1032.59 434.836 1020.74 433.619 1009.62 432.958C1009.99 427.513 1010.23 418.635 1010.83 413.601C1015.26 412.264 1021.01 410.658 1025.25 409.094C1030.07 407.318 1041.04 405.375 1044.83 402.955C1045.69 400.98 1045.04 392.781 1044.91 390.128C1053.99 388.442 1064.26 386.756 1073.51 385.857C1078.66 385.357 1085.17 386.496 1090.36 386.877C1094.92 387.375 1098.43 388.78 1102.61 390.467C1103.27 390.735 1103.57 390.455 1104.13 390.149L1104.35 389.646C1102.68 386.754 1089.76 384.726 1086.34 384.423C1089.77 371.378 1091.47 356.293 1095.1 342.765C1095.95 338.205 1096.55 332.545 1097.17 327.87C1098.63 317.625 1099.84 307.346 1100.8 297.044C1101.41 290.229 1101.67 283.652 1102.2 276.885Z" fill="#F7F7F7"/>
<path d="M1023.74 407.31C1018.11 409.72 1011.02 411.525 1005.05 413.188C980.309 420.073 956.006 428.474 930.643 432.859C916.111 435.375 912.681 427.303 911.914 414.598C908.973 365.93 907.823 302.508 957.491 276.322C958.812 284.61 959.393 292.737 960.04 301.097C961.307 317.803 961.988 334.549 962.084 351.303C960.511 350.997 957.976 350.69 955.625 351.143C948.692 352.48 936.359 356.324 930.969 360.949C930.466 361.379 930.915 363.032 931.059 363.601L931.15 363.952C930.11 365.79 928.059 365.401 928.01 368.606C929.313 371.915 940.29 369.382 943.674 368.947C941.567 371.525 941.571 372.62 941.526 375.791C939.647 376.392 930.004 378.646 930.666 381.046C930.846 381.167 931.026 381.286 931.206 381.407C933.856 380.22 944.229 377.08 946.035 376.46C955.589 373.187 965.089 373.502 974.885 372.54C988.1 371.241 1000.92 370.7 1014.12 370.719C1014.58 371.145 1015.03 371.582 1015.47 372.03C1023.27 380.104 1023.9 396.821 1023.74 407.31Z" fill="#F7F7F7"/>
<path d="M1058.49 264.805C1073.27 266.178 1089.27 269.336 1102.2 276.886C1101.67 283.653 1101.41 290.23 1100.8 297.045C1099.84 307.348 1098.63 317.626 1097.17 327.871C1096.55 332.546 1095.95 338.207 1095.1 342.766C1094.67 342.166 1094.19 342.151 1093.55 342.14C1092.17 343.808 1086.82 372.386 1086.19 376.308C1078.24 374.054 1070.59 372.471 1062.49 370.913C1058.71 370.185 1051.36 368.218 1047.82 368.081C1041.5 367.835 1033.87 368.152 1027.46 368.339C1027.5 354.567 1028.84 339.611 1028.75 325.739C1029.38 324.218 1033.01 320.082 1034.23 318.499C1039.83 311.18 1047.4 300.898 1050.12 292.042C1051.24 292.922 1052.36 294.718 1053.85 294.609C1055.49 291.762 1058.16 269.239 1058.49 264.805Z" fill="#DB4431"/>
<path d="M957.492 276.323C971.678 269.059 985.253 265.889 1001.18 264.977C1001.5 268.968 1003.11 292.527 1004.02 294.43C1005.72 294.813 1006.92 292.99 1008.01 291.811C1009.3 298.141 1017.9 312.92 1021.66 318.554C1022.97 320.509 1026.25 324.893 1027.04 326.708C1026.51 328.762 1026.39 339.988 1026.32 342.67C1026.09 351.105 1025.57 359.99 1025.58 368.391C1015.59 368.547 1004.66 368.547 994.787 369.147C986.386 361.495 973.31 353.174 962.085 351.303C961.989 334.549 961.308 317.804 960.041 301.098C959.394 292.738 958.813 284.611 957.492 276.323Z" fill="#DB4431"/>
<path d="M1008 291.811C1013.34 286.349 1021.83 279.277 1028.4 275.248C1028.24 286.238 1027.61 297.279 1027.48 308.279C1027.44 311.753 1027.24 315.214 1027.12 318.682C1027.09 319.436 1027.61 320.229 1028.36 320.429C1029.35 319.689 1029.32 317.009 1029.37 315.744C1029.86 302.326 1029.91 288.858 1030.41 275.442C1035.53 278.564 1039.99 282.566 1044.39 286.616C1046.15 288.238 1048.35 290.567 1050.12 292.042C1047.4 300.898 1039.83 311.18 1034.23 318.499C1033.01 320.082 1029.38 324.217 1028.75 325.738L1027.04 326.708C1026.25 324.894 1022.97 320.509 1021.66 318.554C1017.9 312.92 1009.3 298.141 1008 291.811Z" fill="#F7F7F7"/>
<path d="M805.784 339.819L852.77 339.801C854.432 342.943 858.581 354.548 860.242 358.77L852.943 358.727C834.921 358.54 816.477 358.694 798.438 358.757C800.444 353.363 803.383 344.758 805.784 339.819Z" fill="#F7F7F7"/>
<path d="M1034.98 370.104L1040.14 369.969C1042.3 382.219 1043.14 389.548 1043.19 401.9C1037.59 403.457 1031.66 405.223 1026.07 406.662L1025.82 406.24C1026.16 394.274 1024.77 380.025 1016.9 370.536L1034.98 370.104Z" fill="#F7F7F7"/>
<path d="M955.736 353.12C967.34 351.437 983.133 362.033 991.696 369.225C978.77 370.692 965.24 370.619 952.384 372.845C949.536 373.338 946.558 374.648 943.657 374.971C943.324 374.388 943.396 373.734 943.548 373.073C944.873 367.318 953.712 367.013 958.425 367.097C961.365 367.15 968.756 369.699 970.475 368.683L970.479 368.309C968.929 366.408 963.024 365.945 960.645 365.463C956.575 364.638 952.388 365.462 948.361 366.164C946.212 366.537 931.123 368.824 930.367 368.363L930.316 367.805C931.493 365.414 936.31 363.869 938.594 363.082C949.164 359.437 958.63 356.333 969.536 360.842C971.109 361.492 974.208 363.169 975.741 362.33L975.862 361.672C974.854 360.48 971.151 359.436 969.693 358.868C959.855 355.032 950.532 356.581 940.94 360.283C939.36 360.892 934.16 362.959 932.662 362.351C934.475 358.965 951.644 353.794 955.736 353.12Z" fill="#F7F7F7"/>
<path d="M1042.36 369.949C1050.67 369.739 1055.82 371.774 1063.8 373.267C1071.62 374.731 1078.09 376.108 1085.79 378.237C1085.46 380.218 1085.02 382.239 1084.62 384.209L1081.71 384.112C1071.38 383.086 1055.5 386.323 1044.78 388.142C1044.15 382.055 1043.35 375.987 1042.36 369.949Z" fill="#F7F7F7"/>
<path d="M1054.35 250.08C1058.45 254.6 1056.95 262.255 1056.3 267.823C1055.34 275.714 1054.2 283.582 1052.89 291.421C1049.97 289.144 1046.03 285.332 1043.08 282.74C1039.3 279.503 1035.68 276.302 1031.54 273.531C1041.99 267.456 1050.39 261.895 1054.35 250.08Z" fill="#F7F7F7"/>
<path d="M1008.51 249.504C1008.86 249.639 1008.91 249.703 1009.22 249.91C1005.31 260.523 1020.09 268.86 1027.35 273.547C1022.33 276.829 1019.63 278.875 1015 282.669C1011.23 285.719 1008.88 287.937 1005.55 291.336C1005.27 289.957 1005.12 288.507 1005.01 287.104C1004.31 278.686 1003.49 270.273 1002.98 261.844C1002.64 256.437 1005.04 253.202 1008.51 249.504Z" fill="#F7F7F7"/>
<path d="M793.875 360.656C798.612 360.523 804.223 360.675 809.023 360.669L840.987 360.598C849.053 360.576 859.009 360.23 867.069 360.892C868.995 361.051 870.576 365.48 865.69 366.075C842.208 366.363 818.624 365.79 795.129 366.14C789.358 366.226 789.893 361.456 793.875 360.656Z" fill="#F3E4E2"/>
<path d="M1008.27 414.316L1008.57 414.623C1008.79 417.643 1007.9 428.927 1007.66 432.588L989.395 431.332C987.864 430.174 987.631 422.499 987.5 420.359C994.445 418.415 1001.37 416.401 1008.27 414.316Z" fill="#F7F7F7"/>
</g>
</g>
<defs>
<clipPath id="clip0_1238_3908">
<rect width="1264" height="461" fill="white"/>
</clipPath>
<clipPath id="clip1_1238_3908">
<rect width="550" height="550" fill="white" transform="translate(640 -13)"/>
</clipPath>
</defs>
</svg>
