<svg width="1264" height="461" viewBox="0 0 1264 461" fill="none" xmlns="http://www.w3.org/2000/svg">
<g clip-path="url(#clip0_1240_3983)">
<rect width="1264" height="461" rx="16" fill="#F7F7F7"/>
<g clip-path="url(#clip1_1240_3983)">
<path d="M649 -15H1197V519H649V-15Z" fill="#F7F7F7"/>
<path d="M1034.38 101.617C1048.6 105.383 1064.24 103.373 1076.71 112.254C1083.25 116.918 1086.83 121.69 1088.65 129.422C1100.41 134.967 1101.37 145.094 1095.46 155.568C1091.19 163.134 1087.18 169.631 1080.4 175.347C1081.23 179.871 1085.1 196.033 1087.58 199.666L1087.7 199.839C1089.1 200.374 1093.01 201.698 1094.01 202.317C1097.31 203.409 1102.46 206.103 1105.6 207.756C1111.33 211.492 1115.43 214.232 1120.31 219.237C1124.93 223.974 1127.33 228.285 1130.71 233.63C1139.45 247.457 1144.44 262.591 1147.5 278.596C1151.19 297.939 1152.21 320.453 1149.62 340.162C1149.27 342.78 1148.5 346.122 1147.75 348.658C1147.04 351.087 1145.77 353.128 1145.49 355.722C1145.85 358.687 1145.94 363.29 1146.09 366.365L1147.05 391.499C1147.72 406.159 1148.09 420.765 1148.67 435.422C1149.06 445.382 1149.67 455.405 1149.64 465.372L979.472 465.477C979.327 457.631 980.325 448.244 980.792 440.347C981.915 421.375 983.498 402.459 984.135 383.453L952.569 383.518C946.991 383.534 940.753 383.68 935.22 383.486C931.936 376.72 929.062 369.093 925.874 362.122C916.736 360.251 915.903 354.645 914.085 346.799C912.771 341.127 912.54 335.54 912.065 329.775C912.035 329.405 910.487 326.446 910.183 325.84L840.489 325.807C814.239 325.748 786.526 325.44 760.315 325.974C760.134 333.887 760.1 341.803 760.214 349.718C760.241 354.015 760.4 358.429 760.127 362.703C759.738 367.673 756.014 369.84 751.248 369.824C737.421 369.779 723.493 370.159 709.691 369.6C707.433 369.509 704.391 366.565 704.088 364.334C703.493 359.97 703.759 355.326 703.777 350.882L703.81 325.783C701.409 325.757 699.324 325.725 696.918 325.539C696.726 323.266 696.844 318.957 696.837 316.575L696.87 297.699C696.963 273.324 695.034 252.49 705.354 229.474C708.828 221.724 713.059 217.334 717.199 210.421C712.24 207.968 707.224 205.543 702.313 203.009C695.094 199.287 693.182 190.702 698.93 184.786C701.058 182.577 704.013 181.302 707.122 181.252C713.971 181.152 720.501 189.31 725.273 193.894C727.441 187.952 729.224 181.862 731.371 175.935C738.116 157.319 744.056 138.47 750.392 119.724C750.986 118.315 752.488 113.281 754.091 112.797C759.978 111.023 767.956 110.954 774.042 110.548C820.15 107.537 866.411 107.442 912.531 110.262C917.84 110.628 927.804 110.8 932.783 112.708C935.569 113.776 938.269 122.382 939.395 125.397L944.533 139.146C951.314 157.47 957.769 176.56 964.77 194.706C968.244 191.342 971.772 188.177 975.427 184.919C981.014 179.475 990.772 179.471 994.683 186.926C1000.36 197.75 989.905 201.009 982.792 204.363C979.046 206.104 975.356 207.958 971.727 209.922C979.609 220.781 986.154 239.54 989.651 252.3C989.866 252.432 989.716 252.366 990.138 252.369C991.05 251.027 993.299 245.557 994.379 243.494C998.385 235.837 1003.9 226.72 1009.82 220.407C1010.39 219.39 1013.81 216.055 1014.81 215.129C1021.65 208.786 1030.28 205.124 1038.96 201.819C1041.66 200.789 1044.57 200.066 1047.18 198.836C1049.81 195.461 1052.48 186.627 1053.52 182.394C1041.32 182.054 1032.45 179.1 1032.11 165.437C1031.76 151.775 1035.49 139.375 1040.48 126.806C1030.81 122.146 1031.4 110.081 1034.38 101.617Z" fill="#1E1E1E"/>
<path d="M698.279 270.912C698.335 256.11 701.881 236.285 709.939 223.645C715.553 214.837 722.034 206.578 725.807 196.457C728.119 190.25 730.106 183.839 732.265 177.564L745.37 139.105C746.3 136.3 752.79 114.305 755.276 113.617C759.577 112.427 769.454 111.955 774.448 111.622C821.857 108.653 869.414 108.694 916.817 111.745C921.296 112.068 926.438 112.15 930.722 113.27C933.164 114.132 934.661 116.718 935.501 118.863C942.7 137.141 948.872 155.871 955.951 174.18C960.304 185.441 963.676 198.985 969.975 209.259C976.141 219.315 980.971 228.5 984.418 239.849C985.291 242.723 986.309 246.077 987.38 248.895C987.76 250.557 988.877 254.555 989.042 255.907C987.119 258.452 985.314 265.783 983.857 268.601L983.629 268.591C970.188 272.383 956.275 274.89 942.439 276.95C940.129 277.294 938.07 277.459 935.754 277.954C928.147 279.486 915.688 280.635 907.768 281.518C906.036 280.339 905.098 279.683 903.558 278.299C904.875 268.029 910.524 257.432 918.134 250.215C927.582 241.393 940.254 236.615 953.334 236.942C947.35 239.313 943.008 241.597 940.716 247.963C939.158 252.227 939.432 256.923 941.477 260.987C943.476 264.988 947.035 268.043 951.361 269.469C959.573 272.149 969.997 267.722 972.725 259.462C976.26 248.759 970.055 239.124 958.945 236.61C947.405 233.998 936.158 236.989 926.032 242.688C916.124 248.253 908.692 257.411 904.97 267.936C903.826 271.172 903.113 274.461 902.241 277.777C900.368 278.172 898.405 278.391 896.501 278.594C868.385 281.651 840.127 281.149 811.939 279.513C802.953 278.992 792.496 277.747 783.641 277.812C784.136 271.725 782.992 265.617 780.321 260.094C775.154 249.24 764.534 242.084 753.263 237.915C741.19 233.449 720.794 233.976 715.834 248.246C711.17 261.666 725.508 275.144 739.287 268.198C743.516 266.098 746.685 262.41 748.061 257.983C749.323 253.814 748.842 249.327 746.723 245.501C743.812 240.358 739.548 238.421 734.075 236.855C737.263 236.505 741.203 236.351 744.352 236.976C767.067 241.49 785.751 257.602 781.83 281.567C779.045 281.332 775.546 280.733 772.673 280.38L750.142 277.638C738.849 276.399 727.576 274.986 716.329 273.401C710.477 272.631 704.031 271.928 698.279 270.912Z" fill="#FEFEFF"/>
<path d="M820.988 116.276C847.899 115.812 874.818 116.234 901.7 117.542C908.24 117.871 923.172 118.417 928.842 120.028C930.241 122.386 931.473 126.297 932.4 128.969C934.003 133.654 935.633 138.33 937.29 142.997L949.581 177.093C951.592 182.648 955.429 192.411 956.784 197.947C927.421 199.069 898.04 199.728 868.655 199.927C823.428 200.153 778.202 199.557 732.998 198.142C739.309 180.418 745.342 162.602 751.098 144.7L755.835 130.449C756.854 127.3 758.121 122.77 759.541 119.895C761.777 119.074 771.414 118.682 774.452 118.489C789.949 117.473 805.464 116.735 820.988 116.276Z" fill="#1E1E1E"/>
<path d="M826.668 205.123C827.19 205.213 827.173 205.235 827.673 205.426C828.338 206.363 835.158 254.916 835.745 259.593C841.012 259.801 846.42 259.677 851.7 259.621C852.83 254.447 853.616 247.473 854.362 242.11L857.799 218.194C858.088 216.12 859.026 206.484 860.012 205.391L860.466 205.444L860.784 206.059C859.231 215.267 858.399 225.46 856.827 234.563C856.045 239.087 854.138 258.196 852.379 260.594C850.253 261.463 837.683 261.05 834.787 260.856C832.835 248.294 830.985 235.717 829.237 223.127C828.459 217.774 826.979 210.194 826.668 205.123Z" fill="#1E1E1E"/>
<path d="M1034.38 101.617C1048.6 105.383 1064.24 103.373 1076.71 112.254C1083.25 116.918 1086.83 121.69 1088.65 129.422C1100.41 134.967 1101.37 145.094 1095.46 155.568C1091.18 163.134 1087.18 169.631 1080.4 175.347C1081.23 179.871 1085.1 196.033 1087.58 199.666L1087.7 199.839C1089.1 200.374 1093 201.698 1094 202.317C1092.73 202.956 1092.02 203.031 1091.86 204.443L1091.36 204.806C1088.81 225.275 1086.93 246.152 1084.67 266.653C1083.85 274.133 1083.38 282.416 1082.08 289.695C1069.29 290.149 1054.2 289.689 1041.11 289.707L1021.18 289.744C1017.19 289.755 1012.74 289.9 1008.81 289.611C1013.55 270.299 1017.21 250.591 1022.01 231.272C1023.82 224.017 1025.21 215.127 1027.59 208.134C1032.28 205.883 1035.82 204.315 1040.72 202.557C1042.33 206.614 1045.25 210.051 1049.04 212.353C1050.91 213.482 1059.51 217.061 1060.58 214.685C1059.09 212.928 1048.3 215.441 1041.91 202.08C1043.86 201.365 1045.8 201.013 1047.89 200.234C1051.58 195.379 1053.86 186.681 1055.63 180.733C1033.95 182.62 1031.44 170.606 1034.41 152.643C1035.98 143.174 1038.02 136.49 1041.75 127.576C1041.09 126.777 1041.5 127.022 1040.48 126.806C1030.81 122.146 1031.4 110.081 1034.38 101.617Z" fill="#FEFEFF"/>
<path d="M1034.38 101.617C1048.6 105.383 1064.24 103.373 1076.71 112.254C1083.25 116.918 1086.83 121.69 1088.65 129.422C1100.41 134.967 1101.37 145.094 1095.46 155.568C1091.19 163.134 1087.18 169.631 1080.4 175.347C1081.23 179.871 1085.1 196.033 1087.58 199.666L1087.7 199.839C1089.1 200.374 1093.01 201.698 1094.01 202.317C1092.73 202.956 1092.02 203.031 1091.86 204.443L1091.36 204.806C1091.41 203.95 1091.43 203.94 1091.25 203.113C1090.64 203.401 1089.71 205.006 1089.24 205.706C1086.72 209.494 1076.06 216.185 1071.62 214.861L1071.46 214.458C1072.49 213.491 1075.24 213.247 1076.77 212.726C1082.17 210.886 1086.9 207.525 1089.52 202.518L1089.7 202.178C1088.52 201.703 1087.46 201.16 1086.32 200.6L1086.16 200.254C1082.54 192.4 1080.02 180.474 1078.36 172.006C1078.03 170.314 1076.61 165.196 1077.15 163.805C1083.05 166.721 1087.74 165.733 1089.52 159.111C1090.92 153.883 1083.62 149.026 1079.92 153.454C1079.58 153.867 1078.95 153.608 1078.56 153.446C1077.29 151.623 1078.94 147.79 1078.82 145.471C1078.61 141.231 1079.28 137.235 1074.19 135.725C1063.7 132.614 1053.03 129.568 1042.38 127.146C1042.04 127.069 1041.93 127.368 1041.75 127.576C1041.09 126.777 1041.5 127.022 1040.48 126.806C1030.81 122.146 1031.4 110.081 1034.38 101.617Z" fill="url(#paint0_linear_1240_3983)"/>
<path d="M1055.5 163.752C1057.39 165.14 1056.04 167.13 1054.65 168.362C1053.07 169.785 1050.97 170.533 1048.82 170.438C1045.95 170.317 1044.1 168.969 1042.26 167.013C1042.09 166.292 1041.93 165.995 1042.18 165.315C1042.32 165.288 1042.45 165.262 1042.59 165.236C1044.94 167.423 1047.71 170.27 1051.35 168.903C1053.68 168.026 1054.51 166.125 1055.5 163.752Z" fill="#1E1E1E"/>
<path d="M1048.71 148.611C1049.56 149.294 1049.28 148.877 1049.6 149.902C1049.2 152.012 1046.66 152.972 1045.39 154.48C1042.98 157.335 1047.23 158.74 1047.25 160.596C1045.34 160.573 1044.29 159.651 1043.65 157.865C1042.37 154.279 1045.08 153.072 1047.33 150.984C1047.76 150.583 1048.4 149.232 1048.71 148.611Z" fill="#1E1E1E"/>
<path d="M1061.42 148.362C1062.59 148.101 1063.76 148.752 1064.12 149.86C1064.49 150.967 1063.92 152.161 1062.82 152.605C1062.02 152.927 1061.1 152.783 1060.44 152.233C1059.79 151.684 1059.51 150.822 1059.71 150.004C1059.92 149.186 1060.58 148.551 1061.42 148.362Z" fill="#1E1E1E"/>
<path d="M1042.81 141.313C1043.59 141.202 1044.36 141.514 1044.84 142.126C1045.31 142.738 1045.4 143.553 1045.08 144.251C1044.75 144.949 1044.06 145.417 1043.28 145.474C1042.12 145.556 1041.11 144.734 1040.98 143.614C1040.86 142.493 1041.66 141.477 1042.81 141.313Z" fill="#1E1E1E"/>
<path d="M1083.19 155.619C1084.01 156.096 1083.78 155.768 1084.01 156.548C1083.69 157.649 1082.74 158.609 1081.98 159.537C1081.25 159.035 1081.5 159.357 1081.2 158.535C1081.38 157.137 1082.15 156.563 1083.19 155.619Z" fill="#1E1E1E"/>
<path d="M983.629 268.592C983.9 269.488 983.906 269.026 983.401 270.011C981.267 278.352 977.45 286.785 975.596 295.307L968.519 295.01C967.909 294.08 967.253 292.765 966.22 292.242C964.745 291.495 927.333 290.62 925.766 291.26C925.547 291.349 925.524 291.378 925.448 291.611C925.053 292.804 926.16 294.441 926.701 295.484C917.287 295.789 907.503 295.18 897.998 295.583C898.896 298.707 901.074 303.364 902.371 306.42C904.909 312.418 907.381 318.443 909.789 324.492L777.647 324.494L728.368 324.567C718.39 324.569 708.156 324.696 698.213 324.366L698.259 272.457C701.324 272.656 705.236 273.324 708.404 273.718L733.193 276.983C749.611 279.089 766.044 281.084 782.49 282.967C782.876 281.865 783.21 280.218 783.486 279.045C787.207 279.053 791.747 279.465 795.512 279.717C801.494 280.119 807.479 280.483 813.466 280.809C841.637 282.35 869.766 283.085 897.855 279.694C899.379 279.51 900.885 279.312 902.4 279.068C904.157 280.368 905.506 281.683 907.436 282.805C917.086 281.569 926.781 280.931 936.405 279.266C936.279 278.836 935.978 278.364 935.754 277.955C938.07 277.46 940.129 277.295 942.439 276.951C956.275 274.891 970.188 272.384 983.629 268.592Z" fill="#FEFEFF"/>
<path d="M983.628 268.592C983.9 269.488 983.905 269.026 983.4 270.011C977.108 271.683 971.385 273.178 964.983 274.476C958.829 275.723 950.97 276.535 945.064 278.038C946.639 280.118 948.195 281.916 947.817 284.741C947.622 286.259 946.778 287.626 945.495 288.506C943.987 289.544 942.108 289.934 940.297 289.585C938.461 289.223 936.865 288.129 935.896 286.567C934.315 283.966 935.182 281.749 936.404 279.266C936.278 278.836 935.977 278.364 935.753 277.955C938.069 277.46 940.128 277.295 942.438 276.951C956.274 274.891 970.187 272.384 983.628 268.592Z" fill="url(#paint1_linear_1240_3983)"/>
<path d="M940.984 283.045C941.97 284.36 943.63 285.617 944.934 286.704C943.898 287.699 943.366 287.937 942.022 288.418C936.29 288.382 937.921 285.566 940.984 283.045Z" fill="#FEFEFF"/>
<path d="M792.514 292.19C821.472 291.696 850.736 293.093 879.729 292.424C881.236 292.39 890.464 292.124 891.25 292.826C892.073 295.307 892.057 313.593 891.028 315.757C888.361 316.278 881.494 316.066 878.424 316.071L853.989 316.079L817.707 316.064C811.162 316.065 804.483 316.07 797.937 315.943C797.273 315.93 795.652 315.878 795.488 315.371C794.277 311.62 792.131 295.096 792.514 292.19Z" fill="#1E1E1E"/>
<path d="M793.641 293.482C799.046 293.273 805.564 293.444 811.044 293.465L846.133 293.762C860.881 293.92 875.765 293.48 890.433 293.713C890.412 299.851 890.651 308.703 890.219 314.607C887.192 314.959 882.105 314.815 878.924 314.816L860.113 314.817L796.526 314.808C795.939 312.663 795.462 308.284 795.16 305.969C794.633 301.916 793.977 297.536 793.641 293.482Z" fill="#FEFEFF"/>
<path d="M1105.6 207.756C1111.33 211.492 1115.43 214.232 1120.31 219.237C1124.93 223.974 1127.33 228.285 1130.71 233.63C1139.45 247.457 1144.44 262.591 1147.5 278.596C1151.19 297.939 1152.21 320.453 1149.62 340.162C1149.27 342.78 1148.5 346.122 1147.75 348.658C1147.04 351.087 1145.77 353.127 1145.49 355.722L1145.27 355.943C1143.45 357.832 1141.98 359.973 1140.2 361.92C1135.29 367.293 1128.61 370.827 1121.36 372.129C1115.54 373.175 1109.32 372.94 1103.42 373.391C1090.45 374.129 1077.13 374.299 1064.19 375.305C1063.32 372.565 1062.52 369.947 1061.51 367.252C1060.77 363.644 1050.18 330.471 1048.78 329.115C1049.06 328.248 1048.59 327.941 1049.02 327.039C1050.69 326.589 1061.35 326.158 1063.68 326.039C1074.24 325.564 1084.79 324.961 1095.33 324.228C1094.8 309.363 1094.52 294.491 1094.47 279.617C1094.47 258.189 1094.62 226.793 1105.6 207.756Z" fill="#DB4431"/>
<path d="M995.839 340.102C999.29 341.093 1017.33 345.042 1020.21 343.311L1020.29 342.81C1019.11 341.988 1000.42 341.257 996.713 338.768C993.107 336.349 990.925 330.226 995.445 331.45C999.499 332.548 1030.87 335.219 1032.19 333.339C1031.26 332 1029.43 332.702 1027.95 332.197C1023.18 330.555 1018.54 327.747 1014.91 324.341C1012.13 321.741 1012.92 316.962 1017.47 318.69C1021.57 320.248 1025.8 322.148 1029.78 323.956C1036.22 326.876 1041.85 327.848 1048.78 329.115C1050.18 330.471 1060.77 363.645 1061.51 367.252C1055.2 367.292 1048.99 366.118 1042.81 366.087C1037.44 366.482 1032.37 367.409 1026.95 367.591C1015.9 367.962 1009.36 369.884 1003.47 358.759C1006.32 359.534 1019.62 361.817 1021.08 359.603C1020.21 358.821 1015.23 359.073 1013.72 358.968C1010.03 358.711 1006.95 358.504 1003.48 357.195L1003.12 357.057C1001.43 355.11 1000.31 352.505 999.531 350.104C1002.89 350.52 1017.14 353.102 1019.45 351.187C1019.38 350.956 1019.24 350.461 1018.79 350.445C1012.98 350.24 1005.15 350.593 999.907 348.153C997.343 346.96 996.331 342.582 995.839 340.102Z" fill="#FEFEFF"/>
<path d="M989.649 252.299C989.865 252.432 989.715 252.366 990.137 252.369C991.048 251.026 993.298 245.556 994.378 243.493C998.384 235.837 1003.9 226.72 1009.82 220.406L1010.29 221.447C1009.18 225.588 1007.34 229.861 1006.45 234.036C1004.04 245.315 1001.05 256.431 998.447 267.666C996.302 276.932 994.395 286.197 992.029 295.412C989.197 295.482 977.79 295.782 975.596 295.307C977.449 286.784 981.267 278.352 983.4 270.01C983.905 269.025 983.9 269.487 983.628 268.591L983.856 268.601C985.313 265.783 987.118 258.452 989.042 255.907C988.877 254.555 987.759 250.557 987.38 248.895L987.7 248.884C988.251 250.876 988.572 252.244 989.473 254.14L989.779 254.27C990.029 253.224 990.072 253.497 989.453 252.556L989.649 252.299Z" fill="#DB4431"/>
<path d="M989.65 252.299C989.866 252.432 989.716 252.366 990.138 252.369C991.049 251.026 993.299 245.556 994.379 243.493C998.385 235.837 1003.9 226.72 1009.82 220.406L1010.29 221.447C1002.3 229.046 994.08 246.312 989.577 256.235L989.043 255.907C988.878 254.555 987.76 250.557 987.381 248.895L987.701 248.884C988.252 250.876 988.573 252.244 989.474 254.14L989.781 254.27C990.03 253.224 990.073 253.497 989.454 252.556L989.65 252.299Z" fill="#1E1E1E"/>
<path d="M983.857 268.601C985.314 265.782 987.119 258.451 989.043 255.906L989.577 256.235C989.786 258.017 986.21 265.909 985.43 268.009C985.225 268.56 984.396 268.663 983.857 268.601Z" fill="url(#paint2_linear_1240_3983)"/>
<path d="M969.391 296.49L996.63 296.879C1001.78 307.049 1005.98 317.95 1011.19 328.119C1011.84 329.403 1012.45 330.786 1013.06 332.096C1007.89 332.04 1002.91 331.113 997.818 330.39C996.328 330.179 992.784 329.466 992.035 331.111C990.527 334.426 993.264 337.313 994.317 340.321L994.624 342.42C995.339 344.582 995.875 345.134 996.715 347.013C998.593 351.21 1000.91 356.485 1002.54 360.689C1003.11 361.432 1003.25 361.597 1003.66 362.473C1011.68 371.635 1017.96 368.969 1028.97 368.82C1030.64 373.282 1032.69 377.643 1034.47 382.103L936.133 382.268C926.942 360.205 916.684 338.258 907.833 316.027C905.344 309.776 902.214 303.107 899.975 296.875C909.217 296.622 918.346 296.906 927.634 296.684C931.406 302.659 931.37 302.463 938.608 302.441C949.808 302.405 961.181 302.672 972.365 302.42C971.51 300.51 970.355 298.361 969.391 296.49Z" fill="#FEFEFF"/>
<path d="M994.317 340.32L994.625 342.419C981.648 342.293 968.67 342.242 955.692 342.265C952.444 342.258 937.556 342.719 935.611 341.685L935.612 341.202C937.613 339.68 940.821 340.24 943.316 340.267L953.699 340.287L994.317 340.32Z" fill="#F3E4E2"/>
<path d="M1002.54 360.688C1003.11 361.432 1003.25 361.596 1003.66 362.473C989.379 362.881 974.493 362.405 960.158 362.545C957.399 362.572 945.264 362.802 943.486 362.271C943.123 361.564 943.163 361.925 943.381 361.147C943.945 360.691 944.46 360.5 945.202 360.506C951.022 360.558 956.92 360.551 962.733 360.568L1002.54 360.688Z" fill="#F3E4E2"/>
<path d="M926.075 319.813L968.469 319.803L981.667 319.776C983.686 319.773 989.134 319.387 990.518 320.562C990.687 321.466 990.72 321.029 990.371 321.917C969.517 321.441 948.434 322.135 927.566 321.739C926.869 321.725 926.418 321.563 925.857 321.164C925.587 320.319 925.587 320.758 926.075 319.813Z" fill="#F3E4E2"/>
<path d="M954.717 238.443C963.273 237.346 971.131 243.193 972.3 251.525C973.469 259.857 967.51 267.544 958.965 268.726C950.358 269.916 942.4 264.058 941.223 255.665C940.045 247.272 946.098 239.547 954.717 238.443Z" fill="#FEFEFF"/>
<path d="M729.568 238.404C738.145 237.167 746.115 242.971 747.33 251.337C748.544 259.702 742.538 267.432 733.946 268.562C725.43 269.682 717.584 263.893 716.381 255.603C715.177 247.312 721.068 239.63 729.568 238.404Z" fill="#FEFEFF"/>
<path d="M982.548 182.413C992.838 181.65 998.998 191.979 991.923 198.264C989.883 200.076 978.835 204.816 975.831 206.267C974.267 207.078 972.693 207.871 971.11 208.646C969.32 205.331 966.488 199.519 965.084 196.087C970.097 191.741 976.399 184.287 982.548 182.413Z" fill="#FEFEFF"/>
<path d="M707.175 182.471C711.342 182.545 713.814 184.598 716.623 187.315C719.369 189.972 722.058 192.69 724.759 195.392C722.921 200.662 720.475 204.571 717.697 209.377L716.187 208.484C710.586 205.441 697.684 201.454 696.861 194.125C696.161 187.895 700.824 183.318 707.175 182.471Z" fill="#FEFEFF"/>
<path d="M913.699 334.352C915.077 335.762 923.46 356.531 925.115 360.381C923.45 360.132 922.126 359.807 920.823 358.681C915.851 354.386 914.268 340.74 913.699 334.352Z" fill="#FEFEFF"/>
<path d="M863.141 357.112C872.18 357.265 882.795 356.781 891.681 357.27L891.713 361.245C895.333 361.236 909.74 360.514 912.016 362.065C913.083 364.038 913.097 366.279 913.112 368.466L913.212 414.598L913.221 429.972C913.216 432.671 913.372 435.487 913.111 438.171C913.017 439.139 912.81 440.691 911.937 441.331C909.939 442.796 895.906 442.184 892.563 442.19C886.811 442.247 845.578 442.917 843.529 441.419C842.791 440.879 842.342 439.95 842.222 439.08C841.787 435.919 842.054 432.447 842.03 429.238C841.974 422.056 841.968 414.874 842.013 407.691L842.015 380.463C842.018 375.894 841.871 371.272 842.095 366.711C842.143 365.733 842.291 362.772 842.978 362.094C844.924 360.176 859.709 361.016 862.887 361.028C862.914 359.681 863.028 358.45 863.141 357.112Z" fill="#1E1E1E"/>
<path d="M844.728 362.329C849.029 362.002 858.258 362.29 862.896 362.312C862.964 364.159 862.948 365.121 863.423 366.912C872.716 366.833 881.961 367.164 891.323 366.892C891.672 365.412 891.702 364.085 891.788 362.579C896.58 362.231 901.697 362.533 906.528 362.285C910.632 362.334 911.799 362.225 911.741 366.603C911.424 390.233 912.52 414.38 911.823 437.946C911.744 439.11 911.548 440.447 910.196 440.77C907.304 441.461 903.769 440.918 900.755 440.892C895.567 440.88 890.379 440.909 885.192 440.979C880.193 441 846.829 441.454 844.401 440.443C843.689 439.663 843.517 439.281 843.459 438.18C843.224 433.72 843.26 429.096 843.257 424.631L843.295 401.098L843.262 378.249C843.249 373.949 843.188 369.56 843.333 365.265C843.386 363.684 843.544 363.341 844.728 362.329Z" fill="#FEFEFF"/>
<path d="M851.313 376.191L903.009 376.096L902.946 383.418C886.102 383.418 868.081 383.715 851.295 383.253L851.313 376.191Z" fill="#DB4431"/>
<path d="M851.31 417.369L902.977 417.429L902.978 424.633C885.987 424.516 868.269 424.527 851.295 424.739L851.31 417.369Z" fill="#DB4431"/>
<path d="M851.279 397.375C868.491 397.509 885.704 397.527 902.917 397.43L902.908 404.552L851.262 404.514L851.279 397.375Z" fill="#DB4431"/>
<path d="M864.376 358.375C872.832 358.301 882.075 358.223 890.497 358.555C890.498 360.897 890.441 363.24 890.325 365.58C888.918 365.802 883.053 365.771 881.488 365.757C875.896 365.703 869.955 365.86 864.397 365.566C864.294 363.319 864.37 360.654 864.376 358.375Z" fill="#FEFEFF"/>
<path d="M990.855 60.5689C1008.41 59.9306 1023.18 73.2384 1023.91 90.3378C1024.64 107.438 1011.05 121.895 993.505 122.679C975.855 123.468 960.909 110.125 960.175 92.9213C959.44 75.718 973.197 61.2114 990.855 60.5689Z" fill="#F3E4E2"/>
<path d="M1004.07 77.3071C1007.82 77.05 1008.87 78.3454 1010.15 81.5843C1008.42 86.4633 1002.51 91.9619 999.753 96.3548C990.384 111.268 989.838 105.193 979.329 97.0839C975.516 93.6316 969.146 88.2332 977.592 85.4548C981.443 86.674 986.836 91.9681 990.112 94.8373C992.644 91.5363 1001.47 78.8674 1004.07 77.3071Z" fill="#FEFEFF"/>
<path d="M799.085 370.224C800.861 370.098 806.916 370.139 808.328 370.74C811.246 371.981 806.012 379.583 808.454 381.141C810.088 380.961 814.884 376.162 817.018 374.923C821.302 377.479 826.018 382.337 828.266 386.744C826.36 388.236 820.439 390.794 820.282 392.846C821.676 394.395 828.494 392.905 830.848 392.952C832.854 394.485 832.411 403.749 832.026 406.246C831.849 407.391 831.32 408.788 830.834 409.853C827.01 409.612 823.972 408.43 820.511 407.983C819.786 408.514 820.052 408.175 819.762 409.085C820.618 410.915 825.433 412.83 827.329 414.745C827.807 416.05 826.979 417.104 826.156 418.065C823.096 421.641 820.192 424.921 815.622 426.572C813.109 424.994 811.25 421.891 808.832 420L808.402 420.077C807.729 421.779 808.476 427.972 808.533 430.276C806.995 430.61 804.554 430.833 802.922 431.028C798.904 431.509 795.153 430.814 791.337 429.677C791.512 427.692 792.893 420.843 791.102 420.005C789.297 420.385 785.356 424.147 783.781 425.506C780.374 424.04 779.645 422.798 777.172 420.655C766.481 411.394 779.554 412.345 780.256 408.37C778.857 405.57 769.199 410.537 768.425 406.728C767.831 403.799 767.713 395.986 769.336 393.42C772.524 392.435 778.698 394.422 780.68 392.703L780.581 392.226C779.268 390.716 773.845 388.041 771.817 387.389C773.494 383.247 779.739 377.085 784.009 375.197C785.789 376.916 788.82 380.272 791.119 380.903C793.687 380.254 790.874 373.235 790.326 371.375C793.133 370.586 796.175 370.433 799.085 370.224Z" fill="#1E1E1E"/>
<path d="M797.794 371.522C800.912 371.264 805.221 371.553 808.291 372.053C807.473 375.167 806.604 378.095 805.912 381.255C807.204 381.909 808.156 382.209 809.516 382.68C811.947 381.05 814.758 378.309 816.934 376.283C820.424 378.899 824.214 382.456 826.393 386.212C824.236 387.783 819.281 389.592 818.862 392.32C818.707 393.328 820.014 394.49 820.727 395.216C822.621 395.065 828.095 394.044 829.376 394.268C832.181 394.759 830.772 406.525 830.3 408.452C826.742 408.237 823.777 406.684 820.348 406.806C818.574 406.87 818.356 408.606 818.034 409.981C820.419 411.991 824.013 413.5 826.054 415.677C823.888 419.372 819.816 423.342 815.746 425.027C812.821 422.268 805.616 412.249 806.59 423.636C806.748 425.481 806.932 427.316 807.134 429.158L804.402 429.61C800.258 430.159 796.895 429.896 792.823 428.929C792.956 426.344 795.437 414.734 789.631 418.888C787.778 420.214 785.278 422.503 783.474 424.023C780.078 422.174 776.079 418.014 773.951 414.901C775.929 413.087 777.856 412.47 780.091 411.107C782.704 409.513 781.912 408.183 780.722 406.093C778.603 406.002 772.286 406.694 769.758 406.878C769.087 403.054 769.205 397.999 770.086 394.208C773.58 394.18 777.689 394.731 781.317 394.894C781.802 393.743 782.111 392.446 782.444 391.235C779.726 389.527 776.635 388.028 773.759 386.554C776.328 382.347 779.626 379.578 783.601 376.732C785.868 378.819 788.126 380.868 790.296 383.052C791.98 382.297 792.75 381.873 794.319 380.904C793.627 377.802 792.872 375.218 791.965 372.173C793.994 371.832 795.739 371.693 797.794 371.522Z" fill="#FEFEFF"/>
<path d="M797.559 388.731C803.942 387.354 810.254 391.308 811.618 397.538C812.983 403.768 808.878 409.889 802.474 411.172C796.138 412.442 789.938 408.492 788.588 402.328C787.238 396.164 791.243 390.092 797.559 388.731Z" fill="#1E1E1E"/>
<path d="M798.073 389.974C803.706 388.867 809.195 392.415 810.338 397.903C811.48 403.392 807.844 408.744 802.213 409.863C796.574 410.984 791.071 407.434 789.927 401.938C788.783 396.442 792.431 391.083 798.073 389.974Z" fill="#FEFEFF"/>
<path d="M925.141 280.942L955.109 275.988L956.715 290.59H926.746L925.141 280.942Z" fill="#FEFEFF"/>
</g>
</g>
<defs>
<linearGradient id="paint0_linear_1240_3983" x1="1042.47" y1="203.176" x2="1078.29" y2="112.213" gradientUnits="userSpaceOnUse">
<stop stop-color="#07060C"/>
<stop offset="1" stop-color="#0D0A25"/>
</linearGradient>
<linearGradient id="paint1_linear_1240_3983" x1="972.354" y1="285.982" x2="943" y2="267.168" gradientUnits="userSpaceOnUse">
<stop/>
<stop offset="1" stop-color="#0D0A20"/>
</linearGradient>
<linearGradient id="paint2_linear_1240_3983" x1="985.208" y1="260.269" x2="987.544" y2="267.056" gradientUnits="userSpaceOnUse">
<stop stop-color="#3012E9"/>
<stop offset="1" stop-color="#4F41FA"/>
</linearGradient>
<clipPath id="clip0_1240_3983">
<rect width="1264" height="461" fill="white"/>
</clipPath>
<clipPath id="clip1_1240_3983">
<rect width="548" height="534" fill="white" transform="translate(649 -15)"/>
</clipPath>
</defs>
</svg>
